<svg xmlns="http://www.w3.org/2000/svg" xmlns:xlink="http://www.w3.org/1999/xlink" width="108" height="108" viewBox="0 0 108 108">
  <defs>
    <filter id="Trazado_904820" x="0" y="0" width="108" height="108" filterUnits="userSpaceOnUse">
      <feOffset dy="3" input="SourceAlpha"/>
      <feGaussianBlur stdDeviation="3" result="blur"/>
      <feFlood flood-opacity="0.161"/>
      <feComposite operator="in" in2="blur"/>
      <feComposite in="SourceGraphic"/>
    </filter>
    <clipPath id="clip-path">
      <path id="path21" d="M0-682.665H66.415v66.415H0Z" transform="translate(0 682.665)"/>
    </clipPath>
  </defs>
  <g id="Grupo_1224749" data-name="Grupo 1224749" transform="translate(-195.928 -4986)">
    <g id="Grupo_1223817" data-name="Grupo 1223817" transform="translate(0 4666)">
      <g id="Grupo_1223342" data-name="Grupo 1223342" transform="translate(-424.072 -561)">
        <g id="Grupo_1203639" data-name="Grupo 1203639" transform="translate(0 81)">
          <g id="Grupo_1202437" data-name="Grupo 1202437" transform="translate(0.523 386.813)">
            <g id="Grupo_1177315" data-name="Grupo 1177315" transform="translate(-0.523 -112.813)">
              <g id="Grupo_1173585" data-name="Grupo 1173585" transform="translate(629 532)">
                <g id="Grupo_1173428" data-name="Grupo 1173428" transform="translate(0 0)">
                  <g id="Grupo_1171958" data-name="Grupo 1171958">
                    <g id="Grupo_1167341" data-name="Grupo 1167341">
                      <g id="Grupo_1166792" data-name="Grupo 1166792">
                        <g transform="matrix(1, 0, 0, 1, -9, -6)" filter="url(#Trazado_904820)">
                          <g id="Trazado_904820-2" data-name="Trazado 904820" transform="translate(9 6)" fill="#c6c0d6">
                            <path d="M 44.99999618530273 88.49999237060547 C 39.12687301635742 88.49999237060547 33.43022155761719 87.35006713867188 28.06829643249512 85.08216857910156 C 22.88852119445801 82.89130401611328 18.23629570007324 79.75457763671875 14.24084663391113 75.75914001464844 C 10.24540901184082 71.76369476318359 7.108683586120605 67.11146545410156 4.917821407318115 61.93169403076172 C 2.649921178817749 56.56976699829102 1.499996185302734 50.87311553955078 1.499996185302734 44.99999237060547 C 1.499996185302734 39.12686920166016 2.649921178817749 33.43021774291992 4.917821407318115 28.06829261779785 C 7.108683586120605 22.88851737976074 10.24540901184082 18.23630523681641 14.24084663391113 14.24085521697998 C 18.23629570007324 10.24540519714355 22.88852119445801 7.108692169189453 28.06829643249512 4.917829990386963 C 33.43022155761719 2.649929761886597 39.12687301635742 1.500004887580872 44.99999618530273 1.500004887580872 C 50.87311935424805 1.500004887580872 56.56977081298828 2.649929761886597 61.93169784545898 4.917829990386963 C 67.11147308349609 7.108692169189453 71.76369476318359 10.24540519714355 75.75914764404297 14.24085521697998 C 79.75458526611328 18.23630523681641 82.89131164550781 22.88851737976074 85.08216857910156 28.06829261779785 C 87.35007476806641 33.43021774291992 88.5 39.12686920166016 88.5 44.99999237060547 C 88.5 50.87311553955078 87.35007476806641 56.56976699829102 85.08216857910156 61.93169403076172 C 82.89131164550781 67.11146545410156 79.75458526611328 71.76369476318359 75.75914764404297 75.75914001464844 C 71.76369476318359 79.75457763671875 67.11147308349609 82.89130401611328 61.93169784545898 85.08216857910156 C 56.56977081298828 87.35006713867188 50.87311935424805 88.49999237060547 44.99999618530273 88.49999237060547 Z" stroke="none"/>
                            <path d="M 44.99999618530273 2.999992370605469 C 39.32870864868164 2.999992370605469 33.82865142822266 4.11004638671875 28.65262603759766 6.299331665039062 C 23.65165710449219 8.414566040039062 19.15968322753906 11.44333648681641 15.301513671875 15.30150604248047 C 11.44333648681641 19.15967559814453 8.414566040039062 23.65164947509766 6.299339294433594 28.65262222290039 C 4.110054016113281 33.82864761352539 2.999992370605469 39.32870483398438 2.999992370605469 44.99999237060547 C 2.999992370605469 50.67127990722656 4.110054016113281 56.17132186889648 6.299339294433594 61.34736633300781 C 8.414566040039062 66.34833526611328 11.44333648681641 70.84029388427734 15.301513671875 74.69846343994141 C 19.15968322753906 78.55663299560547 23.65165710449219 81.58540344238281 28.65262603759766 83.70063781738281 C 33.82865142822266 85.88992309570312 39.32870864868164 86.99997711181641 44.99999618530273 86.99997711181641 C 50.67128372192383 86.99997711181641 56.17134094238281 85.88992309570312 61.34736633300781 83.70063781738281 C 66.34834289550781 81.58540344238281 70.84030914306641 78.55663299560547 74.69847869873047 74.69846343994141 C 78.55665588378906 70.84029388427734 81.58542633056641 66.34833526611328 83.70065307617188 61.34736633300781 C 85.88993835449219 56.17132186889648 87 50.67127990722656 87 44.99999237060547 C 87 39.32870483398438 85.88993835449219 33.82864761352539 83.70065307617188 28.65262222290039 C 81.58542633056641 23.65164947509766 78.55665588378906 19.15967559814453 74.69847869873047 15.30150604248047 C 70.84030914306641 11.44333648681641 66.34834289550781 8.414566040039062 61.34736633300781 6.299331665039062 C 56.17134094238281 4.11004638671875 50.67128372192383 2.999992370605469 44.99999618530273 2.999992370605469 M 44.99999618530273 -7.62939453125e-06 C 69.85281372070312 -7.62939453125e-06 90 20.14717864990234 90 44.99999237060547 C 90 69.85279083251953 69.85281372070312 89.99997711181641 44.99999618530273 89.99997711181641 C 20.14717864990234 89.99997711181641 -7.62939453125e-06 69.85279083251953 -7.62939453125e-06 44.99999237060547 C -7.62939453125e-06 20.14717864990234 20.14717864990234 -7.62939453125e-06 44.99999618530273 -7.62939453125e-06 Z" stroke="none" fill="#ebe9f0"/>
                          </g>
                        </g>
                      </g>
                    </g>
                  </g>
                </g>
              </g>
            </g>
          </g>
        </g>
      </g>
    </g>
    <g id="g15" transform="translate(218.142 5686.458)">
      <g id="g17" transform="translate(0 -682.665)">
        <g id="g19" clip-path="url(#clip-path)">
          <g id="g25" transform="translate(41.153 38.584)">
            <path id="path27" d="M-155.37-1.568a5.249,5.249,0,0,0-6.2,3.142l-1.074,2.7-9.474,4.4v8.792l.889.073a5.089,5.089,0,0,0,2.975-.673l10.866-6.32a5.089,5.089,0,0,0,2.3-2.874l1.751-5.577a2.891,2.891,0,0,0-2.032-3.664" transform="translate(172.114 1.737)" fill="#f89f8e"/>
          </g>
          <g id="g29" transform="translate(41.153 38.584)">
            <path id="path31" d="M-155.37-1.568a5.249,5.249,0,0,0-6.2,3.142l-1.074,2.7-9.474,4.4v8.792l.889.073a5.089,5.089,0,0,0,2.975-.673l10.866-6.32a5.089,5.089,0,0,0,2.3-2.874l1.751-5.577A2.891,2.891,0,0,0-155.37-1.568Z" transform="translate(172.114 1.737)" fill="none" stroke="#000" stroke-linecap="round" stroke-linejoin="round" stroke-miterlimit="10" stroke-width="2"/>
          </g>
          <g id="g33" transform="translate(18.079 25.41)">
            <path id="path35" d="M-174.642-32.517l-.288-3.5h-4.482l-.288,3.5a2.854,2.854,0,0,1-2.331,2.582A13.9,13.9,0,0,0-193.464-16.26v8.234h32.586V-16.26a13.9,13.9,0,0,0-11.434-13.675,2.854,2.854,0,0,1-2.331-2.582" transform="translate(193.464 36.021)" fill="#fcc16d"/>
          </g>
          <g id="g37" transform="translate(33.215 25.41)">
            <path id="path39" d="M-161.91-183.358v8.234h-3.4v-8.234a13.9,13.9,0,0,0-11.435-13.675,2.856,2.856,0,0,1-2.331-2.583l-.287-3.5h3.4l.288,3.5a2.853,2.853,0,0,0,2.331,2.583,13.9,13.9,0,0,1,11.433,13.675" transform="translate(179.36 203.119)" fill="#fcb44d"/>
          </g>
          <g id="g41" transform="translate(24.777 25.41)">
            <path id="path43" d="M-178.063-73.071l-.145.254a10.9,10.9,0,0,1-9.45,5.5,10.9,10.9,0,0,1-9.45-5.5l-.145-.254a13.791,13.791,0,0,1,4.736-1.789,2.855,2.855,0,0,0,2.331-2.583l.288-3.5h4.48l.288,3.5A2.855,2.855,0,0,0-182.8-74.86a13.791,13.791,0,0,1,4.736,1.789" transform="translate(197.253 80.946)" fill="#f2eff2"/>
          </g>
          <g id="g45" transform="translate(33.215 25.41)">
            <path id="path47" d="M-99.768-73.071l-.145.254a10.769,10.769,0,0,1-.994,1.454,13.841,13.841,0,0,0-7-3.5,2.856,2.856,0,0,1-2.331-2.583l-.287-3.5h3.4l.288,3.5A2.855,2.855,0,0,0-104.5-74.86a13.79,13.79,0,0,1,4.736,1.789" transform="translate(110.52 80.946)" fill="#e1dde1"/>
          </g>
          <g id="g49" transform="translate(24.922 33.54)">
            <path id="path51" d="M-175.366,0a10.9,10.9,0,0,1-9.45,5.5,10.9,10.9,0,0,1-9.45-5.5" transform="translate(194.266)" fill="none" stroke="#000" stroke-linecap="round" stroke-linejoin="round" stroke-miterlimit="10" stroke-width="2"/>
          </g>
          <g id="g53" transform="translate(27.741 25.41)">
            <path id="path55" d="M-123.057-60.542a7.623,7.623,0,0,1-6.631,3.858,7.623,7.623,0,0,1-6.631-3.858,13.917,13.917,0,0,1,1.772-.438,2.855,2.855,0,0,0,2.331-2.583l.288-3.5h4.48l.288,3.5a2.855,2.855,0,0,0,2.331,2.583,13.917,13.917,0,0,1,1.772.438" transform="translate(136.32 67.067)" fill="#fdb0a0"/>
          </g>
          <g id="g57" transform="translate(31.425 25.41)">
            <path id="path59" d="M-55.1-44.979a11.8,11.8,0,0,1-2.834.344,11.838,11.838,0,0,1-3.1-.413,2.877,2.877,0,0,0,.419-1.275l.288-3.5h4.48l.288,3.5a2.872,2.872,0,0,0,.463,1.344" transform="translate(61.04 49.827)" fill="#f89f8e"/>
          </g>
          <g id="g61" transform="translate(34.239 25.41)">
            <path id="path63" d="M-62.768-60.542a7.616,7.616,0,0,1-1.61,1.969q-.78-.21-1.586-.355a3.906,3.906,0,0,1-3.19-3.535l-.379-4.6h2.374l.288,3.5A2.855,2.855,0,0,0-64.54-60.98a13.917,13.917,0,0,1,1.772.438" transform="translate(69.533 67.067)" fill="#f89f8e"/>
          </g>
          <g id="g65" transform="translate(27.741 31.935)">
            <path id="path67" d="M-123.057,0a7.623,7.623,0,0,1-6.631,3.858A7.623,7.623,0,0,1-136.32,0" transform="translate(136.32)" fill="none" stroke="#000" stroke-linecap="round" stroke-linejoin="round" stroke-miterlimit="10" stroke-width="2"/>
          </g>
          <g id="g69" transform="translate(18.079 25.41)">
            <path id="path71" d="M-174.642-32.517l-.288-3.5h-4.482l-.288,3.5a2.854,2.854,0,0,1-2.331,2.582A13.9,13.9,0,0,0-193.464-16.26v8.234h32.586V-16.26a13.9,13.9,0,0,0-11.434-13.675A2.854,2.854,0,0,1-174.642-32.517Z" transform="translate(193.464 36.021)" fill="none" stroke="#000" stroke-linecap="round" stroke-linejoin="round" stroke-miterlimit="10" stroke-width="2"/>
          </g>
          <g id="g73" transform="translate(15.48 12.756)">
            <path id="path75" d="M0-51.71a5.556,5.556,0,0,0,.37,2,5.558,5.558,0,0,0,2,.37A5.571,5.571,0,0,0,7.94-54.914a5.558,5.558,0,0,0-.37-2,5.539,5.539,0,0,0-2-.37A5.571,5.571,0,0,0,0-51.71" transform="translate(0 57.283)" fill="#554e55"/>
          </g>
          <g id="g77" transform="translate(15.513 12.778)">
            <path id="path79" d="M-73.367-21.773A5.571,5.571,0,0,1-78.938-16.2a5.553,5.553,0,0,1-2-.369,5.63,5.63,0,0,1-.336-1.386c.167.015.335.022.506.022A5.572,5.572,0,0,0-75.2-23.508a5.934,5.934,0,0,0-.033-.612,5.56,5.56,0,0,1,1.493.349,5.541,5.541,0,0,1,.371,2" transform="translate(81.274 24.12)" fill="#433f43"/>
          </g>
          <g id="g81" transform="translate(15.48 12.756)">
            <path id="path83" d="M0-51.71a5.556,5.556,0,0,0,.37,2,5.558,5.558,0,0,0,2,.37A5.571,5.571,0,0,0,7.94-54.914a5.558,5.558,0,0,0-.37-2,5.539,5.539,0,0,0-2-.37A5.571,5.571,0,0,0,0-51.71Z" transform="translate(0 57.283)" fill="none" stroke="#000" stroke-linecap="round" stroke-linejoin="round" stroke-miterlimit="10" stroke-width="2"/>
          </g>
          <g id="g85" transform="translate(45.324 12.756)">
            <path id="path87" d="M-73.67-51.71a5.559,5.559,0,0,1-.37,2,5.558,5.558,0,0,1-2,.37,5.571,5.571,0,0,1-5.571-5.573,5.558,5.558,0,0,1,.37-2,5.54,5.54,0,0,1,2-.37A5.571,5.571,0,0,1-73.67-51.71" transform="translate(81.609 57.283)" fill="#554e55"/>
          </g>
          <g id="g89" transform="translate(45.43 12.755)">
            <path id="path91" d="M-72.687-51.719a5.579,5.579,0,0,1-.369,2,5.552,5.552,0,0,1-2,.369c-.114,0-.226,0-.338-.01a5.552,5.552,0,0,0,.1-1.077A5.569,5.569,0,0,0-80.521-56a5.44,5.44,0,0,1,.265-.921,5.527,5.527,0,0,1,2-.371,5.572,5.572,0,0,1,5.571,5.574" transform="translate(80.521 57.293)" fill="#433f43"/>
          </g>
          <g id="g93" transform="translate(45.324 12.756)">
            <path id="path95" d="M-73.67-51.71a5.559,5.559,0,0,1-.37,2,5.558,5.558,0,0,1-2,.37,5.571,5.571,0,0,1-5.571-5.573,5.558,5.558,0,0,1,.37-2,5.54,5.54,0,0,1,2-.37A5.571,5.571,0,0,1-73.67-51.71Z" transform="translate(81.609 57.283)" fill="none" stroke="#000" stroke-linecap="round" stroke-linejoin="round" stroke-miterlimit="10" stroke-width="2"/>
          </g>
          <g id="g97" transform="translate(22.593 4.628)">
            <path id="path99" d="M-218.592-109.3a11.779,11.779,0,0,1-11.779,11.779A11.779,11.779,0,0,1-242.15-109.3a11.779,11.779,0,0,1,11.779-11.779A11.779,11.779,0,0,1-218.592-109.3" transform="translate(242.15 121.074)" fill="#ffcec0"/>
          </g>
          <g id="g101" transform="translate(26.39 18.007)">
            <path id="path103" d="M-24.963-12.481a1.345,1.345,0,0,1-1.345,1.345,1.345,1.345,0,0,1-1.345-1.345,1.345,1.345,0,0,1,1.345-1.345,1.345,1.345,0,0,1,1.345,1.345" transform="translate(27.653 13.827)" fill="#fc9aa1"/>
          </g>
          <g id="g105" transform="translate(39.663 18.007)">
            <path id="path107" d="M-24.963-12.481a1.345,1.345,0,0,1-1.345,1.345,1.345,1.345,0,0,1-1.345-1.345,1.345,1.345,0,0,1,1.345-1.345,1.345,1.345,0,0,1,1.345,1.345" transform="translate(27.653 13.827)" fill="#fc9aa1"/>
          </g>
          <g id="g109" transform="translate(22.593 4.628)">
            <path id="path111" d="M-47.925-199.743a11.724,11.724,0,0,0,6.614,2.031,11.779,11.779,0,0,0,11.779-11.779A11.779,11.779,0,0,0-41.311-221.27a11.779,11.779,0,0,0-11.779,11.779,11.723,11.723,0,0,0,1.876,6.38" transform="translate(53.091 221.27)" fill="none" stroke="#000" stroke-linecap="round" stroke-linejoin="round" stroke-miterlimit="10" stroke-width="2"/>
          </g>
          <g id="g113" transform="translate(22.405 0.973)">
            <path id="path115" d="M0-85.523a9.191,9.191,0,0,0,.612,3.305,9.193,9.193,0,0,0,3.305.612,9.214,9.214,0,0,0,9.214-9.217,9.191,9.191,0,0,0-.612-3.305,9.164,9.164,0,0,0-3.305-.612A9.214,9.214,0,0,0,0-85.523" transform="translate(0 94.74)" fill="#554e55"/>
          </g>
          <g id="g117" transform="translate(22.472 1.039)">
            <path id="path119" d="M-121.229-35.733a9.215,9.215,0,0,1-9.214,9.217,9.182,9.182,0,0,1-3.305-.612,9.231,9.231,0,0,1-.546-2.189,8,8,0,0,0,2.713.473,8.023,8.023,0,0,0,8.022-8.025,8,8,0,0,0-.471-2.714,9.16,9.16,0,0,1,2.188.546,9.2,9.2,0,0,1,.613,3.305" transform="translate(134.294 39.584)" fill="#433f43"/>
          </g>
          <g id="g121" transform="translate(22.405 0.973)">
            <path id="path123" d="M0-85.523a9.191,9.191,0,0,0,.612,3.305,9.193,9.193,0,0,0,3.305.612,9.214,9.214,0,0,0,9.214-9.217,9.191,9.191,0,0,0-.612-3.305,9.164,9.164,0,0,0-3.305-.612A9.214,9.214,0,0,0,0-85.523Z" transform="translate(0 94.74)" fill="none" stroke="#000" stroke-linecap="round" stroke-linejoin="round" stroke-miterlimit="10" stroke-width="2"/>
          </g>
          <g id="g125" transform="translate(33.207 0.973)">
            <path id="path127" d="M-121.843-85.523a9.191,9.191,0,0,1-.612,3.305,9.194,9.194,0,0,1-3.305.612,9.214,9.214,0,0,1-9.214-9.217,9.19,9.19,0,0,1,.612-3.305,9.164,9.164,0,0,1,3.305-.612,9.214,9.214,0,0,1,9.214,9.217" transform="translate(134.974 94.74)" fill="#685e67"/>
          </g>
          <g id="g129" transform="translate(33.928 0.973)">
            <path id="path131" d="M-115.164-85.524a9.194,9.194,0,0,1-.613,3.305,9.16,9.16,0,0,1-2.783.6,9.233,9.233,0,0,0,.616-2.91,9.215,9.215,0,0,0-8.776-9.636q-.431-.02-.855,0a9.15,9.15,0,0,1,3.2-.571,9.215,9.215,0,0,1,9.214,9.217" transform="translate(127.576 94.741)" fill="#554e55"/>
          </g>
          <g id="g133" transform="translate(33.207 0.973)">
            <path id="path135" d="M-97.461-25.733a9.182,9.182,0,0,0-6.586-2.773,9.167,9.167,0,0,0-3.305.612,9.192,9.192,0,0,0-.612,3.305,9.214,9.214,0,0,0,9.214,9.217,9.192,9.192,0,0,0,3.305-.612,9.19,9.19,0,0,0,.612-3.305,9.231,9.231,0,0,0-.3-2.35" transform="translate(107.965 28.507)" fill="none" stroke="#000" stroke-linecap="round" stroke-linejoin="round" stroke-miterlimit="10" stroke-width="2"/>
          </g>
          <g id="g137" transform="translate(32.297 21.924)">
            <path id="path139" d="M0,0A2.939,2.939,0,0,0,2.075.854,2.939,2.939,0,0,0,4.149,0" fill="none" stroke="#000" stroke-linecap="round" stroke-linejoin="round" stroke-miterlimit="10" stroke-width="2"/>
          </g>
          <g id="g141" transform="translate(29.08 17.598)">
            <path id="path143" d="M0-.143V-.159" transform="translate(0 0.159)" fill="none" stroke="#000" stroke-linecap="round" stroke-linejoin="round" stroke-miterlimit="10" stroke-width="2"/>
          </g>
          <g id="g145" transform="translate(39.663 17.598)">
            <path id="path147" d="M0-.143V-.159" transform="translate(0 0.159)" fill="none" stroke="#000" stroke-linecap="round" stroke-linejoin="round" stroke-miterlimit="10" stroke-width="2"/>
          </g>
          <g id="g149" transform="translate(2.165 41.325)">
            <path id="path151" d="M0-223.779l10.612-7.588,33.451,2.748a5.089,5.089,0,0,0,2.975-.673l10.866-6.32a5.089,5.089,0,0,0,2.3-2.874l1.751-5.577a2.891,2.891,0,0,0-2.032-3.664,5.25,5.25,0,0,0-6.2,3.142l-1.074,2.7-9.574,4.445-4.929-1.518-10.732-6.962L0-239.08Z" transform="translate(0 247.896)" fill="#ffcec0"/>
          </g>
          <g id="g153" transform="translate(2.165 41.361)">
            <path id="path155" d="M-574.835-35.233l-1.751,5.575a5.085,5.085,0,0,1-2.3,2.875l-10.867,6.32a5.086,5.086,0,0,1-2.975.673l-33.451-2.747-10.612,7.588v-4.279l8.671-6.2a2.943,2.943,0,0,1,2-.535l31.787,3.115a4.782,4.782,0,0,0,2.791-.631l10.192-5.928a4.774,4.774,0,0,0,2.154-2.7l1.642-5.23a2.713,2.713,0,0,0-.022-1.7,5.12,5.12,0,0,1,.706.133,2.891,2.891,0,0,1,2.032,3.664" transform="translate(636.786 39.031)" fill="#fdb0a0"/>
          </g>
          <g id="g157" transform="translate(29.579 41.325)">
            <path id="path159" d="M-11.5-167.122l15.409,1.266a5.088,5.088,0,0,0,2.975-.673l10.866-6.32a5.089,5.089,0,0,0,2.3-2.874l1.751-5.577a2.891,2.891,0,0,0-2.032-3.664h0a5.25,5.25,0,0,0-6.2,3.143l-1.074,2.7-9.574,4.444-4.929-1.518-10.732-6.962" transform="translate(12.743 185.133)" fill="none" stroke="#000" stroke-linecap="round" stroke-linejoin="round" stroke-miterlimit="10" stroke-width="2"/>
          </g>
          <g id="g161" transform="translate(2.165 57.854)">
            <path id="path163" d="M0-70.409,10.612-78l13.374,1.1" transform="translate(0 77.997)" fill="none" stroke="#000" stroke-linecap="round" stroke-linejoin="round" stroke-miterlimit="10" stroke-width="2"/>
          </g>
          <g id="g165" transform="translate(2.165 39.762)">
            <path id="path167" d="M0-78.811l8.188-5.05a13.6,13.6,0,0,1,4.519-1.77l7.581-1.488a9.9,9.9,0,0,1,5.988.694l7.074,3.2a5.371,5.371,0,0,1,2.573,7.331,2.237,2.237,0,0,1-2.74,1.094l-9.361-3.312a5.636,5.636,0,0,0-3.926.062L0-70.3Z" transform="translate(0 87.305)" fill="#ffcec0"/>
          </g>
          <g id="g169" transform="translate(2.165 39.762)">
            <path id="path171" d="M0-78.811l8.188-5.05a13.6,13.6,0,0,1,4.519-1.77l7.581-1.488a9.9,9.9,0,0,1,5.988.694l7.074,3.2a5.371,5.371,0,0,1,2.573,7.331,2.237,2.237,0,0,1-2.74,1.094l-9.361-3.312a5.636,5.636,0,0,0-3.926.062l-2.5.975" transform="translate(0 87.305)" fill="none" stroke="#000" stroke-linecap="round" stroke-linejoin="round" stroke-miterlimit="10" stroke-width="2"/>
          </g>
        </g>
      </g>
    </g>
  </g>
</svg>
