<svg xmlns="http://www.w3.org/2000/svg" xmlns:xlink="http://www.w3.org/1999/xlink" width="97.533" height="97.533" viewBox="0 0 97.533 97.533">
  <defs>
    <filter id="Trazado_982547" x="0" y="0" width="97.533" height="97.533" filterUnits="userSpaceOnUse">
      <feOffset dy="3" input="SourceAlpha"/>
      <feGaussianBlur stdDeviation="3" result="blur"/>
      <feFlood flood-opacity="0.161"/>
      <feComposite operator="in" in2="blur"/>
      <feComposite in="SourceGraphic"/>
    </filter>
  </defs>
  <g id="Grupo_1224768" data-name="Grupo 1224768" transform="translate(-190.967 -1036)">
    <g id="Grupo_1203722" data-name="Grupo 1203722" transform="translate(199.967 1042)">
      <g id="Grupo_1203356" data-name="Grupo 1203356" transform="translate(0)">
        <g id="Grupo_1202156" data-name="Grupo 1202156">
          <g id="Grupo_1177900" data-name="Grupo 1177900">
            <g id="Grupo_1172010" data-name="Grupo 1172010">
              <g id="Grupo_1171046" data-name="Grupo 1171046">
                <g id="Grupo_1148525" data-name="Grupo 1148525">
                  <g transform="matrix(1, 0, 0, 1, -9, -6)" filter="url(#Trazado_982547)">
                    <g id="Trazado_982547-2" data-name="Trazado 982547" transform="translate(9 6)" fill="#fdfbec">
                      <path d="M 39.7666015625 78.033203125 C 34.59997940063477 78.033203125 29.58870124816895 77.02164459228516 24.87196731567383 75.02663421630859 C 20.31538963317871 73.099365234375 16.22284507751465 70.34000396728516 12.70802402496338 66.82518005371094 C 9.193202018737793 63.31035614013672 6.433835029602051 59.21781158447266 4.506568431854248 54.66123580932617 C 2.511557102203369 49.94449996948242 1.500001549720764 44.93322372436523 1.500001549720764 39.7666015625 C 1.500001549720764 34.59997940063477 2.511557102203369 29.58870124816895 4.506568431854248 24.87196731567383 C 6.433835029602051 20.31538963317871 9.193202018737793 16.22284507751465 12.70802402496338 12.70802402496338 C 16.22284507751465 9.193202018737793 20.31538963317871 6.433835029602051 24.87196731567383 4.506568431854248 C 29.58870124816895 2.511557102203369 34.59997940063477 1.500001549720764 39.7666015625 1.500001549720764 C 44.93322372436523 1.500001549720764 49.94449996948242 2.511557102203369 54.66123580932617 4.506568431854248 C 59.21781158447266 6.433835029602051 63.31035614013672 9.193202018737793 66.82518005371094 12.70802402496338 C 70.34000396728516 16.22284507751465 73.099365234375 20.31538963317871 75.02663421630859 24.87196731567383 C 77.02164459228516 29.58870124816895 78.033203125 34.59997940063477 78.033203125 39.7666015625 C 78.033203125 44.93322372436523 77.02164459228516 49.94449996948242 75.02663421630859 54.66123580932617 C 73.099365234375 59.21781158447266 70.34000396728516 63.31035614013672 66.82518005371094 66.82518005371094 C 63.31035614013672 70.34000396728516 59.21781158447266 73.099365234375 54.66123580932617 75.02663421630859 C 49.94449996948242 77.02164459228516 44.93322372436523 78.033203125 39.7666015625 78.033203125 Z" stroke="none"/>
                      <path d="M 39.7666015625 3 C 34.80181503295898 3 29.98714065551758 3.971687316894531 25.45630264282227 5.888076782226562 C 21.07851409912109 7.739715576171875 17.146240234375 10.39113616943359 13.76869201660156 13.76869201660156 C 10.39113616943359 17.146240234375 7.739715576171875 21.07851409912109 5.888076782226562 25.45630264282227 C 3.971687316894531 29.98714065551758 3 34.80181503295898 3 39.7666015625 C 3 44.73138809204102 3.971687316894531 49.54606628417969 5.888076782226562 54.076904296875 C 7.739715576171875 58.45468902587891 10.39113616943359 62.386962890625 13.76869201660156 65.76451110839844 C 17.146240234375 69.14206695556641 21.07851409912109 71.79348754882812 25.45630264282227 73.64512634277344 C 29.98714065551758 75.56151580810547 34.80181503295898 76.533203125 39.7666015625 76.533203125 C 44.73138809204102 76.533203125 49.54606628417969 75.56151580810547 54.076904296875 73.64512634277344 C 58.45468902587891 71.79348754882812 62.386962890625 69.14206695556641 65.76451110839844 65.76451110839844 C 69.14206695556641 62.386962890625 71.79348754882812 58.45468902587891 73.64512634277344 54.076904296875 C 75.56151580810547 49.54606628417969 76.533203125 44.73138809204102 76.533203125 39.7666015625 C 76.533203125 34.80181503295898 75.56151580810547 29.98714065551758 73.64512634277344 25.45630264282227 C 71.79348754882812 21.07851409912109 69.14206695556641 17.146240234375 65.76451110839844 13.76869201660156 C 62.386962890625 10.39113616943359 58.45468902587891 7.739715576171875 54.076904296875 5.888076782226562 C 49.54606628417969 3.971687316894531 44.73138809204102 3 39.7666015625 3 M 39.7666015625 0 C 61.72908782958984 0 79.533203125 17.80411529541016 79.533203125 39.7666015625 C 79.533203125 61.72908782958984 61.72908782958984 79.533203125 39.7666015625 79.533203125 C 17.80411529541016 79.533203125 0 61.72908782958984 0 39.7666015625 C 0 17.80411529541016 17.80411529541016 0 39.7666015625 0 Z" stroke="none" fill="#83793c"/>
                    </g>
                  </g>
                </g>
              </g>
            </g>
          </g>
        </g>
      </g>
    </g>
    <g id="objetivo_1_" data-name="objetivo (1)" transform="translate(212.176 1049.419)">
      <path id="Trazado_1212862" data-name="Trazado 1212862" d="M43.985,457.9H33.023v-3.867A2.037,2.037,0,0,1,35.06,452h6.888a2.037,2.037,0,0,1,2.037,2.037Zm0,0" transform="translate(-29.309 -401.167)" fill="#a7c7d3"/>
      <path id="Trazado_1212863" data-name="Trazado 1212863" d="M141.459,418H130.5v-8.924a2.037,2.037,0,0,1,2.037-2.037h6.888a2.037,2.037,0,0,1,2.037,2.037Zm0,0" transform="translate(-115.82 -361.259)" fill="#89b4c9"/>
      <path id="Trazado_1212864" data-name="Trazado 1212864" d="M238.935,375.124H227.972V360.768a2.037,2.037,0,0,1,2.037-2.037H236.9a2.037,2.037,0,0,1,2.037,2.037Zm0,0" transform="translate(-202.334 -318.387)" fill="#6c96b3"/>
      <path id="Trazado_1212865" data-name="Trazado 1212865" d="M336.411,310.094H325.449V287.5a2.037,2.037,0,0,1,2.037-2.037h6.888a2.037,2.037,0,0,1,2.037,2.037Zm0,0" transform="translate(-288.848 -253.357)" fill="#618aaa"/>
      <path id="Trazado_1212866" data-name="Trazado 1212866" d="M351.906,25.8h11.026a.371.371,0,0,0,.245-.649l-2.864-2.522a.371.371,0,0,1,0-.556l2.864-2.522a.37.37,0,0,0-.245-.648H351.906Zm0,0" transform="translate(-312.33 -16.777)" fill="#fdb659"/>
      <path id="Trazado_1212867" data-name="Trazado 1212867" d="M233.061,108.93l-11.944,6.486c-1.066.579-1.357,1.6-1.729,2.906l-2.375,8.4,5.821-2.385,2.259-6.829,6.011-3.652A4.4,4.4,0,0,0,233.061,108.93Zm0,0" transform="translate(-192.606 -96.679)" fill="#83d9ff"/>
      <path id="Trazado_1212868" data-name="Trazado 1212868" d="M233.061,108.93l-1.378.748a4.4,4.4,0,0,1-2.033,2.916l-5.477,3.327a1.7,1.7,0,0,0-.731.918l-.782,2.364a8.864,8.864,0,0,1-5.055,5.418l-.594,2.1,5.821-2.385,2.259-6.829,6.011-3.652a4.4,4.4,0,0,0,1.958-4.926Zm0,0" transform="translate(-192.606 -96.679)" fill="#5fc9ed"/>
      <path id="Trazado_1212869" data-name="Trazado 1212869" d="M222.833,245.926l3.44,4.065c.57.755,1.066,1.285.963,2.116l-.8,6.5h-2.1l-.549-5.59a.934.934,0,0,0-.56-.766l-6.212-3.941Zm0,0" transform="translate(-192.606 -218.268)" fill="#38627c"/>
      <path id="Trazado_1212870" data-name="Trazado 1212870" d="M181.92,248.312l-.336,6.163a2.708,2.708,0,0,1-.15,1.237l-3.961,8.334H179.7l5.956-7.911a3.22,3.22,0,0,0,.506-1.462l1.579-8.746Zm0,0" transform="translate(-157.514 -218.269)" fill="#4f7693"/>
      <path id="Trazado_1212871" data-name="Trazado 1212871" d="M231.818,112.925l.977,1.907a1.823,1.823,0,0,1-.792,2.454l-.755.387a1.823,1.823,0,0,1-2.454-.792l-.977-1.907a1.823,1.823,0,0,1,.792-2.454l.755-.387A1.823,1.823,0,0,1,231.818,112.925Zm0,0" transform="translate(-202.018 -99.345)" fill="#fecbaa"/>
      <path id="Trazado_1212872" data-name="Trazado 1212872" d="M51.405,7.741,48.945,5.574l2.461-2.166a1.215,1.215,0,0,0-.8-2.126H40.42V.844a.844.844,0,1,0-1.688,0V12.225L31.8,15.989a2.67,2.67,0,0,0-.274-.887L30.551,13.2a2.67,2.67,0,0,0-3.589-1.158l-.755.387a2.666,2.666,0,0,0-1.158,3.59l.977,1.907a2.65,2.65,0,0,0,.961,1.044,7.393,7.393,0,0,0-1.017,2.448l-.182.644a.844.844,0,0,0,.583,1.042.831.831,0,0,0,.23.032.844.844,0,0,0,.812-.615l.182-.643c.37-1.3.6-2,1.32-2.4l1.3-.7.16-.082c.053-.027.1-.058.153-.088l9.24-5.017a3.572,3.572,0,0,1-1.7,2.868L32.05,20.105l-.021.012-1.87,1.136a.844.844,0,0,0,.807,1.48l-1.419,4.289-1.037.425L25.689,28.6l.813-2.873a.844.844,0,0,0-1.625-.46l-1.284,4.541a.81.81,0,0,0-.03.184l-.336,6.173a2.824,2.824,0,0,1-.069.91l-3.732,7.852H16.713a2.884,2.884,0,0,0-2.881,2.881v2.436a2.859,2.859,0,0,0-1.193-.26H5.751A2.884,2.884,0,0,0,2.87,52.871v3.022H.844a.844.844,0,1,0,0,1.688H50.6a.844.844,0,0,0,0-1.688H48.407V34.141a2.884,2.884,0,0,0-2.881-2.881H40.42V16.537a5.263,5.263,0,0,0,.848-4.51.844.844,0,0,0-.848-.619V9.867H50.6a1.215,1.215,0,0,0,.8-2.126ZM26.49,14.5a.972.972,0,0,1,.485-.571l.755-.387a.979.979,0,0,1,1.317.425l.977,1.907A.98.98,0,0,1,29.7,17.13l-.275.149-.58.3a.98.98,0,0,1-1.317-.425l-.977-1.907a.973.973,0,0,1-.06-.747Zm-1.7,30.694a2.864,2.864,0,0,0-.927-.247l.927-1.231Zm4.007-6.8a3.18,3.18,0,0,0,.608-1.512c.023-.109.439-2.384.439-2.384s.394.246.435.263a.09.09,0,0,1,.052.074L30.8,39.5H27.967Zm4.991-4.658L33.08,39.5h-.588l-.475-4.828a1.778,1.778,0,0,0-.994-1.427l-.849-.538.565-3.134s2.382,2.83,2.437,2.9c.493.641.662.9.616,1.263Zm-9.116,4.084a4.575,4.575,0,0,0,.236-1.567l.307-5.63,3.9-1.6-.709,3.93c0,.011,0,.022-.006.032l-.587,3.25a3.215,3.215,0,0,1-.353,1.124l-5.7,7.575h-.47ZM4.558,52.87a1.194,1.194,0,0,1,1.193-1.193h6.888a1.2,1.2,0,0,1,1.194,1.193v3.023H4.558Zm10.962,0V47.814a1.2,1.2,0,0,1,1.194-1.193H23.6a1.194,1.194,0,0,1,1.193,1.193v8.08H15.52V52.87Zm31.2-18.729V55.893H37.445v-5.06a.844.844,0,0,0-1.688,0v5.06H26.482V42.381a1.194,1.194,0,0,1,1.193-1.193h6.888a1.194,1.194,0,0,1,1.193,1.193v4.231a.844.844,0,0,0,1.688,0V34.141a1.2,1.2,0,0,1,1.194-1.193h6.887a1.2,1.2,0,0,1,1.194,1.193ZM38.638,31.26a2.884,2.884,0,0,0-2.881,2.881V39.76a2.857,2.857,0,0,0-.978-.251l.688-5.567a3.259,3.259,0,0,0-.953-2.5c-.057-.074-3.337-3.969-3.337-3.969l2.012-6.084,5.543-3.368V31.26ZM40.42,8.179V2.97h8.928L47.426,4.663a1.214,1.214,0,0,0,0,1.823l1.923,1.693H40.42Zm0,0"/>
    </g>
  </g>
</svg>
