<svg xmlns="http://www.w3.org/2000/svg" xmlns:xlink="http://www.w3.org/1999/xlink" width="97.533" height="97.533" viewBox="0 0 97.533 97.533">
  <defs>
    <filter id="Trazado_982547" x="0" y="0" width="97.533" height="97.533" filterUnits="userSpaceOnUse">
      <feOffset dy="3" input="SourceAlpha"/>
      <feGaussianBlur stdDeviation="3" result="blur"/>
      <feFlood flood-opacity="0.161"/>
      <feComposite operator="in" in2="blur"/>
      <feComposite in="SourceGraphic"/>
    </filter>
  </defs>
  <g id="Grupo_1224770" data-name="Grupo 1224770" transform="translate(-191 -1195)">
    <g id="Grupo_1203723" data-name="Grupo 1203723" transform="translate(200 1201)">
      <g id="Grupo_1203357" data-name="Grupo 1203357" transform="translate(0)">
        <g id="Grupo_1202156" data-name="Grupo 1202156">
          <g id="Grupo_1177900" data-name="Grupo 1177900">
            <g id="Grupo_1172010" data-name="Grupo 1172010">
              <g id="Grupo_1171046" data-name="Grupo 1171046">
                <g id="Grupo_1148525" data-name="Grupo 1148525">
                  <g transform="matrix(1, 0, 0, 1, -9, -6)" filter="url(#Trazado_982547)">
                    <g id="Trazado_982547-2" data-name="Trazado 982547" transform="translate(9 6)" fill="#fdfbec">
                      <path d="M 39.7666015625 78.033203125 C 34.59997940063477 78.033203125 29.58870124816895 77.02164459228516 24.87196731567383 75.02663421630859 C 20.31538963317871 73.099365234375 16.22284507751465 70.34000396728516 12.70802402496338 66.82518005371094 C 9.193202018737793 63.31035614013672 6.433835029602051 59.21781158447266 4.506568431854248 54.66123580932617 C 2.511557102203369 49.94449996948242 1.500001549720764 44.93322372436523 1.500001549720764 39.7666015625 C 1.500001549720764 34.59997940063477 2.511557102203369 29.58870124816895 4.506568431854248 24.87196731567383 C 6.433835029602051 20.31538963317871 9.193202018737793 16.22284507751465 12.70802402496338 12.70802402496338 C 16.22284507751465 9.193202018737793 20.31538963317871 6.433835029602051 24.87196731567383 4.506568431854248 C 29.58870124816895 2.511557102203369 34.59997940063477 1.500001549720764 39.7666015625 1.500001549720764 C 44.93322372436523 1.500001549720764 49.94449996948242 2.511557102203369 54.66123580932617 4.506568431854248 C 59.21781158447266 6.433835029602051 63.31035614013672 9.193202018737793 66.82518005371094 12.70802402496338 C 70.34000396728516 16.22284507751465 73.099365234375 20.31538963317871 75.02663421630859 24.87196731567383 C 77.02164459228516 29.58870124816895 78.033203125 34.59997940063477 78.033203125 39.7666015625 C 78.033203125 44.93322372436523 77.02164459228516 49.94449996948242 75.02663421630859 54.66123580932617 C 73.099365234375 59.21781158447266 70.34000396728516 63.31035614013672 66.82518005371094 66.82518005371094 C 63.31035614013672 70.34000396728516 59.21781158447266 73.099365234375 54.66123580932617 75.02663421630859 C 49.94449996948242 77.02164459228516 44.93322372436523 78.033203125 39.7666015625 78.033203125 Z" stroke="none"/>
                      <path d="M 39.7666015625 3 C 34.80181503295898 3 29.98714065551758 3.971687316894531 25.45630264282227 5.888076782226562 C 21.07851409912109 7.739715576171875 17.146240234375 10.39113616943359 13.76869201660156 13.76869201660156 C 10.39113616943359 17.146240234375 7.739715576171875 21.07851409912109 5.888076782226562 25.45630264282227 C 3.971687316894531 29.98714065551758 3 34.80181503295898 3 39.7666015625 C 3 44.73138809204102 3.971687316894531 49.54606628417969 5.888076782226562 54.076904296875 C 7.739715576171875 58.45468902587891 10.39113616943359 62.386962890625 13.76869201660156 65.76451110839844 C 17.146240234375 69.14206695556641 21.07851409912109 71.79348754882812 25.45630264282227 73.64512634277344 C 29.98714065551758 75.56151580810547 34.80181503295898 76.533203125 39.7666015625 76.533203125 C 44.73138809204102 76.533203125 49.54606628417969 75.56151580810547 54.076904296875 73.64512634277344 C 58.45468902587891 71.79348754882812 62.386962890625 69.14206695556641 65.76451110839844 65.76451110839844 C 69.14206695556641 62.386962890625 71.79348754882812 58.45468902587891 73.64512634277344 54.076904296875 C 75.56151580810547 49.54606628417969 76.533203125 44.73138809204102 76.533203125 39.7666015625 C 76.533203125 34.80181503295898 75.56151580810547 29.98714065551758 73.64512634277344 25.45630264282227 C 71.79348754882812 21.07851409912109 69.14206695556641 17.146240234375 65.76451110839844 13.76869201660156 C 62.386962890625 10.39113616943359 58.45468902587891 7.739715576171875 54.076904296875 5.888076782226562 C 49.54606628417969 3.971687316894531 44.73138809204102 3 39.7666015625 3 M 39.7666015625 0 C 61.72908782958984 0 79.533203125 17.80411529541016 79.533203125 39.7666015625 C 79.533203125 61.72908782958984 61.72908782958984 79.533203125 39.7666015625 79.533203125 C 17.80411529541016 79.533203125 0 61.72908782958984 0 39.7666015625 C 0 17.80411529541016 17.80411529541016 0 39.7666015625 0 Z" stroke="none" fill="#83793c"/>
                    </g>
                  </g>
                </g>
              </g>
            </g>
          </g>
        </g>
      </g>
    </g>
    <g id="educacion_3_" data-name="educacion (3)" transform="translate(214.349 1210.894)">
      <g id="Grupo_1224769" data-name="Grupo 1224769" transform="translate(0.869 5.606)">
        <path id="Trazado_1212873" data-name="Trazado 1212873" d="M93.314,233.358a9.99,9.99,0,0,0-.06,7.4l.815,1.6H58.895s-6.549-3.68,0-10.228l34.871-.719Z" transform="translate(-51.302 -209.578)" fill="#f1f2f2"/>
        <path id="Trazado_1212874" data-name="Trazado 1212874" d="M94.072,242.352H58.9s-6.549-3.68,0-10.228l34.871-.719-.452,1.952a9.581,9.581,0,0,0-.5,1.587H60.9a2.242,2.242,0,1,0,0,4.483h31.93a8.612,8.612,0,0,0,.425,1.329Z" transform="translate(-51.305 -209.577)" fill="#dee1e1"/>
        <path id="Trazado_1212875" data-name="Trazado 1212875" d="M77.2,233l-32.152-.051c-3.852,0-7.16-2.457-7.16-6.309a8.776,8.776,0,0,1,.131-2.72,6.977,6.977,0,0,1,6.543-4.555H77.544a1.573,1.573,0,1,1,0,3.146H52.58l-2.438.572-2.12-.572H44.559a3.828,3.828,0,1,0,0,7.656H77.544a1.574,1.574,0,0,1,1.562,1.758C79.014,232.7,78,233,77.2,233Z" transform="translate(-34.962 -198.728)" fill="#b7e546"/>
        <path id="Trazado_1212876" data-name="Trazado 1212876" d="M76.729,269.644a1.573,1.573,0,0,1-1.562,1.388l-16.3.977-16.689-.977a6.978,6.978,0,0,1-6.38-9.8v1.434a6.975,6.975,0,0,0,6.975,6.975Z" transform="translate(-32.586 -236.449)" fill="#abd641"/>
        <path id="Trazado_1212877" data-name="Trazado 1212877" d="M146.195,255.678v-4.586h-3.269l-1.161.117.07,4.271a.2.2,0,0,0,.271.185l.82-.2.918-.359a.2.2,0,0,1,.145,0l1.936.758A.2.2,0,0,0,146.195,255.678Z" transform="translate(-128.577 -227.312)" fill="#ef5227"/>
        <path id="Trazado_1212878" data-name="Trazado 1212878" d="M141.759,251.1v4.372l-1.018.4a.2.2,0,0,1-.271-.184V251.1Z" transform="translate(-127.41 -227.314)" fill="#d83724"/>
        <path id="Trazado_1212879" data-name="Trazado 1212879" d="M131.449,173.085v2.236l-.1.992a.694.694,0,0,1-.694.694l-26.427-.1a.694.694,0,0,1-.694-.694l-.2-3.129,13.566-.648Z" transform="translate(-93.959 -156.456)" fill="#fdcd08"/>
        <path id="Trazado_1212880" data-name="Trazado 1212880" d="M437.653,197.8c-.621,1.53-1.245,3.04-1.866,4.57a1.389,1.389,0,0,0,1.275,1.917l1.148.1H441a1.389,1.389,0,0,0,1.275-1.917l-1.295-3.191-.814-1.478h-2.515Z" transform="translate(-393.35 -179.302)" fill="#fdcd08"/>
        <path id="Trazado_1212881" data-name="Trazado 1212881" d="M437.755,197.465a3.769,3.769,0,0,0,2.33-.564l-.7-1.74-1.15.344h0l-1.5-.2c-.189.467-.465,1.13-.654,1.6h0l-1.294,3.19a1.389,1.389,0,0,0,1.274,1.917h1.587a1.389,1.389,0,0,1-1.274-1.917l.967-2.382A.4.4,0,0,1,437.755,197.465Z" transform="translate(-392.453 -176.927)" fill="#faab18"/>
        <path id="Trazado_1212882" data-name="Trazado 1212882" d="M451.888,160.147a2.31,2.31,0,0,0-1.546-2.186c-.233-.081-.572.063-.832.063a1.947,1.947,0,0,0-2.042,2.123,2.017,2.017,0,0,0,2.21,2.042c.26,0,.431.225.664.144A2.31,2.31,0,0,0,451.888,160.147Z" transform="translate(-403.966 -143.394)" fill="#fdcd08"/>
        <path id="Trazado_1212883" data-name="Trazado 1212883" d="M448.908,161.422a2.256,2.256,0,0,1-.744.125,2.311,2.311,0,0,1,0-4.622,2.256,2.256,0,0,1,.744.125,2.319,2.319,0,0,0,0,4.372Z" transform="translate(-402.532 -142.482)" fill="#faab18"/>
        <path id="Trazado_1212884" data-name="Trazado 1212884" d="M59.05,20.4l-6.541,2.264-1.785-.183-12.7,5.2a4.161,4.161,0,0,1-2.723,0l-12.7-4.993-1.785-.019L14.286,20.4a.832.832,0,0,1,0-1.573l21.269-7.363a3.4,3.4,0,0,1,2.226,0L59.05,18.827A.832.832,0,0,1,59.05,20.4Z" transform="translate(-13.234 -11.277)" fill="#868491"/>
        <path id="Trazado_1212885" data-name="Trazado 1212885" d="M117.019,82.384v.671l-14.48,5.013a4.161,4.161,0,0,1-2.723,0L85.336,83.055v-.671a2.917,2.917,0,0,1,2.4-2.874,76.159,76.159,0,0,1,26.875,0,2.92,2.92,0,0,1,2.4,2.874Z" transform="translate(-77.744 -71.667)" fill="#77777f"/>
        <path id="Trazado_1212886" data-name="Trazado 1212886" d="M133.251,98.6v5.913H105.435l-.1-5.715a1.135,1.135,0,0,1,.934-1.117c.283-.051.369-.3.652-.346a74.35,74.35,0,0,1,25.394.147,1.136,1.136,0,0,1,.934,1.117Z" transform="translate(-95.76 -87.883)" fill="#868491"/>
        <path id="Trazado_1212887" data-name="Trazado 1212887" d="M131.449,175.321v1.091a.694.694,0,0,1-.694.694H104.03a.694.694,0,0,1-.694-.694v-3.327l.892-.648.892.648v1.74a.5.5,0,0,0,.5.5Z" transform="translate(-93.959 -156.456)" fill="#faab18"/>
        <path id="Trazado_1212888" data-name="Trazado 1212888" d="M105.121,106.605v7.176h-1.785v-5.913a1.135,1.135,0,0,1,.934-1.117C104.554,106.7,104.837,106.652,105.121,106.605Z" transform="translate(-93.959 -97.152)" fill="#77777f"/>
        <path id="Trazado_1212889" data-name="Trazado 1212889" d="M75.584,389.092a9.33,9.33,0,0,1,0-7.141l.3-1.34H35.338s-4.564,4.962.3,9.823l40.515.3Z" transform="translate(-30.952 -343.988)" fill="#f1f2f2"/>
        <path id="Trazado_1212890" data-name="Trazado 1212890" d="M76.149,390.741l-40.515-.3c-4.862-4.861-.3-9.823-.3-9.823l40.742.075-.5,1.264a9.293,9.293,0,0,0-.443,1.353H37.927a2.242,2.242,0,1,0,0,4.483H75.153a9.407,9.407,0,0,0,.431,1.306Z" transform="translate(-30.952 -343.991)" fill="#dee1e1"/>
        <path id="Trazado_1212891" data-name="Trazado 1212891" d="M58.125,373.635l-36.66-.068c-3.852,0-7.241-2.174-7.241-6.026,0-1.222-.3-2.906.254-3.9a6.973,6.973,0,0,1,6.107-3.6H58.814a1.573,1.573,0,1,1,0,3.146H49.342l-2.475.548-2.083-.548h-24.2a3.828,3.828,0,0,0,0,7.656H58.814a1.575,1.575,0,0,1,1.548,1.857c-.134.733-1.465.942-2.237.942Z" transform="translate(-13.611 -325.45)" fill="#ef5227"/>
        <path id="Trazado_1212892" data-name="Trazado 1212892" d="M55.519,402.017a1.575,1.575,0,0,1-1.548,1.289H15.743a6.976,6.976,0,0,1-5.884-10.721v2.457a6.975,6.975,0,0,0,6.975,6.975Z" transform="translate(-8.768 -354.774)" fill="#d83724"/>
        <path id="Trazado_1212893" data-name="Trazado 1212893" d="M328.837,396.372v-4.623h-3.071l-1.362.083.073,4.342a.2.2,0,0,0,.271.185l1.018-.278.72-.282a.2.2,0,0,1,.145,0l1.936.758A.2.2,0,0,0,328.837,396.372Z" transform="translate(-293.105 -354.021)" fill="#fdcd08"/>
        <path id="Trazado_1212894" data-name="Trazado 1212894" d="M324.627,391.745v4.332l-1.217.476a.2.2,0,0,1-.271-.184v-4.624Z" transform="translate(-291.967 -354.018)" fill="#faab18"/>
      </g>
      <path id="Trazado_1212895" data-name="Trazado 1212895" d="M50.613,28.168,48.963,24.1a3.021,3.021,0,0,0-1.533-4.875c0-.2,0-5.1,0-5.3a1.543,1.543,0,0,0-1.051-1.476L25.47,5.206a4.105,4.105,0,0,0-2.675,0l-5.206,1.8a.744.744,0,1,0,.487,1.406l5.206-1.8a2.611,2.611,0,0,1,1.7,0l20.909,7.238a.075.075,0,0,1,0,.141l-7.2,2.492v-.223a1.857,1.857,0,0,0-1.531-1.83,73.579,73.579,0,0,0-26.063,0,1.857,1.857,0,0,0-1.531,1.83v.223l-7.2-2.492a.075.075,0,0,1,0-.141L14.735,9.57a.744.744,0,1,0-.487-1.406L1.886,12.444a1.562,1.562,0,0,0,0,2.952l7.684,2.66v7.36A7.716,7.716,0,0,0,6.052,39.51,7.718,7.718,0,0,0,7.718,54.763H45.947a2.317,2.317,0,0,0,.047-4.633,8.52,8.52,0,0,1-.018-6.171,2.317,2.317,0,0,0-.029-4.633h-.459a2.316,2.316,0,0,0-2.163-3.146H43.3a8.515,8.515,0,0,1-.14-5.778,2.089,2.089,0,0,0,1.535.674h3.971a2.092,2.092,0,0,0,1.737-.927,2.117,2.117,0,0,0,.206-1.981Zm-2.421-6.023a1.507,1.507,0,1,1-1.507-1.528A1.519,1.519,0,0,1,48.192,22.145Zm-2.25-6.6v3.677A3.021,3.021,0,0,0,44.408,24.1l-.519,1.278h-5.2V18.056Zm-34.579.347a72.11,72.11,0,0,1,25.537,0,.371.371,0,0,1,.306.366v5.069H32.624a.744.744,0,0,0,0,1.487h4.583v2.562H11.057V22.815h18.1a.744.744,0,0,0,0-1.487h-18.1V16.259a.371.371,0,0,1,.306-.366Zm35.413,25.75a.83.83,0,0,1-.829.829H7.718a4.572,4.572,0,1,0,0,9.143H37.086a.744.744,0,1,0,0-1.487H7.718a3.084,3.084,0,1,1,0-6.169H31.173v4.169a.744.744,0,0,0,1.015.692l2.008-.786,2.008.786a.744.744,0,0,0,1.015-.692V43.96H44.4a9.982,9.982,0,0,0,.015,6.169H40.557a.744.744,0,1,0,0,1.487h5.39a.829.829,0,0,1,0,1.659H7.718a6.231,6.231,0,1,1,0-12.461H45.947a.83.83,0,0,1,.83.829ZM32.66,43.96h3.071v3.079l-1.264-.5a.743.743,0,0,0-.542,0l-1.264.5ZM19.931,37.668H43.325a.829.829,0,1,1,0,1.659H10.34a6.231,6.231,0,0,1,0-12.462H43.286c-.184.493-.523,1.192-.638,1.659H10.34a4.572,4.572,0,1,0,0,9.143h6.12a.744.744,0,1,0,0-1.487H10.34a3.084,3.084,0,1,1,0-6.169h2.719v4.133a.744.744,0,0,0,1.015.692l2.008-.786,2.008.786a.744.744,0,0,0,1.015-.692V30.011h22.62a9.982,9.982,0,0,0,0,6.169H19.931a.744.744,0,0,0,0,1.488Zm-5.385-7.656h3.071v3.043l-1.264-.5a.743.743,0,0,0-.542,0l-1.264.5Zm34.627-.693a.6.6,0,0,1-.5.27H44.7a.6.6,0,0,1-.5-.27.624.624,0,0,1-.061-.591l1.522-3.75a2.977,2.977,0,0,0,2.056,0l1.521,3.75A.623.623,0,0,1,49.174,29.319Z" transform="translate(0)"/>
    </g>
  </g>
</svg>
