<svg xmlns="http://www.w3.org/2000/svg" xmlns:xlink="http://www.w3.org/1999/xlink" width="108" height="108" viewBox="0 0 108 108">
  <defs>
    <filter id="Trazado_904820" x="0" y="0" width="108" height="108" filterUnits="userSpaceOnUse">
      <feOffset dy="3" input="SourceAlpha"/>
      <feGaussianBlur stdDeviation="3" result="blur"/>
      <feFlood flood-opacity="0.161"/>
      <feComposite operator="in" in2="blur"/>
      <feComposite in="SourceGraphic"/>
    </filter>
  </defs>
  <g id="Grupo_1224532" data-name="Grupo 1224532" transform="translate(-619.97 -322)">
    <g id="Grupo_1223797" data-name="Grupo 1223797" transform="translate(0 -329)">
      <g id="Grupo_1223164" data-name="Grupo 1223164" transform="translate(-0.03 -230)">
        <g id="Grupo_1203639" data-name="Grupo 1203639" transform="translate(0 81)">
          <g id="Grupo_1202437" data-name="Grupo 1202437" transform="translate(0.523 386.813)">
            <g id="Grupo_1177315" data-name="Grupo 1177315" transform="translate(-0.523 -112.813)">
              <g id="Grupo_1173585" data-name="Grupo 1173585" transform="translate(629 532)">
                <g id="Grupo_1173428" data-name="Grupo 1173428" transform="translate(0 0)">
                  <g id="Grupo_1171958" data-name="Grupo 1171958">
                    <g id="Grupo_1167341" data-name="Grupo 1167341">
                      <g id="Grupo_1166792" data-name="Grupo 1166792">
                        <g transform="matrix(1, 0, 0, 1, -9, -6)" filter="url(#Trazado_904820)">
                          <g id="Trazado_904820-2" data-name="Trazado 904820" transform="translate(9 6)" fill="#fdfbec">
                            <path d="M 44.99999618530273 88.49999237060547 C 39.12687301635742 88.49999237060547 33.43022155761719 87.35006713867188 28.06829643249512 85.08216857910156 C 22.88852119445801 82.89130401611328 18.23629570007324 79.75457763671875 14.24084663391113 75.75914001464844 C 10.24540901184082 71.76369476318359 7.108683586120605 67.11146545410156 4.917821407318115 61.93169403076172 C 2.649921178817749 56.56976699829102 1.499996185302734 50.87311553955078 1.499996185302734 44.99999237060547 C 1.499996185302734 39.12686920166016 2.649921178817749 33.43021774291992 4.917821407318115 28.06829261779785 C 7.108683586120605 22.88851737976074 10.24540901184082 18.23630523681641 14.24084663391113 14.24085521697998 C 18.23629570007324 10.24540519714355 22.88852119445801 7.108692169189453 28.06829643249512 4.917829990386963 C 33.43022155761719 2.649929761886597 39.12687301635742 1.500004887580872 44.99999618530273 1.500004887580872 C 50.87311935424805 1.500004887580872 56.56977081298828 2.649929761886597 61.93169784545898 4.917829990386963 C 67.11147308349609 7.108692169189453 71.76369476318359 10.24540519714355 75.75914764404297 14.24085521697998 C 79.75458526611328 18.23630523681641 82.89131164550781 22.88851737976074 85.08216857910156 28.06829261779785 C 87.35007476806641 33.43021774291992 88.5 39.12686920166016 88.5 44.99999237060547 C 88.5 50.87311553955078 87.35007476806641 56.56976699829102 85.08216857910156 61.93169403076172 C 82.89131164550781 67.11146545410156 79.75458526611328 71.76369476318359 75.75914764404297 75.75914001464844 C 71.76369476318359 79.75457763671875 67.11147308349609 82.89130401611328 61.93169784545898 85.08216857910156 C 56.56977081298828 87.35006713867188 50.87311935424805 88.49999237060547 44.99999618530273 88.49999237060547 Z" stroke="none"/>
                            <path d="M 44.99999618530273 2.999992370605469 C 39.32870864868164 2.999992370605469 33.82865142822266 4.11004638671875 28.65262603759766 6.299331665039062 C 23.65165710449219 8.414566040039062 19.15968322753906 11.44333648681641 15.301513671875 15.30150604248047 C 11.44333648681641 19.15967559814453 8.414566040039062 23.65164947509766 6.299339294433594 28.65262222290039 C 4.110054016113281 33.82864761352539 2.999992370605469 39.32870483398438 2.999992370605469 44.99999237060547 C 2.999992370605469 50.67127990722656 4.110054016113281 56.17132186889648 6.299339294433594 61.34736633300781 C 8.414566040039062 66.34833526611328 11.44333648681641 70.84029388427734 15.301513671875 74.69846343994141 C 19.15968322753906 78.55663299560547 23.65165710449219 81.58540344238281 28.65262603759766 83.70063781738281 C 33.82865142822266 85.88992309570312 39.32870864868164 86.99997711181641 44.99999618530273 86.99997711181641 C 50.67128372192383 86.99997711181641 56.17134094238281 85.88992309570312 61.34736633300781 83.70063781738281 C 66.34834289550781 81.58540344238281 70.84030914306641 78.55663299560547 74.69847869873047 74.69846343994141 C 78.55665588378906 70.84029388427734 81.58542633056641 66.34833526611328 83.70065307617188 61.34736633300781 C 85.88993835449219 56.17132186889648 87 50.67127990722656 87 44.99999237060547 C 87 39.32870483398438 85.88993835449219 33.82864761352539 83.70065307617188 28.65262222290039 C 81.58542633056641 23.65164947509766 78.55665588378906 19.15967559814453 74.69847869873047 15.30150604248047 C 70.84030914306641 11.44333648681641 66.34834289550781 8.414566040039062 61.34736633300781 6.299331665039062 C 56.17134094238281 4.11004638671875 50.67128372192383 2.999992370605469 44.99999618530273 2.999992370605469 M 44.99999618530273 -7.62939453125e-06 C 69.85281372070312 -7.62939453125e-06 90 20.14717864990234 90 44.99999237060547 C 90 69.85279083251953 69.85281372070312 89.99997711181641 44.99999618530273 89.99997711181641 C 20.14717864990234 89.99997711181641 -7.62939453125e-06 69.85279083251953 -7.62939453125e-06 44.99999237060547 C -7.62939453125e-06 20.14717864990234 20.14717864990234 -7.62939453125e-06 44.99999618530273 -7.62939453125e-06 Z" stroke="none" fill="#83793c"/>
                          </g>
                        </g>
                      </g>
                    </g>
                  </g>
                </g>
              </g>
            </g>
          </g>
        </g>
      </g>
    </g>
    <g id="grandmother_865568" transform="translate(614.557 338.475)">
      <path id="Trazado_1211535" data-name="Trazado 1211535" d="M87.744,39.911A8.771,8.771,0,0,1,90.837,32.8a4.894,4.894,0,0,0,1.777-3.653c0-.133,0-5.451,0-5.451,0-8.431,6.479-15.685,14.9-16.081.255-.012.5,0,.757,0V50.675H87.724V39.911Z" transform="translate(-48.86 -6.68)" fill="#aea8af"/>
      <path id="Trazado_1211536" data-name="Trazado 1211536" d="M276.534,39.911a8.771,8.771,0,0,0-3.094-7.111,4.895,4.895,0,0,1-1.777-3.653c0-.133,0-5.451,0-5.451,0-8.431-6.479-15.685-14.9-16.081-.255-.012-.5,0-.757,0V50.675h20.55V39.911Z" transform="translate(-196.59 -6.68)" fill="#c9c6ca"/>
      <path id="Trazado_1211537" data-name="Trazado 1211537" d="M87.723,300.318h41.1v-13.37a5.859,5.859,0,0,0-1.414-.938L115.268,280.3a1.957,1.957,0,0,1-1.124-1.771v-6.587H102.4v6.587a1.957,1.957,0,0,1-1.124,1.771L89.137,286.01a5.864,5.864,0,0,0-1.414.938v13.37Z" transform="translate(-48.859 -238.73)" fill="#b67f5f"/>
      <path id="Trazado_1211538" data-name="Trazado 1211538" d="M87.724,364.54h41.1V351.17a5.858,5.858,0,0,0-1.414-.939L116.494,345.1c-1.8,3.1-5.912,8.7-8.225,8.7s-6.423-5.618-8.224-8.7l-10.907,5.133a5.864,5.864,0,0,0-1.414.939v13.37Z" transform="translate(-48.86 -302.952)" fill="#a5cdff"/>
      <path id="Trazado_1211539" data-name="Trazado 1211539" d="M166.777,346.354l.133.227c1.392,2.382,6.283,10.152,10.758,10.152,4.508,0,9.378-7.779,10.763-10.163l.128-.22-2.666-1.255c-1.8,3.1-5.912,8.7-8.225,8.7s-6.423-5.618-8.224-8.7Z" transform="translate(-118.259 -302.952)" fill="#8cb4eb"/>
      <path id="Trazado_1211540" data-name="Trazado 1211540" d="M207.923,276.491a13.527,13.527,0,0,0,11.743,0v-4.552H207.923v4.552Z" transform="translate(-154.381 -238.73)" fill="#a06e50"/>
      <path id="Trazado_1211541" data-name="Trazado 1211541" d="M171.587,113.077h0a11.743,11.743,0,0,1-11.743-11.743v-13.7H183.33v13.7A11.743,11.743,0,0,1,171.587,113.077Z" transform="translate(-112.173 -76.932)" fill="#cd916e"/>
      <g id="Grupo_1224530" data-name="Grupo 1224530" transform="translate(47.671 10.702)">
        <path id="Trazado_1211542" data-name="Trazado 1211542" d="M229.935,102.714v-8.56h-17A28.97,28.97,0,0,0,229.935,102.714Z" transform="translate(-206.449 -93.358)" fill="#b67f5f"/>
        <path id="Trazado_1211543" data-name="Trazado 1211543" d="M162.78,101.334v-13.7h-2.936v13.7a11.674,11.674,0,0,0,13.211,11.641A11.738,11.738,0,0,1,162.78,101.334Z" transform="translate(-159.844 -87.634)" fill="#b67f5f"/>
      </g>
      <path id="Trazado_1211544" data-name="Trazado 1211544" d="M199.857,7.521a15.584,15.584,0,0,0-8.673,2.148A26.414,26.414,0,0,0,214.757,24.16h0V23.6C214.757,15.171,208.278,7.917,199.857,7.521Z" transform="translate(-139.686 -6.586)" fill="#dbd9dc"/>
      <path id="Trazado_1211545" data-name="Trazado 1211545" d="M147.136,7.953a15.117,15.117,0,0,0-2.936-.434,15.658,15.658,0,0,0-16.414,15.639s0,.966,0,1.86A19.868,19.868,0,0,0,147.136,7.953Z" transform="translate(-84.029 -6.584)" fill="#c9c6ca"/>
      <path id="Trazado_1211546" data-name="Trazado 1211546" d="M55.636,422.394,52.47,420.81a1.957,1.957,0,0,1-1.082-1.751v-2.7H45.516v2.7a1.957,1.957,0,0,1-1.082,1.751l-3.167,1.583a2.936,2.936,0,0,0-1.623,2.626v2.1H57.259v-2.1A2.936,2.936,0,0,0,55.636,422.394Z" transform="translate(-6.653 -365.51)" fill="#e3aa75"/>
      <path id="Trazado_1211547" data-name="Trazado 1211547" d="M55.635,460.412l-1.5-.75a6.351,6.351,0,0,1-11.369,0l-1.5.75a2.936,2.936,0,0,0-1.623,2.626v2.1H57.258v-2.1A2.936,2.936,0,0,0,55.635,460.412Z" transform="translate(-6.652 -403.528)" fill="#aea8af"/>
      <path id="Trazado_1211548" data-name="Trazado 1211548" d="M87.724,416.355v3.914a8.563,8.563,0,0,0,5.871,0v-3.914Z" transform="translate(-48.86 -365.51)" fill="#d29b6e"/>
      <path id="Trazado_1211549" data-name="Trazado 1211549" d="M62.521,326.862h0a6.85,6.85,0,0,1-6.85-6.85v-7.829h13.7v7.829A6.85,6.85,0,0,1,62.521,326.862Z" transform="translate(-20.722 -274.059)" fill="#f5b97d"/>
      <path id="Trazado_1211550" data-name="Trazado 1211550" d="M55.671,312.181v7.484a6.844,6.844,0,0,0,4.876,6.913,6.676,6.676,0,0,0,3.442.12,6.79,6.79,0,0,1-5.314-6.688v-2.622a1.32,1.32,0,0,1,1.918-1.22,29.612,29.612,0,0,0,4.292,1.618,14.1,14.1,0,0,1,4.487,2.225v-7.829h-13.7Z" transform="translate(-20.722 -274.057)" fill="#e3aa75"/>
      <path id="Trazado_1211551" data-name="Trazado 1211551" d="M48.451,273.516l-5.426-2.035a8.784,8.784,0,0,0-3.381,6.928v1.238a1.353,1.353,0,0,0,2.35.914Z" transform="translate(-6.652 -238.328)" fill="#a06e50"/>
      <g id="Grupo_1224531" data-name="Grupo 1224531" transform="translate(35.928 31.273)">
        <path id="Trazado_1211552" data-name="Trazado 1211552" d="M183.57,360.262a.939.939,0,0,1-.044.217C183.66,360.506,183.7,360.459,183.57,360.262Z" transform="translate(-168.891 -347.54)" fill="#b67f5f"/>
        <path id="Trazado_1211553" data-name="Trazado 1211553" d="M69.784,256.089a7.085,7.085,0,0,0-6.1,2.933c2.936,6.85,12.722,6.85,14.679,9.786v-3.6A9.014,9.014,0,0,0,69.784,256.089Z" transform="translate(-63.684 -256.086)" fill="#b67f5f"/>
      </g>
      <path id="Trazado_1211554" data-name="Trazado 1211554" d="M78.455,243.151l-5.382,2.122-5.382-2.122v5.015l5.382-2.122,5.382,2.122Z" transform="translate(-31.274 -213.457)" fill="#a5cdff"/>
      <path id="Trazado_1211555" data-name="Trazado 1211555" d="M343.729,421.558l-3.2-1.065a.979.979,0,0,1-.669-.928v-3.209h-5.871v3.209a.979.979,0,0,1-.669.928l-3.195,1.065a2.936,2.936,0,0,0-2.007,2.785v2.777h17.614v-2.777A2.936,2.936,0,0,0,343.729,421.558Z" transform="translate(-259.901 -365.51)" fill="#b67f5f"/>
      <path id="Trazado_1211556" data-name="Trazado 1211556" d="M343.729,455.132l-1.6-.532a5.866,5.866,0,0,1-10.408,0l-1.6.532a2.936,2.936,0,0,0-2.007,2.785v2.777h17.614v-2.777A2.936,2.936,0,0,0,343.729,455.132Z" transform="translate(-259.901 -399.084)" fill="#8cb4eb"/>
      <path id="Trazado_1211557" data-name="Trazado 1211557" d="M376.2,416.355v4.383a8.715,8.715,0,0,0,5.871,0v-4.383Z" transform="translate(-302.11 -365.51)" fill="#a06e50"/>
      <path id="Trazado_1211558" data-name="Trazado 1211558" d="M343.779,317.856v-3.67h-13.7v3.67a1.957,1.957,0,0,0,0,3.914,6.85,6.85,0,1,0,13.7,0,1.957,1.957,0,1,0,0-3.914Z" transform="translate(-259.901 -275.817)" fill="#cd916e"/>
      <path id="Trazado_1211559" data-name="Trazado 1211559" d="M330.079,314.186v3.67a1.957,1.957,0,0,0,0,3.914,6.84,6.84,0,0,0,8.318,6.689,6.79,6.79,0,0,1-5.314-6.689v-1.957a1.9,1.9,0,0,1,1.889-1.957h8.807v-3.67Z" transform="translate(-259.901 -275.817)" fill="#b67f5f"/>
      <path id="Trazado_1211560" data-name="Trazado 1211560" d="M373.283,274.432l-.25-1.5a.979.979,0,0,0-.965-.818H364a2.936,2.936,0,0,0-2.936,2.936l-.886,2.936h10.1A3.054,3.054,0,0,0,373.283,274.432Z" transform="translate(-288.041 -238.885)" fill="#64505a"/>
      <path id="Trazado_1211561" data-name="Trazado 1211561" d="M339.072,290.217a2.936,2.936,0,0,0-2.936,2.936v3.914a3.914,3.914,0,0,0,3.914-3.914v-2.936Z" transform="translate(-266.936 -254.776)" fill="#5a4650"/>
      <path id="Trazado_1211562" data-name="Trazado 1211562" d="M223.3,222.948a6.274,6.274,0,0,0,7.451,0,.916.916,0,0,0-1.251-1.338,4.548,4.548,0,0,1-4.949,0,.916.916,0,1,0-1.251,1.338Z" transform="translate(-167.627 -194.33)"/>
      <path id="Trazado_1211563" data-name="Trazado 1211563" d="M205.558,163.079a.916.916,0,0,0-.916.916v.979a.916.916,0,0,0,1.832,0v-.979A.916.916,0,0,0,205.558,163.079Z" transform="translate(-151.5 -143.163)"/>
      <path id="Trazado_1211564" data-name="Trazado 1211564" d="M293.068,165.89a.916.916,0,0,0,.916-.916v-.979a.916.916,0,1,0-1.832,0v.979A.916.916,0,0,0,293.068,165.89Z" transform="translate(-228.324 -143.163)"/>
      <path id="Trazado_1211565" data-name="Trazado 1211565" d="M382.3,386.268a.916.916,0,1,0-1.423-1.154,1.534,1.534,0,0,1-2.493,0,.916.916,0,0,0-1.423,1.154,3.362,3.362,0,0,0,5.338,0Z" transform="translate(-302.601 -337.786)"/>
      <path id="Trazado_1211566" data-name="Trazado 1211566" d="M84.126,55.177l-3.2-1.065a.063.063,0,0,1-.043-.06V52.69a7.781,7.781,0,0,0,3.877-5.964,2.857,2.857,0,0,0-.066-5.471v-2.1a3.962,3.962,0,0,0,1.457-3.769l-.386-2.317a.916.916,0,0,0-.9-.765H80.86a9.655,9.655,0,0,0-3.423-6.9,3.983,3.983,0,0,1-1.454-2.966c0-.137,0-3.96,0-5.421A17.241,17.241,0,0,0,71.445,5.345,16.221,16.221,0,0,0,60.2.02a16.579,16.579,0,0,0-17.379,16.56c0,1.583,0,5.722,0,5.863a3.983,3.983,0,0,1-1.454,2.967,9.7,9.7,0,0,0-2.916,4.265L36.8,28.9a.916.916,0,0,0-1.3.83v2.872a9.564,9.564,0,0,0-3.426,7.468V41.6A2.116,2.116,0,0,0,33.476,43.6a2.184,2.184,0,0,0,.548.122v2.22a7.771,7.771,0,0,0,3.916,6.741v.859a1.036,1.036,0,0,1-.576.932L34.2,56.063a3.832,3.832,0,0,0-2.13,3.446v2.1a.916.916,0,0,0,1.832,0v-2.1A2.01,2.01,0,0,1,35.016,57.7l1.108-.554a6.789,6.789,0,0,0,11.338,0l1.108.554a2.01,2.01,0,0,1,1.117,1.807v2.1a.916.916,0,1,0,1.832,0v-2.1a3.832,3.832,0,0,0-2.13-3.446l-3.168-1.584a1.036,1.036,0,0,1-.576-.932v-.861a7.769,7.769,0,0,0,3.634-4.661.916.916,0,1,0-1.765-.489,5.938,5.938,0,0,1-11.658-1.59v-3L39,39.343a18.322,18.322,0,0,0,5.536,2.451c2.429.75,4.347,1.343,5.216,3.514a.916.916,0,0,0,1.766-.34v-.416a37.533,37.533,0,0,0,2.635,3.467c2.168,2.516,3.887,3.738,5.254,3.738s3.1-1.226,5.268-3.748a36.923,36.923,0,0,0,2.674-3.535A2.87,2.87,0,0,0,69.3,46.726a7.781,7.781,0,0,0,3.877,5.964v1.362a.063.063,0,0,1-.043.06l-3.2,1.065a3.848,3.848,0,0,0-2.634,3.655V61.61a.916.916,0,1,0,1.832,0V58.832a2.018,2.018,0,0,1,1.382-1.917l.9-.3a6.79,6.79,0,0,0,11.232,0l.9.3a2.018,2.018,0,0,1,1.382,1.917V61.61a.916.916,0,1,0,1.832,0V58.832A3.847,3.847,0,0,0,84.126,55.177Zm-44.354-1.63v-.1a7.718,7.718,0,0,0,4.042,0v.1a2.858,2.858,0,0,0,1.589,2.57l.4.2a4.957,4.957,0,0,1-8.028,0l.4-.2A2.858,2.858,0,0,0,39.772,53.547ZM42.55,26.806a5.813,5.813,0,0,0,2.1-4.342c0-.074,0-1.672,0-3.191.523-.03,1.239-.09,2.084-.214v5.2a12.6,12.6,0,0,0,.9,4.685.915.915,0,0,0-.846-.04l-5,2.328-1.671-.778A7.876,7.876,0,0,1,42.55,26.806Zm3.711,4.365v2.143l-2.3-1.071Zm-8.936,0,2.3,1.071-2.3,1.071ZM49.688,42.159a12.847,12.847,0,0,0-4.61-2.115c-2.247-.694-4.571-1.412-6.528-3.529A.916.916,0,1,0,37.2,37.758c.13.141.262.276.394.406l-3.147,3.611-.013.016a.305.305,0,0,1-.54-.2V40.074a7.985,7.985,0,0,1,1.671-4.959.914.914,0,0,0,1.226.467l5-2.328,5,2.328a.914.914,0,0,0,1.2-.407,8.629,8.629,0,0,1,1.7,4.9v2.086Zm2.326-1.56-.494.232v-.759a10.235,10.235,0,0,0-3.426-7.435V29.953a12.752,12.752,0,0,0,4.518,4.989v4.715A1.046,1.046,0,0,1,52.013,40.6Zm11.276,6.215c-2.549,2.961-3.679,3.111-3.88,3.111s-1.321-.15-3.867-3.1a34.542,34.542,0,0,1-3.184-4.361l.435-.2a2.886,2.886,0,0,0,1.65-2.6V35.909a12.658,12.658,0,0,0,9.915,0v3.748a2.886,2.886,0,0,0,1.65,2.6l.446.21A33.92,33.92,0,0,1,63.289,46.815Zm5-5.51-1.5-.705a1.046,1.046,0,0,1-.6-.943V34.942a12.664,12.664,0,0,0,5.874-10.684V21.107a.916.916,0,0,0-1.832,0v3.151a10.831,10.831,0,0,1-21.662,0V18.719a20.063,20.063,0,0,0,6.469-2.62.916.916,0,1,0-.994-1.538,20.587,20.587,0,0,1-9.391,2.873c0-.422,0-.734,0-.854A14.748,14.748,0,0,1,60.115,1.849a14.4,14.4,0,0,1,9.98,4.734,15.407,15.407,0,0,1,4.043,9.9,26.617,26.617,0,0,1-14.56-5.071,13.492,13.492,0,0,0,.673-1.315.916.916,0,0,0-1.674-.744,11.552,11.552,0,0,1-1.824,2.875.916.916,0,1,0,1.384,1.2c.14-.161.274-.328.406-.5a28.046,28.046,0,0,0,15.6,5.384c0,1.595,0,4.05,0,4.146a5.813,5.813,0,0,0,2.1,4.342,7.837,7.837,0,0,1,2.773,5.5H76.056A3.855,3.855,0,0,0,72.7,34.263H72.14a3.857,3.857,0,0,0-3.853,3.853V41.3h0Zm3.916-5.21v2.021a3.005,3.005,0,0,1-2.084,2.857V38.116a2.023,2.023,0,0,1,2.021-2.021H72.2ZM71.1,45.947a.916.916,0,0,0-.925-.916.9.9,0,0,1-.439-.092,1.031,1.031,0,0,1,.2-1.939,7.078,7.078,0,0,0,1.05-.388l.309-.149a4.891,4.891,0,0,0,.871-.529,4.824,4.824,0,0,0,1.875-3.818V36.158a2.021,2.021,0,0,1,2.021-2.021H84.09l.251,1.506a2.2,2.2,0,0,1-.261,1.486,2.138,2.138,0,0,1-1.841,1.05H77.073a.941.941,0,0,0-.954.888.916.916,0,0,0,.915.944h5.2a3.985,3.985,0,0,0,.628-.05v2.1a.9.9,0,0,0,.919.886,1.125,1.125,0,0,1,1.129.86,1.062,1.062,0,0,1-.578,1.131.9.9,0,0,1-.439.092.916.916,0,0,0-.925.916,5.937,5.937,0,0,1-11.873,0Zm5.937,11.81A4.96,4.96,0,0,1,73.252,56l.466-.155a1.892,1.892,0,0,0,1.3-1.8v-.605a7.735,7.735,0,0,0,4.042,0v.605a1.892,1.892,0,0,0,1.3,1.8l.466.155A4.957,4.957,0,0,1,77.035,57.757Z" transform="translate(0 0)"/>
      <path id="Trazado_1211567" data-name="Trazado 1211567" d="M417.758,355.522a.916.916,0,0,0,.916-.916v-.979a.916.916,0,1,0-1.832,0v.979A.916.916,0,0,0,417.758,355.522Z" transform="translate(-337.787 -309.638)"/>
      <path id="Trazado_1211568" data-name="Trazado 1211568" d="M370.577,354.606v-.979a.916.916,0,1,0-1.832,0v.979a.916.916,0,1,0,1.832,0Z" transform="translate(-295.563 -309.638)"/>
      <path id="Trazado_1211569" data-name="Trazado 1211569" d="M91.054,387.585a3.448,3.448,0,0,0,2.669-1.318.916.916,0,1,0-1.423-1.154,1.534,1.534,0,0,1-2.493,0,.916.916,0,1,0-1.423,1.154A3.448,3.448,0,0,0,91.054,387.585Z" transform="translate(-49.261 -337.786)"/>
      <path id="Trazado_1211570" data-name="Trazado 1211570" d="M82,354.606v-.979a.916.916,0,1,0-1.832,0v.979a.916.916,0,1,0,1.832,0Z" transform="translate(-42.224 -309.638)"/>
      <path id="Trazado_1211571" data-name="Trazado 1211571" d="M130.093,354.606v-.979a.916.916,0,1,0-1.832,0v.979a.916.916,0,1,0,1.832,0Z" transform="translate(-84.447 -309.638)"/>
    </g>
  </g>
</svg>
