<svg xmlns="http://www.w3.org/2000/svg" xmlns:xlink="http://www.w3.org/1999/xlink" width="103" height="103" viewBox="0 0 103 103">
  <defs>
    <filter id="Trazado_904820" x="0" y="0" width="103" height="103" filterUnits="userSpaceOnUse">
      <feOffset dy="3" input="SourceAlpha"/>
      <feGaussianBlur stdDeviation="3" result="blur"/>
      <feFlood flood-opacity="0.161"/>
      <feComposite operator="in" in2="blur"/>
      <feComposite in="SourceGraphic"/>
    </filter>
  </defs>
  <g id="Grupo_1224748" data-name="Grupo 1224748" transform="translate(-171 -3287)">
    <g id="Grupo_1223814" data-name="Grupo 1223814" transform="translate(-448.97 2636)">
      <g id="Grupo_1223164" data-name="Grupo 1223164" transform="translate(628.97 657)">
        <g id="Grupo_1203639" data-name="Grupo 1203639">
          <g id="Grupo_1202437" data-name="Grupo 1202437" transform="translate(0 0)">
            <g id="Grupo_1177315" data-name="Grupo 1177315">
              <g id="Grupo_1173585" data-name="Grupo 1173585" transform="translate(0)">
                <g id="Grupo_1173428" data-name="Grupo 1173428" transform="translate(0 0)">
                  <g id="Grupo_1171958" data-name="Grupo 1171958">
                    <g id="Grupo_1167341" data-name="Grupo 1167341">
                      <g id="Grupo_1166792" data-name="Grupo 1166792">
                        <g transform="matrix(1, 0, 0, 1, -9, -6)" filter="url(#Trazado_904820)">
                          <g id="Trazado_904820-2" data-name="Trazado 904820" transform="translate(9 6)" fill="#ebe9f0">
                            <path d="M 42.49993515014648 83.49986267089844 C 36.96432495117188 83.49986267089844 31.59508895874023 82.41603851318359 26.5413703918457 80.27849578857422 C 21.65931129455566 78.21355438232422 17.27445220947266 75.25711059570312 13.50860595703125 71.49126434326172 C 9.742758750915527 67.72541046142578 6.786311626434326 63.34055328369141 4.721370220184326 58.45849609375 C 2.583829164505005 53.40477752685547 1.500005722045898 48.03554153442383 1.500005722045898 42.49993133544922 C 1.500005722045898 36.96430969238281 2.583829164505005 31.59507179260254 4.721370220184326 26.54136657714844 C 6.786311626434326 21.6593074798584 9.742758750915527 17.27444839477539 13.50860595703125 13.50860214233398 C 17.27445220947266 9.742754936218262 21.65931129455566 6.786295890808105 26.5413703918457 4.721366405487061 C 31.59508895874023 2.583825349807739 36.96432495117188 1.500001907348633 42.49993515014648 1.500001907348633 C 48.03555679321289 1.500001907348633 53.40479278564453 2.583825349807739 58.45849990844727 4.721366405487061 C 63.34056854248047 6.786295890808105 67.72542572021484 9.742754936218262 71.49127960205078 13.50860214233398 C 75.25712585449219 17.27444839477539 78.21356964111328 21.6593074798584 80.27851104736328 26.54136657714844 C 82.41605377197266 31.59507179260254 83.4998779296875 36.96430969238281 83.4998779296875 42.49993133544922 C 83.4998779296875 48.03554153442383 82.41605377197266 53.40477752685547 80.27851104736328 58.45849609375 C 78.21356964111328 63.34055328369141 75.25712585449219 67.72541046142578 71.49127960205078 71.49126434326172 C 67.72542572021484 75.25711059570312 63.34056854248047 78.21355438232422 58.45849990844727 80.27849578857422 C 53.40479278564453 82.41603851318359 48.03555679321289 83.49986267089844 42.49993515014648 83.49986267089844 Z" stroke="none"/>
                            <path d="M 42.49993515014648 3 C 37.16616058349609 3 31.99352264404297 4.043960571289062 27.12569427490234 6.102867126464844 C 22.42242813110352 8.092185974121094 18.19784545898438 10.94068908691406 14.56926727294922 14.56926727294922 C 10.94069671630859 18.19783782958984 8.092185974121094 22.42242431640625 6.102867126464844 27.12569046020508 C 4.043960571289062 31.9935188293457 3 37.16615676879883 3 42.49993133544922 C 3 47.83370590209961 4.043960571289062 53.00634384155273 6.102867126464844 57.87417221069336 C 8.092185974121094 62.57743835449219 10.94069671630859 66.80202484130859 14.56926727294922 70.43059539794922 C 18.19784545898438 74.05917358398438 22.42242813110352 76.90767669677734 27.12569427490234 78.89699554443359 C 31.99352264404297 80.95590209960938 37.16616058349609 81.99986267089844 42.49993515014648 81.99986267089844 C 47.83370971679688 81.99986267089844 53.00634765625 80.95590209960938 57.87417602539062 78.89699554443359 C 62.57744216918945 76.90767669677734 66.80203247070312 74.05917358398438 70.43060302734375 70.43059539794922 C 74.05917358398438 66.80202484130859 76.90768432617188 62.57743835449219 78.89700317382812 57.87417221069336 C 80.95590972900391 53.00634384155273 81.99987030029297 47.83370590209961 81.99987030029297 42.49993133544922 C 81.99987030029297 37.16615676879883 80.95590972900391 31.9935188293457 78.89700317382812 27.12569046020508 C 76.90768432617188 22.42242431640625 74.05917358398438 18.19783782958984 70.43060302734375 14.56926727294922 C 66.80203247070312 10.94068908691406 62.57744216918945 8.092185974121094 57.87417602539062 6.102867126464844 C 53.00634765625 4.043960571289062 47.83370971679688 3 42.49993515014648 3 M 42.49993515014648 0 C 65.97200012207031 0 84.99987030029297 19.02786254882812 84.99987030029297 42.49993133544922 C 84.99987030029297 65.97200012207031 65.97200012207031 84.99986267089844 42.49993515014648 84.99986267089844 C 19.02787017822266 84.99986267089844 0 65.97200012207031 0 42.49993133544922 C 0 19.02786254882812 19.02787017822266 0 42.49993515014648 0 Z" stroke="none" fill="#c6c0d6"/>
                          </g>
                        </g>
                      </g>
                    </g>
                  </g>
                </g>
              </g>
            </g>
          </g>
        </g>
      </g>
    </g>
    <g id="familia_2_" data-name="familia (2)" transform="translate(189.373 3303.559)">
      <path id="Trazado_1212273" data-name="Trazado 1212273" d="M278.737,119.9h0a6.4,6.4,0,0,0-4.382-1.652h-3.342a6.4,6.4,0,0,0-4.382,1.652h0a4.4,4.4,0,0,0-1.449,3.2v7.949a1.013,1.013,0,0,0,1.014,1.014h12.979a1.013,1.013,0,0,0,1.014-1.014V123.1A4.4,4.4,0,0,0,278.737,119.9Z" transform="translate(-230.908 -103.492)" fill="#00c3ff"/>
      <path id="Trazado_1212274" data-name="Trazado 1212274" d="M267.676,131.044V123.1a4.4,4.4,0,0,1,1.449-3.2h0a6.315,6.315,0,0,1,4.383-1.652h-2.5a6.4,6.4,0,0,0-4.382,1.652h0a4.4,4.4,0,0,0-1.449,3.2v7.949a1.013,1.013,0,0,0,1.014,1.014h2.5A1.014,1.014,0,0,1,267.676,131.044Z" transform="translate(-230.908 -103.492)" fill="#06b0f2"/>
      <path id="Trazado_1212275" data-name="Trazado 1212275" d="M140.87,103.089h-3.739a6.781,6.781,0,0,0-5.83,2.987,4.677,4.677,0,0,0-.7,2.439v9.23a1.047,1.047,0,0,0,1.047,1.047h14.7a1.047,1.047,0,0,0,1.047-1.047v-9.23C147.4,105.5,144.449,103.089,140.87,103.089Z" transform="translate(-113.124 -90.226)" fill="#fc932b"/>
      <g id="Grupo_1224746" data-name="Grupo 1224746" transform="translate(21.321 0.957)">
        <circle id="Elipse_12767" data-name="Elipse 12767" cx="4.556" cy="4.556" r="4.556" fill="#f0a479"/>
        <circle id="Elipse_12768" data-name="Elipse 12768" cx="4.071" cy="4.071" r="4.071" transform="translate(16.382 3.128)" fill="#f0a479"/>
      </g>
      <path id="Trazado_1212276" data-name="Trazado 1212276" d="M236.847,174.812H234.99a3.007,3.007,0,0,0-3.243,2.7v4.058h8.342v-4.058A3.007,3.007,0,0,0,236.847,174.812Z" transform="translate(-201.646 -153.001)" fill="#ff5050"/>
      <path id="Trazado_1212277" data-name="Trazado 1212277" d="M133.1,117.745v-9.23a4.679,4.679,0,0,1,.7-2.439,6.784,6.784,0,0,1,5.83-2.987h-2.5a6.781,6.781,0,0,0-5.83,2.987,4.677,4.677,0,0,0-.7,2.439v9.23a1.047,1.047,0,0,0,1.047,1.047h2.5A1.047,1.047,0,0,1,133.1,117.745Z" transform="translate(-113.123 -90.226)" fill="#ef8220"/>
      <path id="Trazado_1212278" data-name="Trazado 1212278" d="M237.167,174.825c-.1-.008-.211-.013-.319-.013h-1.857a3.007,3.007,0,0,0-3.243,2.7v4.058h2.5v-4.058A2.944,2.944,0,0,1,237.167,174.825Z" transform="translate(-201.647 -153.001)" fill="#ed3a3a"/>
      <circle id="Elipse_12769" data-name="Elipse 12769" cx="2.263" cy="2.263" r="2.263" transform="translate(32.009 15.881)" fill="#f0a479"/>
      <g id="Grupo_1224747" data-name="Grupo 1224747" transform="translate(21.321 0.958)">
        <path id="Trazado_1212279" data-name="Trazado 1212279" d="M163.876,12.231a4.557,4.557,0,0,1,3.308-4.381,4.556,4.556,0,1,0,0,8.762A4.556,4.556,0,0,1,163.876,12.231Z" transform="translate(-161.38 -7.675)" fill="#e59770"/>
        <path id="Trazado_1212280" data-name="Trazado 1212280" d="M295.177,36.813A4.072,4.072,0,0,1,298,32.938a4.071,4.071,0,1,0,0,7.751A4.073,4.073,0,0,1,295.177,36.813Z" transform="translate(-276.298 -29.614)" fill="#e59770"/>
        <path id="Trazado_1212281" data-name="Trazado 1212281" d="M249.534,129.538a2.26,2.26,0,0,1,1.016-1.888,2.263,2.263,0,1,0,0,3.775A2.261,2.261,0,0,1,249.534,129.538Z" transform="translate(-236.35 -112.352)" fill="#e59770"/>
      </g>
      <path id="Trazado_1212282" data-name="Trazado 1212282" d="M22.68,310.061,9.267,315.116a1.323,1.323,0,0,0-.772,1.706l6.344,16.835a1.324,1.324,0,0,0,1.706.772l2.332-.879,11.081-4.176Z" transform="translate(-6.174 -271.374)" fill="#00c3ff"/>
      <path id="Trazado_1212283" data-name="Trazado 1212283" d="M69.592,442.412h0l-14.4,5.427.592,1.572a1.324,1.324,0,0,0,1.706.772l2.332-.879L70.9,445.128l-1.059-2.81Z" transform="translate(-47.119 -387.129)" fill="#06b0f2"/>
      <path id="Trazado_1212284" data-name="Trazado 1212284" d="M198.78,231.541a3.35,3.35,0,0,0-3.492-3.163c-9.216,0-10.385-.159-12.413.613h0l-7.37,3.048,5.627,14.933c5.807-2.406,3.544-2.048,14.235-2.048A8.835,8.835,0,0,0,201.591,242l0,0,13.645-14.661c.432-.5,2.507-3.222.174-5.513h0c-2.6-2.394-5.3.307-5.534.519l-11.1,9.2" transform="translate(-152.422 -193.281)" fill="#f0a479"/>
      <path id="Trazado_1212285" data-name="Trazado 1212285" d="M178.457,300.844l-2.952,1.221L181.132,317l2.951-1.223Z" transform="translate(-152.421 -263.307)" fill="#ea976e"/>
      <path id="Trazado_1212286" data-name="Trazado 1212286" d="M125.993,295.036l-5.026,1.894,7.278,19.312,5.026-1.894a1.168,1.168,0,0,0,.682-1.5L127.5,295.716A1.168,1.168,0,0,0,125.993,295.036Z" transform="translate(-104.688 -258.158)" fill="#e4eaf8"/>
      <path id="Trazado_1212287" data-name="Trazado 1212287" d="M177.574,425.094l-.709-1.881a1.279,1.279,0,0,1-.542.39l-5.516,2.079,1.059,2.811,5.026-1.894A1.168,1.168,0,0,0,177.574,425.094Z" transform="translate(-148.31 -370.408)" fill="#d8dce5"/>
      <path id="Trazado_1212288" data-name="Trazado 1212288" d="M159.155,10.983a5.492,5.492,0,1,0-5.492-5.492A5.5,5.5,0,0,0,159.155,10.983Zm0-9.111a3.62,3.62,0,1,1-3.62,3.62A3.624,3.624,0,0,1,159.155,1.872Z" transform="translate(-133.305)"/>
      <path id="Trazado_1212289" data-name="Trazado 1212289" d="M289.973,35.08a5.007,5.007,0,1,0-5.007-5.007A5.013,5.013,0,0,0,289.973,35.08Zm0-8.143a3.135,3.135,0,1,1-3.135,3.136A3.139,3.139,0,0,1,289.973,26.938Z" transform="translate(-248.225 -21.938)"/>
      <path id="Trazado_1212290" data-name="Trazado 1212290" d="M124.87,112.988h29.737a1.952,1.952,0,0,0,1.949-1.949v-2.47a.936.936,0,1,0-1.872,0v2.47a.078.078,0,0,1-.078.078h-8.885v-3.122a3.839,3.839,0,0,0-3.52-3.587,3.2,3.2,0,0,0,1.188-4.369,5.681,5.681,0,0,1,3.057-.862h3.341c2.7,0,4.9,1.756,4.9,3.913V104.2a.936.936,0,0,0,1.872,0V103.09c0-3.19-3.036-5.785-6.768-5.785h-3.341a7.487,7.487,0,0,0-4.462,1.435,3.179,3.179,0,0,0-1.37-.309q-.086,0-.171,0a7.758,7.758,0,0,0-6.355-3.022H130.35c-4.115,0-7.462,2.854-7.462,6.362v9.23A1.985,1.985,0,0,0,124.87,112.988Zm12.509-4.994a2.092,2.092,0,0,1,2.307-1.76h1.858a2.092,2.092,0,0,1,2.307,1.76v3.122H137.38v-3.122Zm3.235-7.691a1.328,1.328,0,1,1-1.328,1.328A1.332,1.332,0,0,1,140.615,100.3Zm-15.855,1.473c0-2.476,2.508-4.49,5.59-4.49h3.739a6.134,6.134,0,0,1,4.52,1.855,3.2,3.2,0,0,0,.418,5.267,3.837,3.837,0,0,0-3.52,3.587v3.122H124.87a.111.111,0,0,1-.111-.111v-9.23Z" transform="translate(-106.369 -83.509)"/>
      <path id="Trazado_1212291" data-name="Trazado 1212291" d="M56.76,214.451l-9.937,8.24a4.117,4.117,0,0,0-4.01-2.438c-8.779,0-10.678-.178-12.738.682l-6.3,2.607-.086-.228a2.1,2.1,0,0,0-2.707-1.225L2.817,228.935A2.255,2.255,0,0,0,1.5,231.842l6.327,16.79a2.259,2.259,0,0,0,2.907,1.316L28.9,243.1h0a2.1,2.1,0,0,0,1.226-2.706l-.08-.213c2.859-1.214,3.258-1.48,5.468-1.554a.936.936,0,0,0-.063-1.871c-2.57.086-3.24.471-6.066,1.672L24.433,225.3l6.346-2.624c1.831-.695,2.924-.546,12.035-.546a2.3,2.3,0,0,1,2.147,1.061,3.032,3.032,0,0,1,.4,1.172,2.447,2.447,0,0,1-1.91,2.34c-2.55.433-8.05,1.221-8.106,1.228a.936.936,0,1,0,.265,1.853c.056-.008,5.58-.8,8.154-1.236a4.233,4.233,0,0,0,3.428-3.725l10.774-8.933.032-.027.043-.04c1.07-1,2.666-1.9,4.2-.492,1.748,1.732.121,3.8-.232,4.2L48.414,234.134l-.02.022a7.933,7.933,0,0,1-5.524,2.6c-1.148,0-2.145,0-3.018-.009h0a.936.936,0,0,0,0,1.872c.228,0,2.973.014,3.1.008a9.826,9.826,0,0,0,6.857-3.227l13.622-14.636C67.714,215.833,61.8,209.738,56.76,214.451ZM10.074,248.2a.385.385,0,0,1-.5-.224L3.252,231.182a.384.384,0,0,1,.224-.5l12.275-4.626,6.6,17.509Zm18.164-6.845L24.1,242.91,17.5,225.4l4.137-1.559h0a.228.228,0,0,1,.295.133l6.437,17.081A.228.228,0,0,1,28.238,241.351Z" transform="translate(0 -186.21)"/>
    </g>
  </g>
</svg>
