<svg xmlns="http://www.w3.org/2000/svg" xmlns:xlink="http://www.w3.org/1999/xlink" width="108" height="108" viewBox="0 0 108 108">
  <defs>
    <filter id="Trazado_904820" x="0" y="0" width="108" height="108" filterUnits="userSpaceOnUse">
      <feOffset dy="3" input="SourceAlpha"/>
      <feGaussianBlur stdDeviation="3" result="blur"/>
      <feFlood flood-opacity="0.161"/>
      <feComposite operator="in" in2="blur"/>
      <feComposite in="SourceGraphic"/>
    </filter>
  </defs>
  <g id="Grupo_1224751" data-name="Grupo 1224751" transform="translate(-512.97 -6591)">
    <g id="Grupo_1223992" data-name="Grupo 1223992" transform="translate(-107 5940)">
      <g id="Grupo_1223164" data-name="Grupo 1223164" transform="translate(-0.03 -230)">
        <g id="Grupo_1203639" data-name="Grupo 1203639" transform="translate(0 81)">
          <g id="Grupo_1202437" data-name="Grupo 1202437" transform="translate(0.523 386.813)">
            <g id="Grupo_1177315" data-name="Grupo 1177315" transform="translate(-0.523 -112.813)">
              <g id="Grupo_1173585" data-name="Grupo 1173585" transform="translate(629 532)">
                <g id="Grupo_1173428" data-name="Grupo 1173428" transform="translate(0 0)">
                  <g id="Grupo_1171958" data-name="Grupo 1171958">
                    <g id="Grupo_1167341" data-name="Grupo 1167341">
                      <g id="Grupo_1166792" data-name="Grupo 1166792">
                        <g transform="matrix(1, 0, 0, 1, -9, -6)" filter="url(#Trazado_904820)">
                          <g id="Trazado_904820-2" data-name="Trazado 904820" transform="translate(9 6)" fill="#edf3fc">
                            <path d="M 44.99999618530273 88.49999237060547 C 39.12687301635742 88.49999237060547 33.43022155761719 87.35006713867188 28.06829643249512 85.08216857910156 C 22.88852119445801 82.89130401611328 18.23629570007324 79.75457763671875 14.24084663391113 75.75914001464844 C 10.24540901184082 71.76369476318359 7.108683586120605 67.11146545410156 4.917821407318115 61.93169403076172 C 2.649921178817749 56.56976699829102 1.499996185302734 50.87311553955078 1.499996185302734 44.99999237060547 C 1.499996185302734 39.12686920166016 2.649921178817749 33.43021774291992 4.917821407318115 28.06829261779785 C 7.108683586120605 22.88851737976074 10.24540901184082 18.23630523681641 14.24084663391113 14.24085521697998 C 18.23629570007324 10.24540519714355 22.88852119445801 7.108692169189453 28.06829643249512 4.917829990386963 C 33.43022155761719 2.649929761886597 39.12687301635742 1.500004887580872 44.99999618530273 1.500004887580872 C 50.87311935424805 1.500004887580872 56.56977081298828 2.649929761886597 61.93169784545898 4.917829990386963 C 67.11147308349609 7.108692169189453 71.76369476318359 10.24540519714355 75.75914764404297 14.24085521697998 C 79.75458526611328 18.23630523681641 82.89131164550781 22.88851737976074 85.08216857910156 28.06829261779785 C 87.35007476806641 33.43021774291992 88.5 39.12686920166016 88.5 44.99999237060547 C 88.5 50.87311553955078 87.35007476806641 56.56976699829102 85.08216857910156 61.93169403076172 C 82.89131164550781 67.11146545410156 79.75458526611328 71.76369476318359 75.75914764404297 75.75914001464844 C 71.76369476318359 79.75457763671875 67.11147308349609 82.89130401611328 61.93169784545898 85.08216857910156 C 56.56977081298828 87.35006713867188 50.87311935424805 88.49999237060547 44.99999618530273 88.49999237060547 Z" stroke="none"/>
                            <path d="M 44.99999618530273 2.999992370605469 C 39.32870864868164 2.999992370605469 33.82865142822266 4.11004638671875 28.65262603759766 6.299331665039062 C 23.65165710449219 8.414566040039062 19.15968322753906 11.44333648681641 15.301513671875 15.30150604248047 C 11.44333648681641 19.15967559814453 8.414566040039062 23.65164947509766 6.299339294433594 28.65262222290039 C 4.110054016113281 33.82864761352539 2.999992370605469 39.32870483398438 2.999992370605469 44.99999237060547 C 2.999992370605469 50.67127990722656 4.110054016113281 56.17132186889648 6.299339294433594 61.34736633300781 C 8.414566040039062 66.34833526611328 11.44333648681641 70.84029388427734 15.301513671875 74.69846343994141 C 19.15968322753906 78.55663299560547 23.65165710449219 81.58540344238281 28.65262603759766 83.70063781738281 C 33.82865142822266 85.88992309570312 39.32870864868164 86.99997711181641 44.99999618530273 86.99997711181641 C 50.67128372192383 86.99997711181641 56.17134094238281 85.88992309570312 61.34736633300781 83.70063781738281 C 66.34834289550781 81.58540344238281 70.84030914306641 78.55663299560547 74.69847869873047 74.69846343994141 C 78.55665588378906 70.84029388427734 81.58542633056641 66.34833526611328 83.70065307617188 61.34736633300781 C 85.88993835449219 56.17132186889648 87 50.67127990722656 87 44.99999237060547 C 87 39.32870483398438 85.88993835449219 33.82864761352539 83.70065307617188 28.65262222290039 C 81.58542633056641 23.65164947509766 78.55665588378906 19.15967559814453 74.69847869873047 15.30150604248047 C 70.84030914306641 11.44333648681641 66.34834289550781 8.414566040039062 61.34736633300781 6.299331665039062 C 56.17134094238281 4.11004638671875 50.67128372192383 2.999992370605469 44.99999618530273 2.999992370605469 M 44.99999618530273 -7.62939453125e-06 C 69.85281372070312 -7.62939453125e-06 90 20.14717864990234 90 44.99999237060547 C 90 69.85279083251953 69.85281372070312 89.99997711181641 44.99999618530273 89.99997711181641 C 20.14717864990234 89.99997711181641 -7.62939453125e-06 69.85279083251953 -7.62939453125e-06 44.99999237060547 C -7.62939453125e-06 20.14717864990234 20.14717864990234 -7.62939453125e-06 44.99999618530273 -7.62939453125e-06 Z" stroke="none" fill="#5692e8"/>
                          </g>
                        </g>
                      </g>
                    </g>
                  </g>
                </g>
              </g>
            </g>
          </g>
        </g>
      </g>
    </g>
    <g id="farm-stay_17042924" transform="translate(513.508 6584.94)">
      <g id="Grupo_1224750" data-name="Grupo 1224750" transform="translate(24.433 29.546)">
        <path id="Trazado_1212292" data-name="Trazado 1212292" d="M63.341,311.62h48.494a1.556,1.556,0,0,1,1.551,1.554v16.894a1.554,1.554,0,0,1-1.551,1.554H63.341a1.557,1.557,0,0,1-1.551-1.554V313.174A1.556,1.556,0,0,1,63.341,311.62Z" transform="translate(-57.938 -277.306)" fill="#024d27" fill-rule="evenodd"/>
        <path id="Trazado_1212293" data-name="Trazado 1212293" d="M63.341,311.62H79.282c-6.766,1.275-13.985,6.239-17.269,11.9l-.223-.1V313.174A1.556,1.556,0,0,1,63.341,311.62Z" transform="translate(-57.938 -277.306)" fill="#128241" fill-rule="evenodd"/>
        <path id="Trazado_1212294" data-name="Trazado 1212294" d="M69.709,140.524c.346-.244,1.806-.922,2.06-1.9.891-3.423.179-12.057-.126-12.836l-3.734-3.8,1.3-.049,3.573,2.438c.426-2.186.259-4.5,3.227-4.282-1.7,2.323-1.506,15.832-.58,18.5.307.874,1.866,1.477,2.155,1.959Z" transform="translate(-63.304 -109.369)" fill="#6c504d" fill-rule="evenodd"/>
        <path id="Trazado_1212295" data-name="Trazado 1212295" d="M83.17,124.41l3,2.043c.063-.314.112-.632.16-.943l1.38.943c.322-1.631.307-3.336,1.516-4-1.512,2.833-1.3,15.647-.409,18.221.3.87,1.854,1.474,2.151,1.955l-5.732-.017h-.007a3.741,3.741,0,0,0,1.464-1.914c.891-3.423.179-12.057-.126-12.836Z" transform="translate(-76.684 -111.445)" fill="#7c625f" fill-rule="evenodd"/>
        <path id="Trazado_1212296" data-name="Trazado 1212296" d="M42.794,54.159a3.062,3.062,0,0,1,1.645-.461c1.691,0,2.945,1.251,2.627,2.585,1.984-.087,3.388,1.544,2.616,3.014a1.97,1.97,0,0,1,.649,3.451c1.173,1.261.328,3.088-1.565,3.423a2.3,2.3,0,0,1-2.029,2.151,2.617,2.617,0,0,1-2.612,1.694,3,3,0,0,1-1.928-.664,1.872,1.872,0,0,1-2.756,0,3.007,3.007,0,0,1-1.928.664A2.613,2.613,0,0,1,34.9,68.323a2.3,2.3,0,0,1-2.033-2.151c-1.893-.335-2.735-2.162-1.561-3.423a1.969,1.969,0,0,1,.649-3.451c-.771-1.47.632-3.1,2.612-3.014-.318-1.334.936-2.585,2.627-2.585a3.072,3.072,0,0,1,1.649.461,3.408,3.408,0,0,1,3.952,0Z" transform="translate(-30.528 -51.015)" fill="#b4c08b" fill-rule="evenodd"/>
        <path id="Trazado_1212297" data-name="Trazado 1212297" d="M68.421,80.312c-.01.021-.021.038-.028.055a1.97,1.97,0,0,1,.649,3.451c1.173,1.261.328,3.088-1.565,3.423a2.3,2.3,0,0,1-2.029,2.151,2.617,2.617,0,0,1-2.612,1.694,3,3,0,0,1-1.928-.664,1.872,1.872,0,0,1-2.756,0,3.007,3.007,0,0,1-1.928.664,2.973,2.973,0,0,1-2.012-.737c0-.049,0-.1,0-.15-.059-.01-.118-.021-.175-.035a1.965,1.965,0,0,1-.423-.771,2.839,2.839,0,0,1-1.39-.695,1.827,1.827,0,0,1,.426-1.921,1.966,1.966,0,0,1,.649-3.448c-.771-1.474.632-3.105,2.612-3.018-.318-1.331.94-2.585,2.629-2.585a3.1,3.1,0,0,1,1.645.461,3.412,3.412,0,0,1,3.95,0,3.1,3.1,0,0,1,1.645-.461c1.691,0,2.945,1.254,2.631,2.585h.014Z" transform="translate(-49.238 -72.086)" fill="#718446" fill-rule="evenodd"/>
        <path id="Trazado_1212298" data-name="Trazado 1212298" d="M81.957,242.721a2.892,2.892,0,0,1,.311,0,2.776,2.776,0,0,1,5.443-.8,2.775,2.775,0,1,1,4.191,3.451c.046,1.512,1.6,2.787.087,2.861-1.679.08-3.96-.251-9.769.028a2.777,2.777,0,0,1-.262-5.547Z" transform="translate(-73.302 -214.444)" fill="#469443" fill-rule="evenodd"/>
        <path id="Trazado_1212299" data-name="Trazado 1212299" d="M100.848,249.966l.7.206a2.787,2.787,0,0,1,1.533,1.764,2.766,2.766,0,0,1,2.33-1.495,3.1,3.1,0,0,1,.569.031,2.774,2.774,0,0,1-.6,3.682c.046,1.512,1.6,2.787.087,2.861-1.679.08-3.96-.251-9.769.028a3.011,3.011,0,0,1-.569-.032,2.781,2.781,0,0,1,2.2-4.283,2.9,2.9,0,0,1,.311,0,2.771,2.771,0,0,1,2.641-2.8A2.568,2.568,0,0,1,100.848,249.966Z" transform="translate(-86.778 -223.218)" fill="#6aa843" fill-rule="evenodd"/>
        <path id="Trazado_1212300" data-name="Trazado 1212300" d="M281.818,349.392c-.01.095-.021.189-.028.283h24.129V344.24H284.357A19.033,19.033,0,0,0,281.818,349.392Z" transform="translate(-250.83 -305.907)" fill="#128241" fill-rule="evenodd"/>
        <path id="Trazado_1212301" data-name="Trazado 1212301" d="M366.016,242.721a2.892,2.892,0,0,0-.311,0,2.776,2.776,0,0,0-5.443-.8,2.776,2.776,0,1,0-4.192,3.451c-.049,1.512-1.607,2.787-.091,2.861,1.679.08,3.96-.251,9.769.028a2.777,2.777,0,0,0,.267-5.547Z" transform="translate(-315.039 -214.444)" fill="#469443" fill-rule="evenodd"/>
        <path id="Trazado_1212302" data-name="Trazado 1212302" d="M360.616,249.966l-.695.206a2.766,2.766,0,0,0-1.533,1.764,2.772,2.772,0,0,0-2.334-1.495,3.114,3.114,0,0,0-.569.031,2.782,2.782,0,0,0,.605,3.682c-.049,1.512-1.607,2.787-.091,2.861,1.679.08,3.96-.251,9.769.028a2.994,2.994,0,0,0,.569-.032,2.776,2.776,0,0,0-2.2-4.283,2.892,2.892,0,0,0-.311,0,2.777,2.777,0,0,0-2.644-2.8A2.573,2.573,0,0,0,360.616,249.966Z" transform="translate(-315.056 -223.218)" fill="#6aa843" fill-rule="evenodd"/>
        <path id="Trazado_1212303" data-name="Trazado 1212303" d="M184.805,75.679V95.431a.964.964,0,0,1-1.03.87H157.59a.961.961,0,0,1-1.03-.87V75.679l14.121-9.319Z" transform="translate(-141.031 -62.267)" fill="#dbc3a9" fill-rule="evenodd"/>
        <path id="Trazado_1212304" data-name="Trazado 1212304" d="M157.151,96.221a.875.875,0,0,1-.6-.79V75.679l14.121-9.319,8.135,5.369C176.745,85.308,167.9,95.629,157.151,96.221Z" transform="translate(-141.022 -62.267)" fill="#bda692" fill-rule="evenodd"/>
        <path id="Trazado_1212305" data-name="Trazado 1212305" d="M324.357,59.867h4.272a.53.53,0,0,0,.527-.527V53.111a.533.533,0,0,0-.527-.531h-4.272a.533.533,0,0,0-.527.531v6.227A.53.53,0,0,0,324.357,59.867Z" transform="translate(-287.69 -50.185)" fill="#664a49" fill-rule="evenodd"/>
        <path id="Trazado_1212306" data-name="Trazado 1212306" d="M144.605,33.14,159.131,44.4l3.263,2.525h-7.813L144.605,39.2l-9.972,7.729H126.82l3.259-2.525Z" transform="translate(-114.955 -33.14)" fill="#916e5a" fill-rule="evenodd"/>
        <path id="Trazado_1212307" data-name="Trazado 1212307" d="M157.641,60.051h-3.06l-9.976-7.729-9.738,7.548-4.988.181h-3.06l3.259-2.525L142.23,48.11l12.152,9.416Z" transform="translate(-114.955 -46.265)" fill="#9c7d6b" fill-rule="evenodd"/>
        <path id="Trazado_1212308" data-name="Trazado 1212308" d="M273.6,190.52h9.818V203.1H273.6Z" transform="translate(-243.649 -171.128)" fill="#9dcfca" fill-rule="evenodd"/>
        <path id="Trazado_1212309" data-name="Trazado 1212309" d="M313.42,190.52h4.911V203.1H313.42Z" transform="translate(-278.563 -171.128)" fill="#bcdfdd" fill-rule="evenodd"/>
        <path id="Trazado_1212310" data-name="Trazado 1212310" d="M196.86,167.87h5.728V172.4H196.86Z" transform="translate(-176.365 -151.269)" fill="#c7dee3" fill-rule="evenodd"/>
        <path id="Trazado_1212311" data-name="Trazado 1212311" d="M277.022,431.005h24.066a1.79,1.79,0,0,0,.251-.242V425.57H276.375A18.681,18.681,0,0,0,277.022,431.005Z" transform="translate(-246.076 -377.216)" fill="#128241" fill-rule="evenodd"/>
        <path id="Trazado_1212312" data-name="Trazado 1212312" d="M70.07,375.96l6.749.034a26.329,26.329,0,0,1,7.6-6.919,28.248,28.248,0,0,1,1.837-6.776,20.024,20.024,0,0,0-2.448.729C77.852,365.223,72.658,370.511,70.07,375.96Z" transform="translate(-65.198 -321.742)" fill="#128241" fill-rule="evenodd"/>
        <path id="Trazado_1212313" data-name="Trazado 1212313" d="M193.233,311.62h10.953a18.88,18.88,0,0,0-6.416,20H186.813a18.885,18.885,0,0,1,6.42-20Z" transform="translate(-166.905 -277.306)" fill="#888" fill-rule="evenodd"/>
        <path id="Trazado_1212314" data-name="Trazado 1212314" d="M227.869,311.62h6.688a18.88,18.88,0,0,0-6.416,20h-6.688A18.889,18.889,0,0,1,227.869,311.62Z" transform="translate(-197.276 -277.306)" fill="#ababab" fill-rule="evenodd"/>
      </g>
      <path id="Trazado_1212315" data-name="Trazado 1212315" d="M47.733,77.534a.86.86,0,1,1,1.6.639,4.119,4.119,0,0,0-.251,2.193,4.161,4.161,0,0,0,.9,2.012.856.856,0,0,1,.08.975h4.129a19.5,19.5,0,0,1,.447-10.318,19.945,19.945,0,0,1,4.845-7.956H51.065a18.326,18.326,0,0,0-5.753,8.481A17.779,17.779,0,0,0,45,83.353h3.556a5.871,5.871,0,0,1-.821-5.82Zm4.415-10.886a.86.86,0,1,1,.9,1.466,4.667,4.667,0,0,0-2.116,5.037.86.86,0,0,1-1.676.384,6.4,6.4,0,0,1,2.893-6.888ZM43.231,83.353a19.494,19.494,0,0,1,.444-10.318,19.992,19.992,0,0,1,4.847-7.956H29.836a.69.69,0,0,0-.688.688v16.9a.69.69,0,0,0,.688.688h13.4ZM62.018,65.079a18.326,18.326,0,0,0-5.753,8.481,17.779,17.779,0,0,0-.311,9.793H78.33a.69.69,0,0,0,.688-.688v-16.9a.69.69,0,0,0-.688-.688ZM44.928,45.637h5.728a.865.865,0,0,1,.863.863v4.533a.865.865,0,0,1-.863.863H44.928a.865.865,0,0,1-.863-.863V46.5A.865.865,0,0,1,44.928,45.637Zm4.866,1.725h-4v2.808h4Zm4.59,1.066H64.2a.863.863,0,0,1,.863.863V61.871a.863.863,0,0,1-.863.863H54.383a.863.863,0,0,1-.863-.863V49.291A.862.862,0,0,1,54.383,48.428Zm8.955,1.725H55.246V61.009h8.093ZM54.624,29.232l5.085,3.941v-.346a1.379,1.379,0,0,1,.339-.9.572.572,0,0,1,.07-.076,1.385,1.385,0,0,1,.982-.409h4.272a1.4,1.4,0,0,1,1.391,1.391h0V38.64L72.4,43.009a.86.86,0,0,1-.524,1.54v0h-2.8v11a3.853,3.853,0,0,1,.436.307,3.492,3.492,0,0,1,.706-.66,3.632,3.632,0,0,1,5.658,2.165,3.639,3.639,0,0,1,2.138,5.991h.322a2.419,2.419,0,0,1,2.413,2.413v16.9a2.419,2.419,0,0,1-2.413,2.413h-48.5a2.419,2.419,0,0,1-2.413-2.413v-16.9a2.419,2.419,0,0,1,2.413-2.413h.653a3.634,3.634,0,0,1,1.831-5.924,33.208,33.208,0,0,0,.154-3.469c0-1.488-.074-3.008-.164-4.3a4.006,4.006,0,0,1-3.032-.518,3.165,3.165,0,0,1-1.11-1.219,3.543,3.543,0,0,1-1.47-.922,2.826,2.826,0,0,1-.706-1.268A3.545,3.545,0,0,1,24.756,45a2.989,2.989,0,0,1-.775-1.152,2.606,2.606,0,0,1-.129-1.376,2.73,2.73,0,0,1,.259-.761,2.768,2.768,0,0,1-.318-.556,2.612,2.612,0,0,1-.181-1.464,2.773,2.773,0,0,1,.607-1.338,3.177,3.177,0,0,1,.607-.573,2.436,2.436,0,0,1-.035-.559,2.72,2.72,0,0,1,.514-1.46,3.336,3.336,0,0,1,1.18-1.02,3.765,3.765,0,0,1,1.108-.373,2.847,2.847,0,0,1,.741-1.5,3.638,3.638,0,0,1,1.816-1.037,4.2,4.2,0,0,1,.954-.108,4.1,4.1,0,0,1,1.1.15,4.245,4.245,0,0,1,.485.168,4.246,4.246,0,0,1,2.037-.489,4.294,4.294,0,0,1,2.039.489,4.184,4.184,0,0,1,.482-.168,4.139,4.139,0,0,1,1.1-.15,4.261,4.261,0,0,1,.957.108,3.622,3.622,0,0,1,1.813,1.037,2.8,2.8,0,0,1,.741,1.5,3.9,3.9,0,0,1,.691.192,3.481,3.481,0,0,1,1.468,1.03,2.968,2.968,0,0,1,.43.7l9.116-7.067a.857.857,0,0,1,1.061.014Zm6.811,5.277,3.6,2.8V33.162h-3.6Zm5.91,10.042H64.058a.865.865,0,0,1-.58-.227l-9.4-7.28-9.448,7.32a.855.855,0,0,1-.524.181v0H40.824V63.023a.272.272,0,0,0,.168.046.853.853,0,0,1,.636.283H66.539a.861.861,0,0,1,.639-.283.277.277,0,0,0,.168-.046V44.552Zm-28.246,0H36.3a.864.864,0,0,1-.474-1.586l7.111-5.508a.788.788,0,0,0,.007-.16,1.07,1.07,0,0,0-.255-.619,1.778,1.778,0,0,0-.744-.51,2.349,2.349,0,0,0-.876-.143.922.922,0,0,1-.29-.017.869.869,0,0,1-.643-1.041.91.91,0,0,0,.028-.217,1.066,1.066,0,0,0-.307-.716,1.868,1.868,0,0,0-.95-.524,2.516,2.516,0,0,0-1.2.021,1.951,1.951,0,0,0-.541.242.868.868,0,0,1-1.037-.087,2.181,2.181,0,0,0-1.4-.412,2.218,2.218,0,0,0-1.38.394.862.862,0,0,1-1.055.1,1.973,1.973,0,0,0-.545-.242,2.33,2.33,0,0,0-.643-.084,2.409,2.409,0,0,0-.559.063,1.9,1.9,0,0,0-.95.524,1.057,1.057,0,0,0-.3.716.908.908,0,0,0,.025.217v0a.862.862,0,0,1-.874,1.055,2.3,2.3,0,0,0-1.159.242,1.645,1.645,0,0,0-.577.489,1.011,1.011,0,0,0-.2.541.952.952,0,0,0,.1.455.979.979,0,0,1,.049.095.861.861,0,0,1-.457,1.129,1.667,1.667,0,0,0-.646.472,1.067,1.067,0,0,0-.244.518.922.922,0,0,0,.067.52,1.342,1.342,0,0,0,.384.482.373.373,0,0,1,.038.038.858.858,0,0,1,.046,1.215,1.135,1.135,0,0,0-.293.548.953.953,0,0,0,.049.493,1.239,1.239,0,0,0,.331.482,1.932,1.932,0,0,0,1,.465l0,0a.856.856,0,0,1,.712.866,1.056,1.056,0,0,0,.318.754,1.923,1.923,0,0,0,1.024.531v0a.858.858,0,0,1,.66.619,1.3,1.3,0,0,0,.583.723,2.2,2.2,0,0,0,1.2.335,2.4,2.4,0,0,0,.765-.122,1.771,1.771,0,0,0,.4-.189.453.453,0,0,0,.055-.035.793.793,0,0,0,.116-.084.863.863,0,0,1,1.177-.007,1.033,1.033,0,0,0,1.59,0,.862.862,0,0,1,1.135-.025,1.862,1.862,0,0,0,.607.339,2.484,2.484,0,0,0,1.538,0,2.059,2.059,0,0,0,.3-.133V44.552Zm28.987-2.711L60.1,35.652a.637.637,0,0,1-.1-.084l-5.91-4.579-9.846,7.632a.219.219,0,0,1-.049.038l-5.376,4.167H43.82l9.724-7.537a.862.862,0,0,1,1.066-.011l9.738,7.548h5.005Zm.985,16.175V62.77c.52-.014,1.1-.021,1.763-.017,1.2,0,2.631.032,4.352.112a1.9,1.9,0,0,0,1.376-.5,1.913,1.913,0,0,0-1.2-3.328c-.046,0-.084,0-.108,0s-.053,0-.108,0a.855.855,0,0,1-.912-.8.532.532,0,0,1,0-.108,1.915,1.915,0,0,0-3.754-.506.864.864,0,0,1-1.066.594A.828.828,0,0,1,69.07,58.016ZM39.1,62.762V58.208l-.025.007a.861.861,0,0,1-1.062-.594,1.919,1.919,0,0,0-1.907-1.38.066.066,0,0,0-.025,0H36.03a1.915,1.915,0,0,0-1.774,1.883v.108a.86.86,0,0,1-.916.8c-.055,0-.091,0-.1,0h-.053a.924.924,0,0,1-.1,0,1.916,1.916,0,0,0,.227,3.825c1.6-.076,2.945-.1,4.1-.112C38.034,62.749,38.592,62.752,39.1,62.762Zm0-6.989V49.622a4.16,4.16,0,0,1-1.068.143,4.093,4.093,0,0,1-1.3-.213c-.01.807-.01,1.617,0,2.406.017.9.049,1.782.1,2.62a3.56,3.56,0,0,1,1.453.619,3.7,3.7,0,0,1,.706.66c.035-.027.069-.055.107-.084Zm-4.921-.659a3.694,3.694,0,0,1,.936-.436c-.049-.832-.08-1.74-.1-2.69-.014-.758-.014-1.53,0-2.3a2.075,2.075,0,0,1-.29.017,2.53,2.53,0,0,1-.695-.1c.091,1.31.16,2.846.164,4.356,0,.387,0,.774-.015,1.152Z"/>
    </g>
  </g>
</svg>
