<svg xmlns="http://www.w3.org/2000/svg" xmlns:xlink="http://www.w3.org/1999/xlink" width="103" height="103" viewBox="0 0 103 103">
  <defs>
    <filter id="Trazado_904820" x="0" y="0" width="103" height="103" filterUnits="userSpaceOnUse">
      <feOffset dy="3" input="SourceAlpha"/>
      <feGaussianBlur stdDeviation="3" result="blur"/>
      <feFlood flood-opacity="0.161"/>
      <feComposite operator="in" in2="blur"/>
      <feComposite in="SourceGraphic"/>
    </filter>
  </defs>
  <g id="Grupo_1224529" data-name="Grupo 1224529" transform="translate(-171 -1107.602)">
    <g id="Grupo_1223798" data-name="Grupo 1223798" transform="translate(-448.97 456.602)">
      <g id="Grupo_1223164" data-name="Grupo 1223164" transform="translate(628.97 657)">
        <g id="Grupo_1203639" data-name="Grupo 1203639">
          <g id="Grupo_1202437" data-name="Grupo 1202437" transform="translate(0 0)">
            <g id="Grupo_1177315" data-name="Grupo 1177315">
              <g id="Grupo_1173585" data-name="Grupo 1173585" transform="translate(0)">
                <g id="Grupo_1173428" data-name="Grupo 1173428" transform="translate(0 0)">
                  <g id="Grupo_1171958" data-name="Grupo 1171958">
                    <g id="Grupo_1167341" data-name="Grupo 1167341">
                      <g id="Grupo_1166792" data-name="Grupo 1166792">
                        <g transform="matrix(1, 0, 0, 1, -9, -6)" filter="url(#Trazado_904820)">
                          <g id="Trazado_904820-2" data-name="Trazado 904820" transform="translate(9 6)" fill="#ebe9f0">
                            <path d="M 42.49993515014648 83.49986267089844 C 36.96432495117188 83.49986267089844 31.59508895874023 82.41603851318359 26.5413703918457 80.27849578857422 C 21.65931129455566 78.21355438232422 17.27445220947266 75.25711059570312 13.50860595703125 71.49126434326172 C 9.742758750915527 67.72541046142578 6.786311626434326 63.34055328369141 4.721370220184326 58.45849609375 C 2.583829164505005 53.40477752685547 1.500005722045898 48.03554153442383 1.500005722045898 42.49993133544922 C 1.500005722045898 36.96430969238281 2.583829164505005 31.59507179260254 4.721370220184326 26.54136657714844 C 6.786311626434326 21.6593074798584 9.742758750915527 17.27444839477539 13.50860595703125 13.50860214233398 C 17.27445220947266 9.742754936218262 21.65931129455566 6.786295890808105 26.5413703918457 4.721366405487061 C 31.59508895874023 2.583825349807739 36.96432495117188 1.500001907348633 42.49993515014648 1.500001907348633 C 48.03555679321289 1.500001907348633 53.40479278564453 2.583825349807739 58.45849990844727 4.721366405487061 C 63.34056854248047 6.786295890808105 67.72542572021484 9.742754936218262 71.49127960205078 13.50860214233398 C 75.25712585449219 17.27444839477539 78.21356964111328 21.6593074798584 80.27851104736328 26.54136657714844 C 82.41605377197266 31.59507179260254 83.4998779296875 36.96430969238281 83.4998779296875 42.49993133544922 C 83.4998779296875 48.03554153442383 82.41605377197266 53.40477752685547 80.27851104736328 58.45849609375 C 78.21356964111328 63.34055328369141 75.25712585449219 67.72541046142578 71.49127960205078 71.49126434326172 C 67.72542572021484 75.25711059570312 63.34056854248047 78.21355438232422 58.45849990844727 80.27849578857422 C 53.40479278564453 82.41603851318359 48.03555679321289 83.49986267089844 42.49993515014648 83.49986267089844 Z" stroke="none"/>
                            <path d="M 42.49993515014648 3 C 37.16616058349609 3 31.99352264404297 4.043960571289062 27.12569427490234 6.102867126464844 C 22.42242813110352 8.092185974121094 18.19784545898438 10.94068908691406 14.56926727294922 14.56926727294922 C 10.94069671630859 18.19783782958984 8.092185974121094 22.42242431640625 6.102867126464844 27.12569046020508 C 4.043960571289062 31.9935188293457 3 37.16615676879883 3 42.49993133544922 C 3 47.83370590209961 4.043960571289062 53.00634384155273 6.102867126464844 57.87417221069336 C 8.092185974121094 62.57743835449219 10.94069671630859 66.80202484130859 14.56926727294922 70.43059539794922 C 18.19784545898438 74.05917358398438 22.42242813110352 76.90767669677734 27.12569427490234 78.89699554443359 C 31.99352264404297 80.95590209960938 37.16616058349609 81.99986267089844 42.49993515014648 81.99986267089844 C 47.83370971679688 81.99986267089844 53.00634765625 80.95590209960938 57.87417602539062 78.89699554443359 C 62.57744216918945 76.90767669677734 66.80203247070312 74.05917358398438 70.43060302734375 70.43059539794922 C 74.05917358398438 66.80202484130859 76.90768432617188 62.57743835449219 78.89700317382812 57.87417221069336 C 80.95590972900391 53.00634384155273 81.99987030029297 47.83370590209961 81.99987030029297 42.49993133544922 C 81.99987030029297 37.16615676879883 80.95590972900391 31.9935188293457 78.89700317382812 27.12569046020508 C 76.90768432617188 22.42242431640625 74.05917358398438 18.19783782958984 70.43060302734375 14.56926727294922 C 66.80203247070312 10.94068908691406 62.57744216918945 8.092185974121094 57.87417602539062 6.102867126464844 C 53.00634765625 4.043960571289062 47.83370971679688 3 42.49993515014648 3 M 42.49993515014648 0 C 65.97200012207031 0 84.99987030029297 19.02786254882812 84.99987030029297 42.49993133544922 C 84.99987030029297 65.97200012207031 65.97200012207031 84.99986267089844 42.49993515014648 84.99986267089844 C 19.02787017822266 84.99986267089844 0 65.97200012207031 0 42.49993133544922 C 0 19.02786254882812 19.02787017822266 0 42.49993515014648 0 Z" stroke="none" fill="#c6c0d6"/>
                          </g>
                        </g>
                      </g>
                    </g>
                  </g>
                </g>
              </g>
            </g>
          </g>
        </g>
      </g>
    </g>
    <g id="estudiante_1_" data-name="estudiante (1)" transform="translate(194.034 1123.524)">
      <g id="Grupo_1224527" data-name="Grupo 1224527" transform="translate(0.772 2.863)">
        <g id="Grupo_1224512" data-name="Grupo 1224512" transform="translate(12.607 21.647)">
          <g id="Grupo_1224505" data-name="Grupo 1224505">
            <path id="Trazado_1211481" data-name="Trazado 1211481" d="M124.605,259.356a2.843,2.843,0,0,1-2.871,0,2.868,2.868,0,0,0-.386.273,11.93,11.93,0,0,1-.941,1.5,7.468,7.468,0,0,0-.084,1.9,2.847,2.847,0,0,0,5.694,0v-1.22A2.845,2.845,0,0,0,124.605,259.356Z" transform="translate(-120.321 -253.223)" fill="#57697d"/>
            <path id="Trazado_1211482" data-name="Trazado 1211482" d="M124.605,204.2a2.843,2.843,0,0,1-2.871,0,2.861,2.861,0,0,0-.386.273,11.931,11.931,0,0,1-.941,1.5,7.468,7.468,0,0,0-.084,1.9,2.847,2.847,0,1,0,5.694,0v-1.22a2.845,2.845,0,0,0-1.411-2.458Z" transform="translate(-120.321 -204.201)" fill="#57697d"/>
            <path id="Trazado_1211483" data-name="Trazado 1211483" d="M126.021,318.214v-1.22a2.845,2.845,0,0,0-1.411-2.458,2.849,2.849,0,0,1-2.871,0,2.856,2.856,0,0,0-1.411,2.491c0,.142,0,1.176,0,1.207a2.847,2.847,0,0,0,5.693-.019Z" transform="translate(-120.325 -302.267)" fill="#57697d"/>
            <path id="Trazado_1211484" data-name="Trazado 1211484" d="M124.605,259.356a2.843,2.843,0,0,1-2.871,0,2.868,2.868,0,0,0-.386.273,11.93,11.93,0,0,1-.941,1.5,7.468,7.468,0,0,0-.084,1.9,2.847,2.847,0,0,0,5.694,0v-1.22A2.845,2.845,0,0,0,124.605,259.356Z" transform="translate(-120.321 -253.223)" fill="#57697d"/>
            <path id="Trazado_1211485" data-name="Trazado 1211485" d="M124.605,204.2a2.843,2.843,0,0,1-2.871,0,2.861,2.861,0,0,0-.386.273,11.931,11.931,0,0,1-.941,1.5,7.468,7.468,0,0,0-.084,1.9,2.847,2.847,0,1,0,5.694,0v-1.22a2.845,2.845,0,0,0-1.411-2.458Z" transform="translate(-120.321 -204.201)" fill="#57697d"/>
            <path id="Trazado_1211486" data-name="Trazado 1211486" d="M126.021,318.214v-1.22a2.845,2.845,0,0,0-1.411-2.458,2.849,2.849,0,0,1-2.871,0,2.856,2.856,0,0,0-1.411,2.491c0,.142,0,1.176,0,1.207a2.847,2.847,0,0,0,5.693-.019Z" transform="translate(-120.325 -302.267)" fill="#57697d"/>
            <path id="Trazado_1211487" data-name="Trazado 1211487" d="M124.238,263.034v-1.22a2.859,2.859,0,0,0-.9-2.074,2.841,2.841,0,0,1-1.6-.384,2.858,2.858,0,0,0-.386.273,11.931,11.931,0,0,1-.941,1.5,7.469,7.469,0,0,0-.084,1.9,2.847,2.847,0,0,0,1.92,2.692A2.782,2.782,0,0,0,124.238,263.034Z" transform="translate(-120.322 -253.223)" fill="#57697d"/>
            <path id="Trazado_1211488" data-name="Trazado 1211488" d="M123.342,204.588l0,0a2.84,2.84,0,0,1-1.6-.384,2.854,2.854,0,0,0-.386.273,11.929,11.929,0,0,1-.941,1.5,7.468,7.468,0,0,0-.084,1.9,2.847,2.847,0,0,0,1.951,2.7,2.836,2.836,0,0,0,1.964-2.7v-1.22A2.836,2.836,0,0,0,123.342,204.588Z" transform="translate(-120.322 -204.2)" fill="#57697d"/>
            <path id="Trazado_1211489" data-name="Trazado 1211489" d="M122.4,320.878a2.85,2.85,0,0,0,1.846-2.665c0-1.215.156-2.3-.9-3.291l0,0a2.843,2.843,0,0,1-1.6-.383,2.857,2.857,0,0,0-1.411,2.491c0,.142,0,1.176,0,1.207a2.848,2.848,0,0,0,1.971,2.69Z" transform="translate(-120.325 -302.266)" fill="#57697d"/>
          </g>
          <g id="Grupo_1224507" data-name="Grupo 1224507" transform="translate(1.848 0)">
            <g id="Grupo_1224506" data-name="Grupo 1224506">
              <path id="Trazado_1211490" data-name="Trazado 1211490" d="M139.378,204.2a2.839,2.839,0,0,1-1.486.387c1.052.991.9,2.079.9,3.29a2.847,2.847,0,0,1-1.846,2.665,2.849,2.849,0,0,0,3.848-2.665v-1.22A2.845,2.845,0,0,0,139.378,204.2Z" transform="translate(-136.941 -204.201)" fill="#3d5168"/>
            </g>
          </g>
          <g id="Grupo_1224509" data-name="Grupo 1224509" transform="translate(1.848 6.133)">
            <g id="Grupo_1224508" data-name="Grupo 1224508">
              <path id="Trazado_1211491" data-name="Trazado 1211491" d="M139.378,259.356a2.84,2.84,0,0,1-1.486.387c1.052.991.9,2.079.9,3.29a2.847,2.847,0,0,1-1.846,2.665,2.849,2.849,0,0,0,3.848-2.665v-1.22A2.845,2.845,0,0,0,139.378,259.356Z" transform="translate(-136.941 -259.356)" fill="#3d5168"/>
            </g>
          </g>
          <g id="Grupo_1224511" data-name="Grupo 1224511" transform="translate(1.848 12.269)">
            <g id="Grupo_1224510" data-name="Grupo 1224510">
              <path id="Trazado_1211492" data-name="Trazado 1211492" d="M139.38,314.535a2.842,2.842,0,0,1-1.487.387c1.04.978.9,2.039.9,3.291a2.85,2.85,0,0,1-1.846,2.665,2.849,2.849,0,0,0,3.847-2.665v-1.22a2.845,2.845,0,0,0-1.411-2.458Z" transform="translate(-136.944 -314.535)" fill="#3d5168"/>
            </g>
          </g>
        </g>
        <g id="Grupo_1224520" data-name="Grupo 1224520" transform="translate(37.151 21.647)">
          <g id="Grupo_1224513" data-name="Grupo 1224513">
            <path id="Trazado_1211493" data-name="Trazado 1211493" d="M345.339,259.356a2.843,2.843,0,0,1-2.871,0,2.866,2.866,0,0,0-.386.273,11.927,11.927,0,0,1-.941,1.5,7.471,7.471,0,0,0-.084,1.9,2.847,2.847,0,0,0,5.694,0v-1.22A2.845,2.845,0,0,0,345.339,259.356Z" transform="translate(-341.055 -253.223)" fill="#57697d"/>
            <path id="Trazado_1211494" data-name="Trazado 1211494" d="M345.339,204.2a2.843,2.843,0,0,1-2.871,0,2.859,2.859,0,0,0-.386.273,11.928,11.928,0,0,1-.941,1.5,7.471,7.471,0,0,0-.084,1.9,2.847,2.847,0,1,0,5.694,0v-1.22a2.845,2.845,0,0,0-1.411-2.458Z" transform="translate(-341.055 -204.201)" fill="#57697d"/>
            <path id="Trazado_1211495" data-name="Trazado 1211495" d="M346.755,318.214v-1.22a2.845,2.845,0,0,0-1.411-2.458,2.849,2.849,0,0,1-2.871,0,2.856,2.856,0,0,0-1.411,2.491c0,.142,0,1.176,0,1.207a2.847,2.847,0,0,0,5.693-.019Z" transform="translate(-341.059 -302.267)" fill="#57697d"/>
            <path id="Trazado_1211496" data-name="Trazado 1211496" d="M345.339,259.356a2.843,2.843,0,0,1-2.871,0,2.866,2.866,0,0,0-.386.273,11.927,11.927,0,0,1-.941,1.5,7.471,7.471,0,0,0-.084,1.9,2.847,2.847,0,0,0,5.694,0v-1.22A2.845,2.845,0,0,0,345.339,259.356Z" transform="translate(-341.055 -253.223)" fill="#57697d"/>
            <path id="Trazado_1211497" data-name="Trazado 1211497" d="M345.339,204.2a2.843,2.843,0,0,1-2.871,0,2.859,2.859,0,0,0-.386.273,11.928,11.928,0,0,1-.941,1.5,7.471,7.471,0,0,0-.084,1.9,2.847,2.847,0,1,0,5.694,0v-1.22a2.845,2.845,0,0,0-1.411-2.458Z" transform="translate(-341.055 -204.201)" fill="#57697d"/>
            <path id="Trazado_1211498" data-name="Trazado 1211498" d="M346.755,318.214v-1.22a2.845,2.845,0,0,0-1.411-2.458,2.849,2.849,0,0,1-2.871,0,2.856,2.856,0,0,0-1.411,2.491c0,.142,0,1.176,0,1.207a2.847,2.847,0,0,0,5.693-.019Z" transform="translate(-341.059 -302.267)" fill="#57697d"/>
            <path id="Trazado_1211499" data-name="Trazado 1211499" d="M344.972,263.034v-1.22a2.859,2.859,0,0,0-.9-2.074,2.841,2.841,0,0,1-1.6-.384,2.858,2.858,0,0,0-.386.273,11.934,11.934,0,0,1-.941,1.5,7.467,7.467,0,0,0-.084,1.9,2.847,2.847,0,0,0,1.92,2.692A2.782,2.782,0,0,0,344.972,263.034Z" transform="translate(-341.056 -253.223)" fill="#57697d"/>
            <path id="Trazado_1211500" data-name="Trazado 1211500" d="M344.077,204.588l0,0a2.84,2.84,0,0,1-1.6-.384,2.855,2.855,0,0,0-.386.273,11.928,11.928,0,0,1-.941,1.5,7.467,7.467,0,0,0-.084,1.9,2.06,2.06,0,1,0,3.915,0v-1.22A2.836,2.836,0,0,0,344.077,204.588Z" transform="translate(-341.057 -204.2)" fill="#57697d"/>
            <path id="Trazado_1211501" data-name="Trazado 1211501" d="M343.13,320.878a2.85,2.85,0,0,0,1.846-2.665c0-1.607.121-2.168-.9-3.3a2.843,2.843,0,0,1-1.6-.383,2.857,2.857,0,0,0-1.411,2.491c0,.142,0,1.176,0,1.207a2.848,2.848,0,0,0,1.971,2.69Z" transform="translate(-341.059 -302.266)" fill="#57697d"/>
          </g>
          <g id="Grupo_1224515" data-name="Grupo 1224515" transform="translate(1.848 0)">
            <g id="Grupo_1224514" data-name="Grupo 1224514">
              <path id="Trazado_1211502" data-name="Trazado 1211502" d="M360.112,204.2a2.84,2.84,0,0,1-1.486.387,2.836,2.836,0,0,1,.9,2.071v1.22a2.847,2.847,0,0,1-1.846,2.665,2.849,2.849,0,0,0,3.848-2.665v-1.22A2.845,2.845,0,0,0,360.112,204.2Z" transform="translate(-357.675 -204.201)" fill="#3d5168"/>
            </g>
          </g>
          <g id="Grupo_1224517" data-name="Grupo 1224517" transform="translate(1.848 6.133)">
            <g id="Grupo_1224516" data-name="Grupo 1224516">
              <path id="Trazado_1211503" data-name="Trazado 1211503" d="M360.112,259.356a2.84,2.84,0,0,1-1.486.387c1.052.991.9,2.079.9,3.29a2.847,2.847,0,0,1-1.846,2.665,2.849,2.849,0,0,0,3.848-2.665v-1.22A2.845,2.845,0,0,0,360.112,259.356Z" transform="translate(-357.675 -259.356)" fill="#3d5168"/>
            </g>
          </g>
          <g id="Grupo_1224519" data-name="Grupo 1224519" transform="translate(1.848 12.269)">
            <g id="Grupo_1224518" data-name="Grupo 1224518">
              <path id="Trazado_1211504" data-name="Trazado 1211504" d="M360.114,314.535a2.842,2.842,0,0,1-1.487.387c1.04.978.9,2.039.9,3.291a2.85,2.85,0,0,1-1.846,2.665,2.849,2.849,0,0,0,3.847-2.665v-1.22a2.845,2.845,0,0,0-1.411-2.458Z" transform="translate(-357.678 -314.535)" fill="#3d5168"/>
            </g>
          </g>
        </g>
        <path id="Trazado_1211505" data-name="Trazado 1211505" d="M136.291,348.02h-2.175l-4.289,5.269v3.688h-8.578v-3.688l-4.289-5.269h-2.175a5.5,5.5,0,0,0-5.5,5.576v8.749h32.5v-8.826A5.5,5.5,0,0,0,136.291,348.02Z" transform="translate(-97.906 -310.381)" fill="#eaf6ff"/>
        <path id="Trazado_1211506" data-name="Trazado 1211506" d="M136.291,348.02h-2.175l-4.289,5.269v3.688h-8.578v-3.688l-4.289-5.269h-2.175a5.5,5.5,0,0,0-5.5,5.576v8.749h32.5v-8.826A5.5,5.5,0,0,0,136.291,348.02Z" transform="translate(-97.906 -310.381)" fill="#eaf6ff"/>
        <g id="Grupo_1224521" data-name="Grupo 1224521" transform="translate(36.204 37.639)">
          <path id="Trazado_1211507" data-name="Trazado 1211507" d="M334.721,348.02h-2.175l-.005.007a5.5,5.5,0,0,1,5.233,5.492v8.826h2.446v-8.826A5.5,5.5,0,0,0,334.721,348.02Z" transform="translate(-332.54 -348.02)" fill="#d8ecfe"/>
        </g>
        <path id="Trazado_1211508" data-name="Trazado 1211508" d="M210.562,287.447v3.986l4.532,6.621a.556.556,0,0,0,.918,0l4.532-6.621v-3.986Z" transform="translate(-187.921 -256.543)" fill="#ffa78f"/>
        <path id="Trazado_1211509" data-name="Trazado 1211509" d="M115.118,162.606h-2.327a4.044,4.044,0,0,0-1.79,3.36v.025a4.05,4.05,0,0,0,4.208,4.048h2.523v-7.433Z" transform="translate(-99.431 -145.584)" fill="#ffb09e"/>
        <path id="Trazado_1211510" data-name="Trazado 1211510" d="M338.71,162.606h-5.566v7.433h3.115a4.056,4.056,0,0,0,4.241-4.048v-.025A4.044,4.044,0,0,0,338.71,162.606Z" transform="translate(-296.873 -145.584)" fill="#f89580"/>
        <path id="Trazado_1211511" data-name="Trazado 1211511" d="M169.538,86.067H147.458v8.511h0c-.086.816-.066.873-.066,5.483,0,6.8,5.69,11.872,11.325,11.872a11.924,11.924,0,0,0,10.823-11.872C169.538,99.441,169.538,86.667,169.538,86.067Z" transform="translate(-131.771 -77.555)" fill="#ffcebf"/>
        <path id="Trazado_1211512" data-name="Trazado 1211512" d="M186.423,329.915l-4.532-6.62-3.587,2.749,4.289,5.269v9.056h8.578v-9.056l4.289-5.269-3.587-2.749-4.532,6.62A.556.556,0,0,1,186.423,329.915Z" transform="translate(-159.25 -288.404)" fill="#d8ecfe"/>
        <path id="Trazado_1211513" data-name="Trazado 1211513" d="M280.316,403.712v-8a1.112,1.112,0,0,0-1.084-1.112c-4.447-.116-21.18-.118-23.785,6.261v2.856Z" transform="translate(-227.815 -351.755)" fill="#fff3be"/>
        <path id="Trazado_1211514" data-name="Trazado 1211514" d="M280.222,456.82H255.446v-5.711h24.776a2.855,2.855,0,0,1,2.855,2.855h0A2.855,2.855,0,0,1,280.222,456.82Z" transform="translate(-227.814 -402.007)" fill="#fd8087"/>
        <path id="Trazado_1211515" data-name="Trazado 1211515" d="M256.069,109.713v11.365a11.924,11.924,0,0,1-10.824,11.872,11.925,11.925,0,0,0,13.048-11.872V109.713Z" transform="translate(-218.748 -98.572)" fill="#ffb09e"/>
        <path id="Trazado_1211516" data-name="Trazado 1211516" d="M140.532,10C134.121,10,127.1,15.843,127.1,24.15v2.816H134.1a7.263,7.263,0,0,0,7.263-7.263,7.263,7.263,0,0,0,7.263,7.263h4.941V24.15A14.2,14.2,0,0,0,140.532,10Z" transform="translate(-113.735 -9.944)" fill="#57697d"/>
        <g id="Grupo_1224523" data-name="Grupo 1224523" transform="translate(26.353)">
          <g id="Grupo_1224522" data-name="Grupo 1224522">
            <path id="Trazado_1211517" data-name="Trazado 1211517" d="M243.942,9.573A14.2,14.2,0,0,1,256.98,23.726v2.816h2.446V23.726A14.214,14.214,0,0,0,243.942,9.573Z" transform="translate(-243.942 -9.519)" fill="#3d5168"/>
          </g>
        </g>
        <g id="Grupo_1224525" data-name="Grupo 1224525" transform="translate(29.474 34.89)">
          <g id="Grupo_1224524" data-name="Grupo 1224524">
            <path id="Trazado_1211518" data-name="Trazado 1211518" d="M275.166,323.293l-.842,1.23,1.983,1.52-4.289,5.269v9.056h2.446v-9.056l4.289-5.269Z" transform="translate(-272.018 -323.293)" fill="#c4e2ff"/>
          </g>
        </g>
        <path id="Trazado_1211519" data-name="Trazado 1211519" d="M100.444,259.31c-3.272-12.213-3-11.472-3.334-11.75l-.926.248a.96.96,0,0,0-.679,1.176l2.912,10.869Z" transform="translate(-85.629 -221.091)" fill="#5de1c4"/>
        <path id="Trazado_1211520" data-name="Trazado 1211520" d="M110.424,258.059l1.9-.508L109.3,246.292a.96.96,0,0,0-1.176-.679l-1.045.28c.229.25-.016-.479,3.236,11.657Z" transform="translate(-95.949 -219.332)" fill="#0ed2b3"/>
        <path id="Trazado_1211521" data-name="Trazado 1211521" d="M97.656,322.064V317.1a2.224,2.224,0,0,0-2.224-2.224h-3.18a2.224,2.224,0,0,0-2.224,2.224v4.959a2.224,2.224,0,0,0,2.224,2.224h3.18A2.224,2.224,0,0,0,97.656,322.064Z" transform="translate(-80.791 -280.927)" fill="#ffcebf"/>
        <path id="Trazado_1211522" data-name="Trazado 1211522" d="M136.849,314.881h-2.224a2.224,2.224,0,0,1,2.224,2.224v4.959a2.224,2.224,0,0,1-2.224,2.224h2.224a2.224,2.224,0,0,0,2.224-2.224V317.1A2.224,2.224,0,0,0,136.849,314.881Z" transform="translate(-120.428 -280.927)" fill="#ffb09e"/>
        <path id="Trazado_1211523" data-name="Trazado 1211523" d="M277.008,394.6c-1.013-.026-1.35-.024.29-.026-6.1-.009-19.54.626-21.851,6.287v2.856h22.645v-8A1.112,1.112,0,0,0,277.008,394.6Z" transform="translate(-227.815 -351.756)" fill="#ffe177"/>
        <path id="Trazado_1211524" data-name="Trazado 1211524" d="M443.028,394.521c-.7-.018-5.111-.069-2.446,0a1.112,1.112,0,0,1,1.084,1.112v8h2.446v-8A1.112,1.112,0,0,0,443.028,394.521Z" transform="translate(-391.611 -351.68)" fill="#ffd15b"/>
        <path id="Trazado_1211525" data-name="Trazado 1211525" d="M278,456.82a2.856,2.856,0,0,0,0-5.711H255.446v5.711H278Z" transform="translate(-227.814 -402.007)" fill="#fe646f"/>
        <path id="Trazado_1211526" data-name="Trazado 1211526" d="M458.712,451.109h-2.446a2.856,2.856,0,0,1,0,5.711h2.446a2.855,2.855,0,0,0,2.855-2.855h0A2.855,2.855,0,0,0,458.712,451.109Z" transform="translate(-406.304 -402.007)" fill="#fd4755"/>
        <path id="Trazado_1211527" data-name="Trazado 1211527" d="M31.8,403.769v-8a1.112,1.112,0,0,1,1.084-1.112c4.447-.116,21.18-.118,23.785,6.261v2.856Z" transform="translate(-29.032 -351.805)" fill="#fff0ad"/>
        <path id="Trazado_1211528" data-name="Trazado 1211528" d="M34.578,456.82H9.8a2.855,2.855,0,0,1-2.855-2.855h0A2.855,2.855,0,0,1,9.8,451.109H34.578Z" transform="translate(-6.946 -402.007)" fill="#fd8087"/>
        <g id="Grupo_1224526" data-name="Grupo 1224526" transform="translate(19.054 26.774)">
          <path id="Trazado_1211529" data-name="Trazado 1211529" d="M307.319,252.022h1.015a.883.883,0,0,0,.895-.833.859.859,0,0,0-.859-.886h-1.051a.859.859,0,0,0,0,1.718Z" transform="translate(-292.21 -250.304)" fill="#fe8f83"/>
          <path id="Trazado_1211530" data-name="Trazado 1211530" d="M180.214,252.022H179.2a.883.883,0,0,1-.895-.833.859.859,0,0,1,.859-.886h1.051a.859.859,0,0,1,0,1.718Z" transform="translate(-178.303 -250.304)" fill="#fe8f83"/>
        </g>
      </g>
      <g id="Grupo_1224528" data-name="Grupo 1224528" transform="translate(0 2.03)">
        <path id="Trazado_1211531" data-name="Trazado 1211531" d="M228.558,261.3a3.379,3.379,0,0,0,3.375-3.375.834.834,0,0,0-1.668,0,1.707,1.707,0,1,1-3.414,0,.834.834,0,1,0-1.668,0A3.379,3.379,0,0,0,228.558,261.3Z" transform="translate(-200.144 -228.732)"/>
        <path id="Trazado_1211532" data-name="Trazado 1211532" d="M301.394,216.84a.834.834,0,0,0,.834-.834v-1.369h.068a.834.834,0,0,0,0-1.668h-.9a.834.834,0,0,0-.834.834v2.2A.834.834,0,0,0,301.394,216.84Z" transform="translate(-267.14 -189.514)"/>
        <path id="Trazado_1211533" data-name="Trazado 1211533" d="M188.23,214.637h.069v1.369a.834.834,0,1,0,1.668,0v-2.2a.834.834,0,0,0-.834-.834h-.9a.834.834,0,0,0,0,1.668Z" transform="translate(-166.559 -189.514)"/>
        <path id="Trazado_1211534" data-name="Trazado 1211534" d="M54.168,51.249V46.816a1.936,1.936,0,0,0-1.9-1.945c-1.289-.034-3.836-.061-6.806.106a6.278,6.278,0,0,0-1.311-2.938,3.653,3.653,0,0,0,.359-1.581v-1.22a3.692,3.692,0,0,0-.945-2.457,3.666,3.666,0,0,0,.945-2.459V33.1a3.692,3.692,0,0,0-.944-2.457,3.663,3.663,0,0,0,.944-2.459,8,8,0,0,0-.107-2.1,4.957,4.957,0,0,0,.887-2.813v-.025A4.875,4.875,0,0,0,43.5,19.47v-2.4A15.087,15.087,0,0,0,18.135,6.077.834.834,0,0,0,19.273,7.3a13.419,13.419,0,0,1,22.564,9.773v1.982H35.729A6.437,6.437,0,0,1,29.3,12.622a.834.834,0,0,0-1.668,0A6.437,6.437,0,0,1,21.2,19.051H15.028V17.069a13.345,13.345,0,0,1,1.94-6.941.834.834,0,1,0-1.425-.867,15.012,15.012,0,0,0-2.183,7.808v2.4a4.876,4.876,0,0,0-1.79,3.775v.025a4.925,4.925,0,0,0,1.091,3.077,6.05,6.05,0,0,0-.056,1.142c0,.362,0,.647.01.9l-1.442.386a1.8,1.8,0,0,0-1.269,2.2l1.388,5.182a3.062,3.062,0,0,0-2.055,2.888V44a3.03,3.03,0,0,0,.135.892c-2.049-.063-3.741-.04-4.714-.015a1.936,1.936,0,0,0-1.9,1.945v4.427a3.69,3.69,0,0,0,.926,7.261h42.1a.834.834,0,1,0,0-1.668H29.3V52.8H53.242a2.022,2.022,0,0,1,0,4.043H49.684a.834.834,0,1,0,0,1.668h3.558a3.69,3.69,0,0,0,.926-7.261ZM33.588,47.01v-.943l3.852-4.731c1.86,0,3.522-.208,5.1,1.388a4.513,4.513,0,0,1,1.257,2.364A41.026,41.026,0,0,0,33.588,47.01ZM29.3,49.416c0-6.754,0,2.64,0-4.115l4.348-6.352,2.207,1.692-3.747,4.6a.834.834,0,0,0-.187.527V47.7A10.959,10.959,0,0,0,29.3,49.416Zm-4.289-1.708V45.771a.834.834,0,0,0-.187-.527l-3.747-4.6,2.207-1.692L27.632,45.3c0,.372,0,3.749,0,4.121a10.982,10.982,0,0,0-2.621-1.714ZM17.255,35.983H16.7L15.582,31.8a3.754,3.754,0,0,0,1.726-.077A12.765,12.765,0,0,0,18.3,33.2c0,.1,0,.063,0,1.124a2.006,2.006,0,0,1-.885,1.667c-.053,0-.107,0-.161,0Zm-2.216-6.22a1.883,1.883,0,0,0-.718-1.142,4.814,4.814,0,0,1-.048-.982,4.981,4.981,0,0,0,1.641.474,12.635,12.635,0,0,0,.641,2.067,2.022,2.022,0,0,1-1.515-.416Zm4.879,5.158a12.627,12.627,0,0,0,2.723,1.846v.574l-2.328,1.785a3.058,3.058,0,0,0-1.166-2.484A3.662,3.662,0,0,0,19.918,34.921Zm8.538,3.2a12.7,12.7,0,0,0,4.153-.695l.013,0v.068l-4.157,6.073-4.157-6.072v-.033a13.226,13.226,0,0,0,4.148.664Zm13.728-.38a2.022,2.022,0,0,1,.663,1.492,10.516,10.516,0,0,1-.026,1.547,6.6,6.6,0,0,0-4-1.121v-.426a2.022,2.022,0,0,1,.663-1.492A3.691,3.691,0,0,0,42.184,37.745Zm.663-3.424a2.013,2.013,0,1,1-4.026,0,12.561,12.561,0,0,1,.027-1.553,12.823,12.823,0,0,0,.718-1.127,3.7,3.7,0,0,0,2.618-.031,2.022,2.022,0,0,1,.663,1.492Zm-1.081-4.354a1.993,1.993,0,0,1-1.472.157l0-.013a12.534,12.534,0,0,0,.608-1.96l.009-.036a4.964,4.964,0,0,0,1.931-.61A2.319,2.319,0,0,1,41.765,29.966Zm-4.595,4.71a3.667,3.667,0,0,0,.927,2.1,3.692,3.692,0,0,0-.945,2.457v.3l-2.862-2.194v-.63a12.823,12.823,0,0,0,2.88-2.035ZM20.313,44V42.345l3.03,3.722v.945a27.059,27.059,0,0,0-3.749-1.045A3.054,3.054,0,0,0,20.313,44ZM42.4,20.719a3.212,3.212,0,0,1,1.226,2.526v.025a3.193,3.193,0,0,1-2.453,3.1c.026-.331.039-.723.039-1,0-4.523,0-4.361-.008-4.649H42.4ZM28.466,16.2a8.107,8.107,0,0,0,7.263,4.52h3.807c.014.336.01.034.01,4.649a11.13,11.13,0,0,1-22.259,0c0-3.054-.008-4.071.01-4.649H21.2a8.107,8.107,0,0,0,7.263-4.52ZM13.238,23.245a3.212,3.212,0,0,1,1.226-2.526h1.162c-.011.447-.011,1.139-.009,2.532,0,1.92-.015,2.407.04,3.119a3.187,3.187,0,0,1-2.419-3.1Zm-1.633,7.14,1.624-.435a.127.127,0,0,1,.121.032.288.288,0,0,1,.044.1l1.582,5.906h-2L11.516,30.54a.126.126,0,0,1,.089-.154Zm-.3,14.587a1.372,1.372,0,0,1-.4-.972V39.041a1.391,1.391,0,0,1,1.429-1.39c5.254,0,4.954-.009,5.137.02h.011a1.391,1.391,0,0,1,1.162,1.369V44a1.391,1.391,0,0,1-1.39,1.39c-2.3,0-2.1-.212-5.95-.418Zm-6.874,1.85a.277.277,0,0,1,.272-.278c5.724-.149,18.53.245,22.269,4.587H4.431Zm-2.763,8A2.024,2.024,0,0,1,3.689,52.8H27.632v4.043H3.689A2.024,2.024,0,0,1,1.668,54.82Zm28.286-3.689c3.734-4.352,16.534-4.743,22.275-4.593a.277.277,0,0,1,.272.278v4.315Z" transform="translate(0 -2.03)"/>
      </g>
    </g>
  </g>
</svg>
