<svg xmlns="http://www.w3.org/2000/svg" xmlns:xlink="http://www.w3.org/1999/xlink" width="97.533" height="97.533" viewBox="0 0 97.533 97.533">
  <defs>
    <filter id="Trazado_982547" x="0" y="0" width="97.533" height="97.533" filterUnits="userSpaceOnUse">
      <feOffset dy="3" input="SourceAlpha"/>
      <feGaussianBlur stdDeviation="3" result="blur"/>
      <feFlood flood-opacity="0.161"/>
      <feComposite operator="in" in2="blur"/>
      <feComposite in="SourceGraphic"/>
    </filter>
  </defs>
  <g id="Grupo_1224767" data-name="Grupo 1224767" transform="translate(-190.967 -900)">
    <g id="Grupo_1203701" data-name="Grupo 1203701" transform="translate(199.967 906)">
      <g id="Grupo_1203355" data-name="Grupo 1203355" transform="translate(0)">
        <g id="Grupo_1202156" data-name="Grupo 1202156">
          <g id="Grupo_1177900" data-name="Grupo 1177900">
            <g id="Grupo_1172010" data-name="Grupo 1172010">
              <g id="Grupo_1171046" data-name="Grupo 1171046">
                <g id="Grupo_1148525" data-name="Grupo 1148525">
                  <g transform="matrix(1, 0, 0, 1, -9, -6)" filter="url(#Trazado_982547)">
                    <g id="Trazado_982547-2" data-name="Trazado 982547" transform="translate(9 6)" fill="#fdfbec">
                      <path d="M 39.7666015625 78.033203125 C 34.59997940063477 78.033203125 29.58870124816895 77.02164459228516 24.87196731567383 75.02663421630859 C 20.31538963317871 73.099365234375 16.22284507751465 70.34000396728516 12.70802402496338 66.82518005371094 C 9.193202018737793 63.31035614013672 6.433835029602051 59.21781158447266 4.506568431854248 54.66123580932617 C 2.511557102203369 49.94449996948242 1.500001549720764 44.93322372436523 1.500001549720764 39.7666015625 C 1.500001549720764 34.59997940063477 2.511557102203369 29.58870124816895 4.506568431854248 24.87196731567383 C 6.433835029602051 20.31538963317871 9.193202018737793 16.22284507751465 12.70802402496338 12.70802402496338 C 16.22284507751465 9.193202018737793 20.31538963317871 6.433835029602051 24.87196731567383 4.506568431854248 C 29.58870124816895 2.511557102203369 34.59997940063477 1.500001549720764 39.7666015625 1.500001549720764 C 44.93322372436523 1.500001549720764 49.94449996948242 2.511557102203369 54.66123580932617 4.506568431854248 C 59.21781158447266 6.433835029602051 63.31035614013672 9.193202018737793 66.82518005371094 12.70802402496338 C 70.34000396728516 16.22284507751465 73.099365234375 20.31538963317871 75.02663421630859 24.87196731567383 C 77.02164459228516 29.58870124816895 78.033203125 34.59997940063477 78.033203125 39.7666015625 C 78.033203125 44.93322372436523 77.02164459228516 49.94449996948242 75.02663421630859 54.66123580932617 C 73.099365234375 59.21781158447266 70.34000396728516 63.31035614013672 66.82518005371094 66.82518005371094 C 63.31035614013672 70.34000396728516 59.21781158447266 73.099365234375 54.66123580932617 75.02663421630859 C 49.94449996948242 77.02164459228516 44.93322372436523 78.033203125 39.7666015625 78.033203125 Z" stroke="none"/>
                      <path d="M 39.7666015625 3 C 34.80181503295898 3 29.98714065551758 3.971687316894531 25.45630264282227 5.888076782226562 C 21.07851409912109 7.739715576171875 17.146240234375 10.39113616943359 13.76869201660156 13.76869201660156 C 10.39113616943359 17.146240234375 7.739715576171875 21.07851409912109 5.888076782226562 25.45630264282227 C 3.971687316894531 29.98714065551758 3 34.80181503295898 3 39.7666015625 C 3 44.73138809204102 3.971687316894531 49.54606628417969 5.888076782226562 54.076904296875 C 7.739715576171875 58.45468902587891 10.39113616943359 62.386962890625 13.76869201660156 65.76451110839844 C 17.146240234375 69.14206695556641 21.07851409912109 71.79348754882812 25.45630264282227 73.64512634277344 C 29.98714065551758 75.56151580810547 34.80181503295898 76.533203125 39.7666015625 76.533203125 C 44.73138809204102 76.533203125 49.54606628417969 75.56151580810547 54.076904296875 73.64512634277344 C 58.45468902587891 71.79348754882812 62.386962890625 69.14206695556641 65.76451110839844 65.76451110839844 C 69.14206695556641 62.386962890625 71.79348754882812 58.45468902587891 73.64512634277344 54.076904296875 C 75.56151580810547 49.54606628417969 76.533203125 44.73138809204102 76.533203125 39.7666015625 C 76.533203125 34.80181503295898 75.56151580810547 29.98714065551758 73.64512634277344 25.45630264282227 C 71.79348754882812 21.07851409912109 69.14206695556641 17.146240234375 65.76451110839844 13.76869201660156 C 62.386962890625 10.39113616943359 58.45468902587891 7.739715576171875 54.076904296875 5.888076782226562 C 49.54606628417969 3.971687316894531 44.73138809204102 3 39.7666015625 3 M 39.7666015625 0 C 61.72908782958984 0 79.533203125 17.80411529541016 79.533203125 39.7666015625 C 79.533203125 61.72908782958984 61.72908782958984 79.533203125 39.7666015625 79.533203125 C 17.80411529541016 79.533203125 0 61.72908782958984 0 39.7666015625 C 0 17.80411529541016 17.80411529541016 0 39.7666015625 0 Z" stroke="none" fill="#83793c"/>
                    </g>
                  </g>
                </g>
              </g>
            </g>
          </g>
        </g>
      </g>
    </g>
    <g id="mundo" transform="translate(212.341 916.4)">
      <g id="Grupo_1224754" data-name="Grupo 1224754" transform="translate(13.147 1.066)">
        <circle id="Elipse_12770" data-name="Elipse 12770" cx="14.236" cy="14.236" r="14.236" fill="#ccf5fc"/>
      </g>
      <g id="Grupo_1224765" data-name="Grupo 1224765" transform="translate(1.17 2.225)">
        <g id="Grupo_1224755" data-name="Grupo 1224755" transform="translate(32.664 37.748)">
          <path id="Trazado_1212851" data-name="Trazado 1212851" d="M316.4,382.694h6.248a10.066,10.066,0,0,0,9.4-6.462,2.131,2.131,0,0,1,2.383-1.351l.027.005a2.121,2.121,0,0,1,1.586,2.837,14.337,14.337,0,0,1-6.938,7.7V388.4H316.4Z" transform="translate(-316.404 -374.844)" fill="#ffda8f"/>
        </g>
        <g id="Grupo_1224756" data-name="Grupo 1224756" transform="translate(35.863 37.907)">
          <g id="XMLID_1188_">
            <path id="Trazado_1212852" data-name="Trazado 1212852" d="M349.642,376.336a3.243,3.243,0,0,1,3.243,3.243V380.7a3.243,3.243,0,0,1-6.486,0v-1.118A3.243,3.243,0,0,1,349.642,376.336Z" transform="translate(-346.399 -376.336)" fill="#ffd0c7"/>
          </g>
        </g>
        <g id="Grupo_1224757" data-name="Grupo 1224757" transform="translate(22.942 31.565)">
          <g id="XMLID_1186_">
            <path id="Trazado_1212853" data-name="Trazado 1212853" d="M228.518,316.863a3.281,3.281,0,0,0-3.28,3.28v1.131a3.28,3.28,0,0,0,6.561,0v-1.131A3.28,3.28,0,0,0,228.518,316.863Z" transform="translate(-225.238 -316.863)" fill="#ffd0c7"/>
          </g>
        </g>
        <g id="Grupo_1224758" data-name="Grupo 1224758" transform="translate(12.1 29.347)">
          <path id="Trazado_1212854" data-name="Trazado 1212854" d="M150.047,296.1a2.133,2.133,0,0,0-2.492,1.7,10.059,10.059,0,0,1-19.761,0,2.133,2.133,0,0,0-4.191.794,14.309,14.309,0,0,0,7.617,10.106v9.325h12.91V308.7a14.309,14.309,0,0,0,7.617-10.105,2.133,2.133,0,0,0-1.7-2.492Z" transform="translate(-123.565 -296.062)" fill="#66e0f7"/>
        </g>
        <g id="Grupo_1224762" data-name="Grupo 1224762" transform="translate(11.978)">
          <g id="Grupo_1224759" data-name="Grupo 1224759" transform="translate(18.564 6.479)">
            <path id="Trazado_1212855" data-name="Trazado 1212855" d="M304.793,81.622h-3.538a5.387,5.387,0,0,0-4.014,1.795,2.888,2.888,0,0,0,2.152,4.813h1.586l1.107,2.926a1.616,1.616,0,0,0-.513,2.2l1.978,3.248.184-.075a14.244,14.244,0,0,0,1.057-14.907Z" transform="translate(-296.505 -81.622)" fill="#a0e5a5"/>
          </g>
          <g id="Grupo_1224760" data-name="Grupo 1224760">
            <path id="Trazado_1212856" data-name="Trazado 1212856" d="M122.42,33.946c0,.3.01.6.029.893h.218a4.39,4.39,0,0,1,2.5.785l.694.482a1.381,1.381,0,0,0,2.169-1.134V34.4a1.511,1.511,0,0,1,1.511-1.511,1.511,1.511,0,0,0,1.2-.6l3.546-4.68a2.9,2.9,0,0,0-.29-3.825l-2.983-2.92A14.239,14.239,0,0,0,122.42,33.946Z" transform="translate(-122.42 -20.869)" fill="#a0e5a5"/>
          </g>
          <g id="Grupo_1224761" data-name="Grupo 1224761" transform="translate(9.226 14.833)">
            <path id="Trazado_1212857" data-name="Trazado 1212857" d="M214.422,172.3l-1.785-5.064a.96.96,0,0,0-.905-.641h-.284a.96.96,0,0,1-.713-.317l-1.159-1.286a2.473,2.473,0,0,1-.475-2.531l.34-.9a2.473,2.473,0,0,1,2.312-1.6H212.8a3.025,3.025,0,0,1,2.517,1.347.96.96,0,0,0,.8.427h1.6a.96.96,0,0,1,.96.96v3.01a.96.96,0,0,1-.311.707l-.375.343a.96.96,0,0,0-.275.447l-1.375,4.883Z" transform="translate(-208.94 -159.966)" fill="#a0e5a5"/>
          </g>
        </g>
        <g id="Grupo_1224763" data-name="Grupo 1224763" transform="translate(0 37.748)">
          <path id="Trazado_1212858" data-name="Trazado 1212858" d="M29.883,382.694H23.634a10.067,10.067,0,0,1-9.4-6.462,2.131,2.131,0,0,0-2.383-1.351l-.027.005a2.121,2.121,0,0,0-1.586,2.837,14.337,14.337,0,0,0,6.938,7.7V388.4h12.7Z" transform="translate(-10.102 -374.844)" fill="#ff7d97"/>
        </g>
        <g id="Grupo_1224764" data-name="Grupo 1224764" transform="translate(10.097 37.907)">
          <g id="XMLID_1031_">
            <path id="Trazado_1212859" data-name="Trazado 1212859" d="M108.024,376.336a3.243,3.243,0,0,0-3.243,3.243V380.7a3.243,3.243,0,1,0,6.486,0v-1.118A3.243,3.243,0,0,0,108.024,376.336Z" transform="translate(-104.781 -376.336)" fill="#ffd0c7"/>
          </g>
        </g>
      </g>
      <g id="Grupo_1224766" data-name="Grupo 1224766" transform="translate(0.103 0)">
        <path id="Trazado_1212860" data-name="Trazado 1212860" d="M54.273,296.09a3.176,3.176,0,0,0-2.184-1.572l-.029-.006a3.2,3.2,0,0,0-3.578,2.019,8.993,8.993,0,0,1-4.05,4.642,4.3,4.3,0,0,0,.151-1.13v-1.118a4.315,4.315,0,0,0-3.862-4.286A15.408,15.408,0,0,0,42.5,289.85a3.2,3.2,0,0,0-6.287-1.191,8.974,8.974,0,0,1-4.635,6.265,4.331,4.331,0,0,0,.163-1.173V292.62a4.347,4.347,0,1,0-8.694,0v1.131a4.333,4.333,0,0,0,.167,1.189,8.975,8.975,0,0,1-4.667-6.281,3.2,3.2,0,1,0-6.287,1.191,15.415,15.415,0,0,0,1.777,4.792,4.315,4.315,0,0,0-3.836,4.283v1.118a4.3,4.3,0,0,0,.151,1.13,8.993,8.993,0,0,1-4.05-4.642,3.2,3.2,0,0,0-3.579-2.018l-.026,0A3.187,3.187,0,0,0,.311,298.78a15.345,15.345,0,0,0,6.869,7.96v2.343a1.067,1.067,0,0,0,1.066,1.066h38.29a1.067,1.067,0,0,0,1.066-1.066V306.74a15.345,15.345,0,0,0,6.869-7.96,3.182,3.182,0,0,0-.2-2.69Zm-11.822,2.835v1.118a2.176,2.176,0,1,1-4.353,0v-1.118a2.176,2.176,0,0,1,4.353,0Zm-5.841,3.381H34.9V300.4q.546-.307,1.066-.658v.3A4.283,4.283,0,0,0,36.61,302.306ZM25.178,292.62a2.214,2.214,0,1,1,4.428,0v1.131a2.214,2.214,0,0,1-4.428,0Zm-10.657-3.966a1.066,1.066,0,0,1,1.929.4,11.125,11.125,0,0,0,21.857,0,1.067,1.067,0,0,1,1.246-.849h0a1.066,1.066,0,0,1,.849,1.246,13.156,13.156,0,0,1-7.05,9.352,1.066,1.066,0,0,0-.585.952v8.259H21.99v-8.259a1.067,1.067,0,0,0-.585-.952,13.359,13.359,0,0,1-3.586-2.637,4.346,4.346,0,0,0-.329-.352,13.154,13.154,0,0,1-3.135-6.364,1.059,1.059,0,0,1,.166-.8Zm4.3,11.1q.507.34,1.039.639v1.909H18.174a4.283,4.283,0,0,0,.644-2.264v-.285Zm-6.486-.833a2.176,2.176,0,0,1,4.353,0v1.118a2.176,2.176,0,1,1-4.353,0Zm-3.6,6.223a13.226,13.226,0,0,1-6.422-7.125,1.054,1.054,0,0,1,.789-1.411l.026,0a1.068,1.068,0,0,1,1.188.684A11.182,11.182,0,0,0,14.7,304.439h5.155v3.577H9.314V306.1a1.067,1.067,0,0,0-.585-.952Zm43.75-7.125a13.226,13.226,0,0,1-6.422,7.125,1.066,1.066,0,0,0-.585.952v1.916H34.9v-3.577h5.182a11.182,11.182,0,0,0,10.393-7.148,1.067,1.067,0,0,1,1.187-.684l.029.006a1.054,1.054,0,0,1,.788,1.411Z" transform="translate(-0.103 -255.55)"/>
        <path id="Trazado_1212861" data-name="Trazado 1212861" d="M114.578,20.883a1.066,1.066,0,0,0,.668-1.352,13.072,13.072,0,0,1-.525-2.119,3.322,3.322,0,0,1,.908.444l.695.483a2.447,2.447,0,0,0,3.843-2.01v-.568a.446.446,0,0,1,.445-.445,2.592,2.592,0,0,0,2.055-1.021l3.546-4.68a3.966,3.966,0,0,0-.4-5.234l-1.774-1.723a13.163,13.163,0,0,1,14.384,4.981H136.8a6.461,6.461,0,0,0-4.809,2.15,3.954,3.954,0,0,0,2.947,6.591h.85l.591,1.562-.522.823a1.533,1.533,0,0,0-.015,1.628l2.015,3.309a13.209,13.209,0,0,1-6.269,4.191l.922-3.273.352-.323a2.031,2.031,0,0,0,.657-1.494v-3.01a2.028,2.028,0,0,0-2.026-2.026h-1.546a4.083,4.083,0,0,0-3.372-1.775h-1.051a3.557,3.557,0,0,0-3.31,2.286l-.34.9a3.525,3.525,0,0,0,.68,3.623l1.159,1.286a2.029,2.029,0,0,0,1.505.67h.208l1.3,3.68a13.106,13.106,0,0,1-6.075-2.019,1.066,1.066,0,0,0-1.147,1.8,15.277,15.277,0,1,0-6.278-8,1.066,1.066,0,0,0,1.352.668Zm10.69,1.737-1.127-1.251a1.4,1.4,0,0,1-.27-1.439l.34-.9a1.413,1.413,0,0,1,1.315-.908h1.051a1.955,1.955,0,0,1,1.63.873,2.022,2.022,0,0,0,1.686.9h1.5v2.856l-.34.312a2.025,2.025,0,0,0-.581.944l-1.231,4.372-.255.027-1.565-4.438A2.029,2.029,0,0,0,125.5,22.62Zm13.917-.84-1.33-2.184.611-.963a1.066,1.066,0,0,0,.1-.949l-1.04-2.749a1.066,1.066,0,0,0-1-.689h-1.586a1.821,1.821,0,0,1-1.357-3.036,4.326,4.326,0,0,1,3.22-1.439h2.871a13.149,13.149,0,0,1-.487,12.009ZM121.86,3.512l2.469,2.4a1.831,1.831,0,0,1,.183,2.416l-3.546,4.68a.447.447,0,0,1-.355.176,2.581,2.581,0,0,0-2.578,2.578v.568a.315.315,0,0,1-.494.258l-.695-.483a5.43,5.43,0,0,0-2.292-.914A13.184,13.184,0,0,1,121.86,3.512Z" transform="translate(-100.443 0)"/>
        <circle id="Elipse_12771" data-name="Elipse 12771" cx="1.066" cy="1.066" r="1.066" transform="translate(15.014 23.026)"/>
      </g>
    </g>
  </g>
</svg>
