<svg xmlns="http://www.w3.org/2000/svg" xmlns:xlink="http://www.w3.org/1999/xlink" width="103" height="103" viewBox="0 0 103 103">
  <defs>
    <filter id="Trazado_904820" x="0" y="0" width="103" height="103" filterUnits="userSpaceOnUse">
      <feOffset dy="3" input="SourceAlpha"/>
      <feGaussianBlur stdDeviation="3" result="blur"/>
      <feFlood flood-opacity="0.161"/>
      <feComposite operator="in" in2="blur"/>
      <feComposite in="SourceGraphic"/>
    </filter>
  </defs>
  <g id="Grupo_1224537" data-name="Grupo 1224537" transform="translate(-209 -280)">
    <g id="Grupo_1223799" data-name="Grupo 1223799" transform="translate(218 286)">
      <g id="Grupo_1223164" data-name="Grupo 1223164" transform="translate(0 0)">
        <g id="Grupo_1203639" data-name="Grupo 1203639">
          <g id="Grupo_1202437" data-name="Grupo 1202437">
            <g id="Grupo_1177315" data-name="Grupo 1177315">
              <g id="Grupo_1173585" data-name="Grupo 1173585">
                <g id="Grupo_1173428" data-name="Grupo 1173428">
                  <g id="Grupo_1171958" data-name="Grupo 1171958">
                    <g id="Grupo_1167341" data-name="Grupo 1167341">
                      <g id="Grupo_1166792" data-name="Grupo 1166792">
                        <g transform="matrix(1, 0, 0, 1, -9, -6)" filter="url(#Trazado_904820)">
                          <g id="Trazado_904820-2" data-name="Trazado 904820" transform="translate(9 6)" fill="#effbfe">
                            <path d="M 42.49993515014648 83.49986267089844 C 36.96432495117188 83.49986267089844 31.59508895874023 82.41603851318359 26.5413703918457 80.27849578857422 C 21.65931129455566 78.21355438232422 17.27445220947266 75.25711059570312 13.50860595703125 71.49126434326172 C 9.742758750915527 67.72541046142578 6.786311626434326 63.34055328369141 4.721370220184326 58.45849609375 C 2.583829164505005 53.40477752685547 1.500005722045898 48.03554153442383 1.500005722045898 42.49993133544922 C 1.500005722045898 36.96430969238281 2.583829164505005 31.59507179260254 4.721370220184326 26.54136657714844 C 6.786311626434326 21.6593074798584 9.742758750915527 17.27444839477539 13.50860595703125 13.50860214233398 C 17.27445220947266 9.742754936218262 21.65931129455566 6.786295890808105 26.5413703918457 4.721366405487061 C 31.59508895874023 2.583825349807739 36.96432495117188 1.500001907348633 42.49993515014648 1.500001907348633 C 48.03555679321289 1.500001907348633 53.40479278564453 2.583825349807739 58.45849990844727 4.721366405487061 C 63.34056854248047 6.786295890808105 67.72542572021484 9.742754936218262 71.49127960205078 13.50860214233398 C 75.25712585449219 17.27444839477539 78.21356964111328 21.6593074798584 80.27851104736328 26.54136657714844 C 82.41605377197266 31.59507179260254 83.4998779296875 36.96430969238281 83.4998779296875 42.49993133544922 C 83.4998779296875 48.03554153442383 82.41605377197266 53.40477752685547 80.27851104736328 58.45849609375 C 78.21356964111328 63.34055328369141 75.25712585449219 67.72541046142578 71.49127960205078 71.49126434326172 C 67.72542572021484 75.25711059570312 63.34056854248047 78.21355438232422 58.45849990844727 80.27849578857422 C 53.40479278564453 82.41603851318359 48.03555679321289 83.49986267089844 42.49993515014648 83.49986267089844 Z" stroke="none"/>
                            <path d="M 42.49993515014648 3 C 37.16616058349609 3 31.99352264404297 4.043960571289062 27.12569427490234 6.102867126464844 C 22.42242813110352 8.092185974121094 18.19784545898438 10.94068908691406 14.56926727294922 14.56926727294922 C 10.94069671630859 18.19783782958984 8.092185974121094 22.42242431640625 6.102867126464844 27.12569046020508 C 4.043960571289062 31.9935188293457 3 37.16615676879883 3 42.49993133544922 C 3 47.83370590209961 4.043960571289062 53.00634384155273 6.102867126464844 57.87417221069336 C 8.092185974121094 62.57743835449219 10.94069671630859 66.80202484130859 14.56926727294922 70.43059539794922 C 18.19784545898438 74.05917358398438 22.42242813110352 76.90767669677734 27.12569427490234 78.89699554443359 C 31.99352264404297 80.95590209960938 37.16616058349609 81.99986267089844 42.49993515014648 81.99986267089844 C 47.83370971679688 81.99986267089844 53.00634765625 80.95590209960938 57.87417602539062 78.89699554443359 C 62.57744216918945 76.90767669677734 66.80203247070312 74.05917358398438 70.43060302734375 70.43059539794922 C 74.05917358398438 66.80202484130859 76.90768432617188 62.57743835449219 78.89700317382812 57.87417221069336 C 80.95590972900391 53.00634384155273 81.99987030029297 47.83370590209961 81.99987030029297 42.49993133544922 C 81.99987030029297 37.16615676879883 80.95590972900391 31.9935188293457 78.89700317382812 27.12569046020508 C 76.90768432617188 22.42242431640625 74.05917358398438 18.19783782958984 70.43060302734375 14.56926727294922 C 66.80203247070312 10.94068908691406 62.57744216918945 8.092185974121094 57.87417602539062 6.102867126464844 C 53.00634765625 4.043960571289062 47.83370971679688 3 42.49993515014648 3 M 42.49993515014648 0 C 65.97200012207031 0 84.99987030029297 19.02786254882812 84.99987030029297 42.49993133544922 C 84.99987030029297 65.97200012207031 65.97200012207031 84.99986267089844 42.49993515014648 84.99986267089844 C 19.02787017822266 84.99986267089844 0 65.97200012207031 0 42.49993133544922 C 0 19.02786254882812 19.02787017822266 0 42.49993515014648 0 Z" stroke="none" fill="#6ae2f6"/>
                          </g>
                        </g>
                      </g>
                    </g>
                  </g>
                </g>
              </g>
            </g>
          </g>
        </g>
      </g>
    </g>
    <g id="gardener_2814071" transform="translate(189.825 296.481)">
      <g id="Grupo_1224535" data-name="Grupo 1224535" transform="translate(45.098 0.935)">
        <path id="Trazado_1211572" data-name="Trazado 1211572" d="M152.635,374.855l-10.913-6.877-2.136-1.189h-4.062l-2.26,1.189-10.913,6.877a3.969,3.969,0,0,0-1.853,3.358V383.4a.759.759,0,0,0,.759.759h4.276l.531-.773,1.3-.339,21.69.721.4.391h4.276a.759.759,0,0,0,.759-.759v-5.188A3.969,3.969,0,0,0,152.635,374.855Z" transform="translate(-111.915 -321.992)" fill="#fedf30"/>
        <g id="Grupo_1224533" data-name="Grupo 1224533" transform="translate(8.203 15.831)">
          <path id="Trazado_1211573" data-name="Trazado 1211573" d="M117.457,134.469h35v13.793h-35Z" transform="translate(-117.457 -134.469)" fill="#7a6d79"/>
        </g>
        <path id="Trazado_1211574" data-name="Trazado 1211574" d="M183.378,7.5a11.049,11.049,0,0,0-10.531,7.71l4.183,2.551h13.878l3-2.549A11.049,11.049,0,0,0,183.378,7.5Z" transform="translate(-157.738 -7.499)" fill="#fee45a"/>
        <path id="Trazado_1211575" data-name="Trazado 1211575" d="M179.438,16.5A11.043,11.043,0,0,1,188.7,8.869a11.046,11.046,0,0,0-15.857,6.34l4.183,2.551h2.091A10.99,10.99,0,0,1,179.438,16.5Z" transform="translate(-157.738 -7.499)" fill="#fedf30"/>
        <g id="XMLID_1174_" transform="translate(14.478 7.035)">
          <g id="Grupo_1224534" data-name="Grupo 1224534">
            <path id="Trazado_1211576" data-name="Trazado 1211576" d="M189.968,67.188l.142,5.93H167.787l.142-5.93a11.077,11.077,0,0,1,.489-2.591,82.3,82.3,0,0,1,21.062,0A11.067,11.067,0,0,1,189.968,67.188Z" transform="translate(-167.787 -63.922)" fill="#d77f4a"/>
          </g>
        </g>
        <path id="Trazado_1211577" data-name="Trazado 1211577" d="M174.521,68.92a11,11,0,0,1,1.3-4.5q-3.7.141-7.4.613a11.077,11.077,0,0,0-.489,2.591l-.142,5.93h6.622Z" transform="translate(-153.309 -57.324)" fill="#c86d36"/>
        <path id="Trazado_1211578" data-name="Trazado 1211578" d="M323.23,210.638a2.781,2.781,0,0,0,2.781-2.781v-2.045a2.781,2.781,0,0,0-2.781-2.781h-8.8v7.606h8.8Z" transform="translate(-281.672 -178.653)" fill="#f6a96c"/>
        <path id="Trazado_1211579" data-name="Trazado 1211579" d="M113.291,210.638h-2.179a2.781,2.781,0,0,1-2.781-2.781v-2.045a2.781,2.781,0,0,1,2.781-2.781h6.578v7.606h-4.4Z" transform="translate(-101.266 -178.653)" fill="#ea9b58"/>
        <path id="Trazado_1211580" data-name="Trazado 1211580" d="M231.345,338.888a4.229,4.229,0,1,1-8.459,0v-7.342h8.458v7.342Z" transform="translate(-201.538 -291.144)" fill="#ffbd86"/>
        <path id="Trazado_1211581" data-name="Trazado 1211581" d="M143.328,368.99l-1.607-1.013-.419-.234-1.717-.956h-4.062l-2.26,1.189-10.913,6.877a3.969,3.969,0,0,0-1.853,3.358V383.4a.759.759,0,0,0,.759.759h3.47v-3.745a3.969,3.969,0,0,1,1.853-3.358l3.668-2.312a2.534,2.534,0,0,1,2.964.168,6.687,6.687,0,0,0,4.376,1.544,6.8,6.8,0,0,0,6.628-6.833v-.076Z" transform="translate(-111.915 -321.992)" fill="#fed402"/>
        <path id="Trazado_1211582" data-name="Trazado 1211582" d="M231.345,338.888a4.229,4.229,0,1,1-8.459,0v-7.342h8.458v7.342Z" transform="translate(-201.538 -291.144)" fill="#ffbd86"/>
        <path id="Trazado_1211583" data-name="Trazado 1211583" d="M225.421,331.546h-2.535v7.342a4.229,4.229,0,0,0,4.229,4.229c.115,0,.229-.006.342-.015a4.215,4.215,0,0,1-1.211-2.962V339.5a.916.916,0,0,1,.923-.913h.009a16.088,16.088,0,0,0,4.167-.547v-6.491Z" transform="translate(-201.538 -291.144)" fill="#f6a96c"/>
        <path id="Trazado_1211584" data-name="Trazado 1211584" d="M147.98,123.808v16.814a13.614,13.614,0,0,0,5.759,11.129l.917-2.538,4.307,3.274,3.613,1.274a16.278,16.278,0,0,0,1.986.169,13.635,13.635,0,0,0,10.68-13.31l.108-16.814H147.98Z" transform="translate(-135.971 -109.307)" fill="#ffbd86"/>
        <path id="Trazado_1211585" data-name="Trazado 1211585" d="M155.452,141.07V124.256h19.895l0-.448H147.98v16.814a13.639,13.639,0,0,0,16.582,13.31A13.636,13.636,0,0,1,155.452,141.07Z" transform="translate(-135.971 -109.307)" fill="#f6a96c"/>
        <path id="Trazado_1211586" data-name="Trazado 1211586" d="M170.326,400.366h-4.183v-9.787a.681.681,0,0,1,.316-.575l2.821-1.788a.681.681,0,0,1,1.046.575Z" transform="translate(-151.87 -340.654)" fill="#2ed1e2"/>
        <path id="Trazado_1211587" data-name="Trazado 1211587" d="M313.925,399.742h4.182v-9.164a.681.681,0,0,0-.316-.575l-2.821-1.788a.681.681,0,0,0-1.046.575Z" transform="translate(-281.226 -340.654)" fill="#2ed1e2"/>
        <path id="Trazado_1211588" data-name="Trazado 1211588" d="M184.8,470.493v-4.211a.862.862,0,0,0-.862-.862h-22.2a.862.862,0,0,0-.862.862v4.211Z" transform="translate(-147.262 -408.325)" fill="#6bd9e7"/>
        <path id="Trazado_1211589" data-name="Trazado 1211589" d="M102.161,108.261H52.32a.657.657,0,0,1-.657-.657V106.5a2.181,2.181,0,0,1,1.565-2.1,83.676,83.676,0,0,1,48.031,0,2.181,2.181,0,0,1,1.559,2.094V107.6A.657.657,0,0,1,102.161,108.261Z" transform="translate(-51.663 -89.237)" fill="#fee45a"/>
        <path id="Trazado_1211590" data-name="Trazado 1211590" d="M66.2,106.393a84.536,84.536,0,0,1,30.072-3.3,83.576,83.576,0,0,0-43.045,1.317,2.181,2.181,0,0,0-1.565,2.1v1.107a.657.657,0,0,0,.657.657H64.649A2.179,2.179,0,0,1,66.2,106.393Z" transform="translate(-51.663 -89.242)" fill="#fedf30"/>
        <path id="Trazado_1211591" data-name="Trazado 1211591" d="M231.773,306.92h-1.45a3.015,3.015,0,0,1-3.015-3.015v-.759a.382.382,0,0,1,.382-.382h6.716a.382.382,0,0,1,.382.382v.759a3.015,3.015,0,0,1-3.015,3.015Z" transform="translate(-205.408 -265.949)" fill="#f47c7c"/>
      </g>
      <g id="Grupo_1224536" data-name="Grupo 1224536" transform="translate(44.163 0)">
        <path id="Trazado_1211592" data-name="Trazado 1211592" d="M386.549,483.563a.935.935,0,0,0-.935.935v1.877a.935.935,0,0,0,1.87,0V484.5A.935.935,0,0,0,386.549,483.563Z" transform="translate(-343.042 -423.272)"/>
        <path id="Trazado_1211593" data-name="Trazado 1211593" d="M184.124,484.267a.935.935,0,0,0-.935.935v.55a.935.935,0,0,0,1.87,0v-.55A.935.935,0,0,0,184.124,484.267Z" transform="translate(-165.855 -423.888)"/>
        <path id="Trazado_1211594" data-name="Trazado 1211594" d="M317.36,484.267a.935.935,0,0,0-.935.935v.55a.935.935,0,0,0,1.87,0v-.55A.935.935,0,0,0,317.36,484.267Z" transform="translate(-282.479 -423.888)"/>
        <path id="Trazado_1211595" data-name="Trazado 1211595" d="M94.958,15.2a88.167,88.167,0,0,0-12.176-2.675l-.091-1.352a11.9,11.9,0,0,0-.512-2.742.931.931,0,0,0-.042-.133A11.98,11.98,0,0,0,67.418.469a.935.935,0,0,0,.518,1.8A10.1,10.1,0,0,1,79.812,7.534a83.584,83.584,0,0,0-18.151,0,10.123,10.123,0,0,1,3-3.626A.935.935,0,1,0,63.53,2.414,11.988,11.988,0,0,0,59.337,8.3a.911.911,0,0,0-.037.118,11.968,11.968,0,0,0-.514,2.751l-.091,1.348A89.882,89.882,0,0,0,46.4,15.2a3.131,3.131,0,0,0-2.238,2.993V19.3a1.594,1.594,0,0,0,1.592,1.592h6.611v4.529a3.7,3.7,0,0,0-1.138,2.672v2.045a3.72,3.72,0,0,0,3.716,3.716h1.318a14.478,14.478,0,0,0,.686,3.1.935.935,0,0,0,1.77-.6,12.671,12.671,0,0,1-.676-4.1V20.894H83.434V32.251a12.7,12.7,0,0,1-22.982,7.442.935.935,0,1,0-1.514,1.1,14.615,14.615,0,0,0,6.574,5.049V46.4L63.582,47.62a1.615,1.615,0,0,0-1.574.087L59.187,49.5a1.608,1.608,0,0,0-.751,1.365v0l-3.4,2.144a4.879,4.879,0,0,0-2.289,4.149V63.1a.935.935,0,0,0,1.87,0V57.156a3.019,3.019,0,0,1,1.416-2.567l2.4-1.515V57.5a1.8,1.8,0,0,0-.656,1.388V63.1a.935.935,0,1,0,1.87,0V58.964H81.7V63.1a.935.935,0,1,0,1.87,0V58.891a1.794,1.794,0,0,0-.656-1.388v-4.43l2.4,1.515a3.018,3.018,0,0,1,1.416,2.567v.085a.935.935,0,1,0,1.87,0v-.085a4.879,4.879,0,0,0-2.289-4.149l-3.4-2.144v0a1.608,1.608,0,0,0-.751-1.365l-2.821-1.788a1.615,1.615,0,0,0-1.574-.087L75.84,46.4v-.511a14.6,14.6,0,0,0,9.375-12.038h1.441a3.72,3.72,0,0,0,3.716-3.716V28.095a3.7,3.7,0,0,0-1.138-2.672V20.894H95.6A1.594,1.594,0,0,0,97.188,19.3V18.191a3.131,3.131,0,0,0-2.23-2.991ZM73.97,46.455v2.224a3.294,3.294,0,0,1-6.588,0V46.421a14.514,14.514,0,0,0,6.588.034ZM60.307,57.094V51l2.312-1.466v7.56ZM81.044,51v6.094H78.732v-7.56Zm-4.183-1.741v7.834H64.489V49.259l1.022-.644v.064a5.164,5.164,0,0,0,10.329,0v-.064ZM60.652,11.3a10.094,10.094,0,0,1,.287-1.8,81.71,81.71,0,0,1,19.6,0,10.064,10.064,0,0,1,.288,1.8l.066.974a83.1,83.1,0,0,0-10.152-.63h0a83.522,83.522,0,0,0-10.147.628ZM53.1,30.14V28.1a1.848,1.848,0,0,1,1.846-1.846h1.228v5.736H54.944A1.848,1.848,0,0,1,53.1,30.14Zm3.073-5.76H54.944a3.721,3.721,0,0,0-.708.068V20.894h1.935v3.485ZM88.5,30.14a1.848,1.848,0,0,1-1.846,1.846H85.3V26.249h1.352A1.848,1.848,0,0,1,88.5,28.095Zm-1.138-5.692a3.72,3.72,0,0,0-.708-.068H85.3V20.894h2.06v3.554Zm7.954-5.424H46.033v-.829a1.251,1.251,0,0,1,.891-1.2A87.824,87.824,0,0,1,59.67,14.275l22.135,0A86.149,86.149,0,0,1,94.43,16.994a1.251,1.251,0,0,1,.888,1.2v.833Z" transform="translate(-44.163 0)"/>
        <path id="Trazado_1211596" data-name="Trazado 1211596" d="M196.941,223.673v1.465a.935.935,0,0,0,1.87,0v-1.465a.935.935,0,0,0-1.87,0Z" transform="translate(-177.893 -194.967)"/>
        <path id="Trazado_1211597" data-name="Trazado 1211597" d="M180.931,194.512a.935.935,0,1,0,1.276,1.367,1.75,1.75,0,0,1,2.791,0,.935.935,0,0,0,1.276-1.367A3.562,3.562,0,0,0,180.931,194.512Z" transform="translate(-163.618 -169.205)"/>
        <path id="Trazado_1211598" data-name="Trazado 1211598" d="M302.673,223.673v1.465a.935.935,0,1,0,1.87,0v-1.465a.935.935,0,1,0-1.87,0Z" transform="translate(-270.442 -194.967)"/>
        <path id="Trazado_1211599" data-name="Trazado 1211599" d="M291.367,196.129a.935.935,0,0,0,.638-1.619,3.562,3.562,0,0,0-5.342,0,.935.935,0,0,0,1.276,1.367,1.75,1.75,0,0,1,2.791,0A.931.931,0,0,0,291.367,196.129Z" transform="translate(-256.167 -169.204)"/>
        <path id="Trazado_1211600" data-name="Trazado 1211600" d="M237.649,247.717a.752.752,0,0,1,1.5,0,.935.935,0,1,0,1.87,0,2.622,2.622,0,1,0-5.244,0,.935.935,0,1,0,1.87,0Z" transform="translate(-211.888 -214.536)"/>
        <path id="Trazado_1211601" data-name="Trazado 1211601" d="M219.808,296.581v.759a3.955,3.955,0,0,0,3.95,3.95h1.45a3.955,3.955,0,0,0,3.95-3.95v-.759a1.319,1.319,0,0,0-1.317-1.318h-6.716A1.319,1.319,0,0,0,219.808,296.581Zm1.87.553h5.61v.206a2.083,2.083,0,0,1-2.08,2.08h-1.45a2.083,2.083,0,0,1-2.08-2.08v-.206Z" transform="translate(-197.908 -258.449)"/>
      </g>
    </g>
  </g>
</svg>
