<svg xmlns="http://www.w3.org/2000/svg" xmlns:xlink="http://www.w3.org/1999/xlink" width="108" height="108" viewBox="0 0 108 108">
  <defs>
    <filter id="Trazado_904820" x="0" y="0" width="108" height="108" filterUnits="userSpaceOnUse">
      <feOffset dy="3" input="SourceAlpha"/>
      <feGaussianBlur stdDeviation="3" result="blur"/>
      <feFlood flood-opacity="0.161"/>
      <feComposite operator="in" in2="blur"/>
      <feComposite in="SourceGraphic"/>
    </filter>
  </defs>
  <g id="Grupo_1224987" data-name="Grupo 1224987" transform="translate(-195.928 -4226)">
    <g id="Grupo_1224428" data-name="Grupo 1224428" transform="translate(0 3906)">
      <g id="Grupo_1223342" data-name="Grupo 1223342" transform="translate(-424.072 -561)">
        <g id="Grupo_1203639" data-name="Grupo 1203639" transform="translate(0 81)">
          <g id="Grupo_1202437" data-name="Grupo 1202437" transform="translate(0.523 386.813)">
            <g id="Grupo_1177315" data-name="Grupo 1177315" transform="translate(-0.523 -112.813)">
              <g id="Grupo_1173585" data-name="Grupo 1173585" transform="translate(629 532)">
                <g id="Grupo_1173428" data-name="Grupo 1173428" transform="translate(0 0)">
                  <g id="Grupo_1171958" data-name="Grupo 1171958">
                    <g id="Grupo_1167341" data-name="Grupo 1167341">
                      <g id="Grupo_1166792" data-name="Grupo 1166792">
                        <g transform="matrix(1, 0, 0, 1, -9, -6)" filter="url(#Trazado_904820)">
                          <g id="Trazado_904820-2" data-name="Trazado 904820" transform="translate(9 6)" fill="#edf3fc">
                            <path d="M 44.99999618530273 88.49999237060547 C 39.12687301635742 88.49999237060547 33.43022155761719 87.35006713867188 28.06829643249512 85.08216857910156 C 22.88852119445801 82.89130401611328 18.23629570007324 79.75457763671875 14.24084663391113 75.75914001464844 C 10.24540901184082 71.76369476318359 7.108683586120605 67.11146545410156 4.917821407318115 61.93169403076172 C 2.649921178817749 56.56976699829102 1.499996185302734 50.87311553955078 1.499996185302734 44.99999237060547 C 1.499996185302734 39.12686920166016 2.649921178817749 33.43021774291992 4.917821407318115 28.06829261779785 C 7.108683586120605 22.88851737976074 10.24540901184082 18.23630523681641 14.24084663391113 14.24085521697998 C 18.23629570007324 10.24540519714355 22.88852119445801 7.108692169189453 28.06829643249512 4.917829990386963 C 33.43022155761719 2.649929761886597 39.12687301635742 1.500004887580872 44.99999618530273 1.500004887580872 C 50.87311935424805 1.500004887580872 56.56977081298828 2.649929761886597 61.93169784545898 4.917829990386963 C 67.11147308349609 7.108692169189453 71.76369476318359 10.24540519714355 75.75914764404297 14.24085521697998 C 79.75458526611328 18.23630523681641 82.89131164550781 22.88851737976074 85.08216857910156 28.06829261779785 C 87.35007476806641 33.43021774291992 88.5 39.12686920166016 88.5 44.99999237060547 C 88.5 50.87311553955078 87.35007476806641 56.56976699829102 85.08216857910156 61.93169403076172 C 82.89131164550781 67.11146545410156 79.75458526611328 71.76369476318359 75.75914764404297 75.75914001464844 C 71.76369476318359 79.75457763671875 67.11147308349609 82.89130401611328 61.93169784545898 85.08216857910156 C 56.56977081298828 87.35006713867188 50.87311935424805 88.49999237060547 44.99999618530273 88.49999237060547 Z" stroke="none"/>
                            <path d="M 44.99999618530273 2.999992370605469 C 39.32870864868164 2.999992370605469 33.82865142822266 4.11004638671875 28.65262603759766 6.299331665039062 C 23.65165710449219 8.414566040039062 19.15968322753906 11.44333648681641 15.301513671875 15.30150604248047 C 11.44333648681641 19.15967559814453 8.414566040039062 23.65164947509766 6.299339294433594 28.65262222290039 C 4.110054016113281 33.82864761352539 2.999992370605469 39.32870483398438 2.999992370605469 44.99999237060547 C 2.999992370605469 50.67127990722656 4.110054016113281 56.17132186889648 6.299339294433594 61.34736633300781 C 8.414566040039062 66.34833526611328 11.44333648681641 70.84029388427734 15.301513671875 74.69846343994141 C 19.15968322753906 78.55663299560547 23.65165710449219 81.58540344238281 28.65262603759766 83.70063781738281 C 33.82865142822266 85.88992309570312 39.32870864868164 86.99997711181641 44.99999618530273 86.99997711181641 C 50.67128372192383 86.99997711181641 56.17134094238281 85.88992309570312 61.34736633300781 83.70063781738281 C 66.34834289550781 81.58540344238281 70.84030914306641 78.55663299560547 74.69847869873047 74.69846343994141 C 78.55665588378906 70.84029388427734 81.58542633056641 66.34833526611328 83.70065307617188 61.34736633300781 C 85.88993835449219 56.17132186889648 87 50.67127990722656 87 44.99999237060547 C 87 39.32870483398438 85.88993835449219 33.82864761352539 83.70065307617188 28.65262222290039 C 81.58542633056641 23.65164947509766 78.55665588378906 19.15967559814453 74.69847869873047 15.30150604248047 C 70.84030914306641 11.44333648681641 66.34834289550781 8.414566040039062 61.34736633300781 6.299331665039062 C 56.17134094238281 4.11004638671875 50.67128372192383 2.999992370605469 44.99999618530273 2.999992370605469 M 44.99999618530273 -7.62939453125e-06 C 69.85281372070312 -7.62939453125e-06 90 20.14717864990234 90 44.99999237060547 C 90 69.85279083251953 69.85281372070312 89.99997711181641 44.99999618530273 89.99997711181641 C 20.14717864990234 89.99997711181641 -7.62939453125e-06 69.85279083251953 -7.62939453125e-06 44.99999237060547 C -7.62939453125e-06 20.14717864990234 20.14717864990234 -7.62939453125e-06 44.99999618530273 -7.62939453125e-06 Z" stroke="none" fill="#5692e8"/>
                          </g>
                        </g>
                      </g>
                    </g>
                  </g>
                </g>
              </g>
            </g>
          </g>
        </g>
      </g>
    </g>
    <g id="granja" transform="translate(218.547 4206.1)">
      <g id="Grupo_1224985" data-name="Grupo 1224985" transform="translate(0.919 43.346)">
        <g id="Grupo_1224984" data-name="Grupo 1224984" transform="translate(0 0)">
          <g id="Grupo_1224983" data-name="Grupo 1224983">
            <g id="Grupo_1224982" data-name="Grupo 1224982">
              <path id="Trazado_1213150" data-name="Trazado 1213150" d="M31.358,246.322a1.106,1.106,0,0,1,.462-.9l4.684-3.343.13-.244H29.779a1.226,1.226,0,0,0-.712.228L24.5,245.325a1.226,1.226,0,0,0-.514,1v5.621h7.248l.123-.229v-5.393Z" transform="translate(-21.967 -218.314)" fill="#fe646f"/>
              <path id="Trazado_1213151" data-name="Trazado 1213151" d="M93.914,253.645v-7.324a1.226,1.226,0,0,0-.514-1l-4.885-3.487-4.885,3.487a1.226,1.226,0,0,0-.514,1v5.622A33.644,33.644,0,0,1,93.914,253.645Z" transform="translate(-73.847 -218.313)" fill="#fd4755"/>
              <g id="Grupo_1224978" data-name="Grupo 1224978" transform="translate(16.732 24.997)">
                <path id="Trazado_1213152" data-name="Trazado 1213152" d="M146.821,255.87,144,253.857v9.413a30.374,30.374,0,0,1,3.335.922v-7.324A1.226,1.226,0,0,0,146.821,255.87Z" transform="translate(-144 -253.857)" fill="#fb2b3a"/>
              </g>
              <path id="Trazado_1213153" data-name="Trazado 1213153" d="M115.945,288.718h-2.217a.613.613,0,0,0-.613.613v3.932a33.684,33.684,0,0,1,3.443.522v-4.454A.613.613,0,0,0,115.945,288.718Z" transform="translate(-100.169 -259.447)" fill="#fff"/>
              <g id="Grupo_1224979" data-name="Grupo 1224979" transform="translate(42.629)">
                <path id="Trazado_1213154" data-name="Trazado 1213154" d="M365.176,50.091a1.858,1.858,0,0,0-1.52,0,14.173,14.173,0,0,0,.2,25.962,1.43,1.43,0,0,0,1.128,0,14.173,14.173,0,0,0,.2-25.962Z" transform="translate(-355.27 -49.928)" fill="#8bc727"/>
                <path id="Trazado_1213155" data-name="Trazado 1213155" d="M404.91,50.091a1.858,1.858,0,0,0-1.52,0c-.248.111-.491.231-.731.355a14.168,14.168,0,0,1-2.1,23.828,14.167,14.167,0,0,0,3.032,1.779,1.43,1.43,0,0,0,1.127,0,14.173,14.173,0,0,0,.2-25.962Z" transform="translate(-395.004 -49.928)" fill="#81b823"/>
              </g>
              <g id="Grupo_1224981" data-name="Grupo 1224981" transform="translate(11.775 4.135)">
                <path id="Trazado_1213156" data-name="Trazado 1213156" d="M267.106,114.776a1.828,1.828,0,0,0-1.52,0,12.384,12.384,0,0,0,.2,22.61,1.41,1.41,0,0,0,1.126,0,12.384,12.384,0,0,0,.2-22.61Z" transform="translate(-239.38 -110.817)" fill="#a2e62e"/>
                <path id="Trazado_1213157" data-name="Trazado 1213157" d="M307.482,114.776a1.828,1.828,0,0,0-1.52,0,12.372,12.372,0,0,0-1.591.877,12.377,12.377,0,0,1,0,20.767,12.355,12.355,0,0,0,1.788.966,1.41,1.41,0,0,0,1.126,0,12.384,12.384,0,0,0,.2-22.61Z" transform="translate(-279.756 -110.817)" fill="#97d729"/>
                <g id="Grupo_1224980" data-name="Grupo 1224980">
                  <circle id="Elipse_12838" data-name="Elipse 12838" cx="4.44" cy="4.44" r="4.44" fill="#fedf30"/>
                  <path id="Trazado_1213158" data-name="Trazado 1213158" d="M115.279,83.96a4.438,4.438,0,0,1-3.5,7.168,4.473,4.473,0,0,1-.559-.036,4.439,4.439,0,1,0,4.06-7.132Z" transform="translate(-110.28 -83.924)" fill="#fed402"/>
                </g>
              </g>
              <path id="Trazado_1213159" data-name="Trazado 1213159" d="M44.9,340.136H9.339A1.839,1.839,0,0,1,7.5,338.3v-13.97A1.226,1.226,0,0,1,8.726,323.1h7.929C30.156,323.1,39.2,329.744,44.9,340.136Z" transform="translate(-7.5 -289.616)" fill="#a2e62e"/>
              <path id="Trazado_1213160" data-name="Trazado 1213160" d="M16.655,363.143H7.5v10.288a1.839,1.839,0,0,0,1.839,1.839H40.271C34.566,367.741,27.886,363.143,16.655,363.143Z" transform="translate(-7.5 -324.749)" fill="#97d729"/>
              <path id="Trazado_1213161" data-name="Trazado 1213161" d="M7.5,403.186v5.38A1.839,1.839,0,0,0,9.339,410.4H34.207c-5.251-4.569-9.028-7.218-17.553-7.218Z" transform="translate(-7.5 -359.884)" fill="#8bc727"/>
              <path id="Trazado_1213162" data-name="Trazado 1213162" d="M7.5,403.186v5.38A1.839,1.839,0,0,0,9.339,410.4H34.207c-5.251-4.569-9.028-7.218-17.553-7.218Z" transform="translate(-7.5 -359.884)" fill="#8bc727"/>
              <path id="Trazado_1213163" data-name="Trazado 1213163" d="M7.5,434.486v1.543a1.839,1.839,0,0,0,1.839,1.839H34.207a51.214,51.214,0,0,0-4.217-3.381Z" transform="translate(-7.5 -387.347)" fill="#81b823"/>
              <path id="Trazado_1213164" data-name="Trazado 1213164" d="M199.378,340.136h35.563a1.839,1.839,0,0,0,1.839-1.839v-13.97a1.226,1.226,0,0,0-1.226-1.226h-7.929C214.124,323.1,205.082,329.744,199.378,340.136Z" transform="translate(-175.858 -289.616)" fill="#a2e62e"/>
              <path id="Trazado_1213165" data-name="Trazado 1213165" d="M235.554,323.1h-2.193v11.815a1.839,1.839,0,0,1-1.839,1.839H201.446q-1.1,1.615-2.068,3.381h35.563a1.839,1.839,0,0,0,1.839-1.839v-13.97A1.226,1.226,0,0,0,235.554,323.1Z" transform="translate(-175.858 -289.616)" fill="#97d729"/>
              <path id="Trazado_1213166" data-name="Trazado 1213166" d="M248.934,375.27h29.488a1.839,1.839,0,0,0,1.839-1.839V363.143h-9.155C259.875,363.143,254.639,367.741,248.934,375.27Z" transform="translate(-219.339 -324.749)" fill="#97d729"/>
              <path id="Trazado_1213167" data-name="Trazado 1213167" d="M276.841,363.143v6.906A1.839,1.839,0,0,1,275,371.888h-23.34c-.915,1.048-1.816,2.177-2.729,3.381h29.488a1.839,1.839,0,0,0,1.839-1.839V363.143Z" transform="translate(-219.338 -324.749)" fill="#8bc727"/>
              <path id="Trazado_1213168" data-name="Trazado 1213168" d="M303.109,410.4h22.848a1.839,1.839,0,0,0,1.839-1.839v-5.38h-9.155C310.116,403.186,308.36,405.836,303.109,410.4Z" transform="translate(-266.874 -359.884)" fill="#8bc727"/>
              <path id="Trazado_1213169" data-name="Trazado 1213169" d="M324.375,403.186v2a1.839,1.839,0,0,1-1.839,1.839h-15.6c-1.152.965-2.352,2.1-3.828,3.381h22.848a1.839,1.839,0,0,0,1.839-1.839v-5.38Z" transform="translate(-266.873 -359.884)" fill="#81b823"/>
            </g>
          </g>
        </g>
      </g>
      <g id="Grupo_1224986" data-name="Grupo 1224986" transform="translate(0 42.427)">
        <path id="Trazado_1213170" data-name="Trazado 1213170" d="M101.419,86.882a5.359,5.359,0,1,0-5.359-5.359A5.365,5.365,0,0,0,101.419,86.882Zm0-8.88a3.52,3.52,0,1,1-3.52,3.52A3.524,3.524,0,0,1,101.419,78Z" transform="translate(-84.285 -72.029)"/>
        <path id="Trazado_1213171" data-name="Trazado 1213171" d="M133.2,45.023a.919.919,0,0,0,.919-.919v-.757a.919.919,0,0,0-1.839,0V44.1A.919.919,0,0,0,133.2,45.023Z" transform="translate(-116.065 -42.427)"/>
        <path id="Trazado_1213172" data-name="Trazado 1213172" d="M132.28,177.079v.757a.919.919,0,1,0,1.839,0v-.757a.919.919,0,1,0-1.839,0Z" transform="translate(-116.065 -159.767)"/>
        <path id="Trazado_1213173" data-name="Trazado 1213173" d="M63.243,114.223H64a.919.919,0,1,0,0-1.839h-.758a.919.919,0,1,0,0,1.839Z" transform="translate(-54.684 -103.809)"/>
        <path id="Trazado_1213174" data-name="Trazado 1213174" d="M196.057,113.3a.919.919,0,0,0,.919.919h.758a.919.919,0,0,0,0-1.839h-.758A.919.919,0,0,0,196.057,113.3Z" transform="translate(-172.025 -103.809)"/>
        <path id="Trazado_1213175" data-name="Trazado 1213175" d="M97.8,53.834a.919.919,0,1,0,1.593-.919l-.379-.656a.919.919,0,1,0-1.593.919Z" transform="translate(-85.375 -50.65)"/>
        <path id="Trazado_1213176" data-name="Trazado 1213176" d="M164.628,167.738a.919.919,0,0,0-.337,1.256l.379.656a.919.919,0,0,0,1.593-.919l-.379-.656A.92.92,0,0,0,164.628,167.738Z" transform="translate(-144.044 -152.269)"/>
        <path id="Trazado_1213177" data-name="Trazado 1213177" d="M72.811,144.394l-.656.379a.919.919,0,1,0,.92,1.592l.656-.379a.919.919,0,1,0-.92-1.592Z" transform="translate(-62.907 -131.787)"/>
        <path id="Trazado_1213178" data-name="Trazado 1213178" d="M188.432,79.622a.916.916,0,0,0,.459-.123l.656-.379a.919.919,0,1,0-.92-1.592l-.656.379a.919.919,0,0,0,.461,1.716Z" transform="translate(-164.527 -73.117)"/>
        <path id="Trazado_1213179" data-name="Trazado 1213179" d="M72.155,79.12l.656.379a.919.919,0,1,0,.92-1.592l-.656-.379a.919.919,0,1,0-.92,1.592Z" transform="translate(-62.907 -73.116)"/>
        <path id="Trazado_1213180" data-name="Trazado 1213180" d="M187.971,145.987l.656.379a.919.919,0,1,0,.92-1.592l-.656-.379a.919.919,0,0,0-.92,1.592Z" transform="translate(-164.526 -131.787)"/>
        <path id="Trazado_1213181" data-name="Trazado 1213181" d="M97.8,168.073l-.379.656a.919.919,0,1,0,1.593.919l.379-.656a.919.919,0,1,0-1.593-.919Z" transform="translate(-85.375 -152.268)"/>
        <path id="Trazado_1213182" data-name="Trazado 1213182" d="M164.628,54.17a.919.919,0,0,0,1.256-.337l.379-.656a.919.919,0,0,0-1.593-.919l-.379.656A.919.919,0,0,0,164.628,54.17Z" transform="translate(-144.044 -50.649)"/>
        <path id="Trazado_1213183" data-name="Trazado 1213183" d="M60.615,75.916h-7V70.322l.007,0a15.093,15.093,0,0,0,.209-27.646,2.782,2.782,0,0,0-2.272,0,15.11,15.11,0,0,0-8.285,9.411A13.244,13.244,0,0,0,40.8,50.608a2.742,2.742,0,0,0-2.286,0,13.259,13.259,0,0,0-7.329,8.7.919.919,0,1,0,1.778.469,11.426,11.426,0,0,1,6.317-7.494.9.9,0,0,1,.754,0,11.463,11.463,0,0,1,.542,20.583v-3.5l2.933-2.933a.919.919,0,0,0-1.3-1.3L40.58,66.767V63.609l2.259-2.259a.919.919,0,1,0-1.3-1.3l-.958.959v-3.4a.919.919,0,1,0-1.839,0v3.4l-.959-.959a.919.919,0,0,0-1.3,1.3l2.259,2.259v3.158l-1.633-1.633a.919.919,0,0,0-1.3,1.3l2.933,2.933v3.5a11.452,11.452,0,0,1-6.1-9.117.919.919,0,0,0-1.831.165A13.293,13.293,0,0,0,38.729,74.9l.012,0v3.826a29.224,29.224,0,0,0-7.37,4.784,29.322,29.322,0,0,0-9.466-5.628V71.358a2.149,2.149,0,0,0-.9-1.746l-4.885-3.487a.919.919,0,0,0-.536-.171H8.732a2.133,2.133,0,0,0-1.246.4L2.92,69.612a2.149,2.149,0,0,0-.9,1.746v4.564A2.147,2.147,0,0,0,0,78.061V92.032A2.761,2.761,0,0,0,2.758,94.79H60a2.761,2.761,0,0,0,2.758-2.758V78.061A2.148,2.148,0,0,0,60.615,75.916ZM48.571,62.7a13.2,13.2,0,0,0-.162-2.051l3.367,3.367v4.273a13.425,13.425,0,0,1-3.546-2.6,13.284,13.284,0,0,0,.341-2.99Zm-3.759-9.257a13.264,13.264,0,0,1,7.5-9.1.941.941,0,0,1,.769,0,13.252,13.252,0,0,1,.535,23.942V64.021l3.4-3.4a.919.919,0,0,0-1.3-1.3l-2.1,2.1V57.43l2.624-2.624a.919.919,0,1,0-1.3-1.3L53.614,54.83V50.62a.919.919,0,0,0-1.839,0v4.21l-1.324-1.324a.919.919,0,1,0-1.3,1.3l2.624,2.624v3.99l-2.1-2.1a.917.917,0,0,0-1.484.264,13.376,13.376,0,0,0-3.384-6.14ZM40.58,74.9l.012,0a13.307,13.307,0,0,0,7.023-7.244,15.216,15.216,0,0,0,4.153,2.667l.007,0v5.6a33.972,33.972,0,0,0-11.2,2.043ZM19.938,71.109a.307.307,0,0,1,.128.249V77.28q-.905-.265-1.839-.478V73.233A1.534,1.534,0,0,0,16.7,71.7H14.478a1.534,1.534,0,0,0-1.532,1.532V76.02q-.909-.066-1.839-.09V71.358a.307.307,0,0,1,.128-.249L15.587,68Zm-3.549,5.324q-.793-.135-1.6-.235V73.54h1.6Zm-12.4-5.324L8.554,67.85a.3.3,0,0,1,.178-.057h3.985l-2.549,1.819a2.149,2.149,0,0,0-.9,1.746v4.557H3.86V71.358a.307.307,0,0,1,.128-.249ZM2.145,77.755h7.929c7.9,0,14.606,2.363,19.951,7.023q-.94.936-1.824,1.97a25.45,25.45,0,0,0-8.087-4.436.919.919,0,0,0-.578,1.746,23.649,23.649,0,0,1,7.508,4.119q-.928,1.208-1.788,2.533c-4.095-3.163-8.077-4.977-15.182-4.977H1.839v-3.07h8.235a33.956,33.956,0,0,1,5.431.415.932.932,0,0,0,.149.012.919.919,0,0,0,.147-1.827,35.786,35.786,0,0,0-5.726-.439H1.839V78.061a.307.307,0,0,1,.306-.307ZM1.839,92.031v-4.46h8.235c6.709,0,10.293,1.652,14.21,4.712q-.194.331-.385.668H2.758a.92.92,0,0,1-.919-.919ZM52.686,77.755h7.929a.307.307,0,0,1,.306.306v2.763h-7.11a.919.919,0,1,0,0,1.839h7.11v3.07H52.686c-7.83,0-10.285,2.205-14.35,5.859-.486.437-.988.887-1.527,1.36H32.392a31.361,31.361,0,0,1,6.66-6.562,21.1,21.1,0,0,1,10.551-3.6.919.919,0,1,0-.162-1.832c-9.075.8-14.029,5-19.381,11.989H26.026C32.061,82.865,41.022,77.755,52.686,77.755ZM60,92.951H39.574c3.986-3.582,5.992-5.38,13.113-5.38h8.235v4.46A.92.92,0,0,1,60,92.951Z" transform="translate(0 -42.43)"/>
      </g>
    </g>
  </g>
</svg>
