<svg xmlns="http://www.w3.org/2000/svg" xmlns:xlink="http://www.w3.org/1999/xlink" width="103" height="103" viewBox="0 0 103 103">
  <defs>
    <filter id="Trazado_904820" x="0" y="0" width="103" height="103" filterUnits="userSpaceOnUse">
      <feOffset dy="3" input="SourceAlpha"/>
      <feGaussianBlur stdDeviation="3" result="blur"/>
      <feFlood flood-opacity="0.161"/>
      <feComposite operator="in" in2="blur"/>
      <feComposite in="SourceGraphic"/>
    </filter>
  </defs>
  <g id="Grupo_1224991" data-name="Grupo 1224991" transform="translate(-171 -5250)">
    <g id="Grupo_1224429" data-name="Grupo 1224429" transform="translate(180 5256)">
      <g id="Grupo_1223164" data-name="Grupo 1223164" transform="translate(0 0)">
        <g id="Grupo_1203639" data-name="Grupo 1203639" transform="translate(0 0)">
          <g id="Grupo_1202437" data-name="Grupo 1202437" transform="translate(0 0)">
            <g id="Grupo_1177315" data-name="Grupo 1177315">
              <g id="Grupo_1173585" data-name="Grupo 1173585" transform="translate(0)">
                <g id="Grupo_1173428" data-name="Grupo 1173428">
                  <g id="Grupo_1171958" data-name="Grupo 1171958">
                    <g id="Grupo_1167341" data-name="Grupo 1167341">
                      <g id="Grupo_1166792" data-name="Grupo 1166792">
                        <g transform="matrix(1, 0, 0, 1, -9, -6)" filter="url(#Trazado_904820)">
                          <g id="Trazado_904820-2" data-name="Trazado 904820" transform="translate(9 6)" fill="#effbfe">
                            <path d="M 42.49993515014648 83.49986267089844 C 36.96432495117188 83.49986267089844 31.59508895874023 82.41603851318359 26.5413703918457 80.27849578857422 C 21.65931129455566 78.21355438232422 17.27445220947266 75.25711059570312 13.50860595703125 71.49126434326172 C 9.742758750915527 67.72541046142578 6.786311626434326 63.34055328369141 4.721370220184326 58.45849609375 C 2.583829164505005 53.40477752685547 1.500005722045898 48.03554153442383 1.500005722045898 42.49993133544922 C 1.500005722045898 36.96430969238281 2.583829164505005 31.59507179260254 4.721370220184326 26.54136657714844 C 6.786311626434326 21.6593074798584 9.742758750915527 17.27444839477539 13.50860595703125 13.50860214233398 C 17.27445220947266 9.742754936218262 21.65931129455566 6.786295890808105 26.5413703918457 4.721366405487061 C 31.59508895874023 2.583825349807739 36.96432495117188 1.500001907348633 42.49993515014648 1.500001907348633 C 48.03555679321289 1.500001907348633 53.40479278564453 2.583825349807739 58.45849990844727 4.721366405487061 C 63.34056854248047 6.786295890808105 67.72542572021484 9.742754936218262 71.49127960205078 13.50860214233398 C 75.25712585449219 17.27444839477539 78.21356964111328 21.6593074798584 80.27851104736328 26.54136657714844 C 82.41605377197266 31.59507179260254 83.4998779296875 36.96430969238281 83.4998779296875 42.49993133544922 C 83.4998779296875 48.03554153442383 82.41605377197266 53.40477752685547 80.27851104736328 58.45849609375 C 78.21356964111328 63.34055328369141 75.25712585449219 67.72541046142578 71.49127960205078 71.49126434326172 C 67.72542572021484 75.25711059570312 63.34056854248047 78.21355438232422 58.45849990844727 80.27849578857422 C 53.40479278564453 82.41603851318359 48.03555679321289 83.49986267089844 42.49993515014648 83.49986267089844 Z" stroke="none"/>
                            <path d="M 42.49993515014648 3 C 37.16616058349609 3 31.99352264404297 4.043960571289062 27.12569427490234 6.102867126464844 C 22.42242813110352 8.092185974121094 18.19784545898438 10.94068908691406 14.56926727294922 14.56926727294922 C 10.94069671630859 18.19783782958984 8.092185974121094 22.42242431640625 6.102867126464844 27.12569046020508 C 4.043960571289062 31.9935188293457 3 37.16615676879883 3 42.49993133544922 C 3 47.83370590209961 4.043960571289062 53.00634384155273 6.102867126464844 57.87417221069336 C 8.092185974121094 62.57743835449219 10.94069671630859 66.80202484130859 14.56926727294922 70.43059539794922 C 18.19784545898438 74.05917358398438 22.42242813110352 76.90767669677734 27.12569427490234 78.89699554443359 C 31.99352264404297 80.95590209960938 37.16616058349609 81.99986267089844 42.49993515014648 81.99986267089844 C 47.83370971679688 81.99986267089844 53.00634765625 80.95590209960938 57.87417602539062 78.89699554443359 C 62.57744216918945 76.90767669677734 66.80203247070312 74.05917358398438 70.43060302734375 70.43059539794922 C 74.05917358398438 66.80202484130859 76.90768432617188 62.57743835449219 78.89700317382812 57.87417221069336 C 80.95590972900391 53.00634384155273 81.99987030029297 47.83370590209961 81.99987030029297 42.49993133544922 C 81.99987030029297 37.16615676879883 80.95590972900391 31.9935188293457 78.89700317382812 27.12569046020508 C 76.90768432617188 22.42242431640625 74.05917358398438 18.19783782958984 70.43060302734375 14.56926727294922 C 66.80203247070312 10.94068908691406 62.57744216918945 8.092185974121094 57.87417602539062 6.102867126464844 C 53.00634765625 4.043960571289062 47.83370971679688 3 42.49993515014648 3 M 42.49993515014648 0 C 65.97200012207031 0 84.99987030029297 19.02786254882812 84.99987030029297 42.49993133544922 C 84.99987030029297 65.97200012207031 65.97200012207031 84.99986267089844 42.49993515014648 84.99986267089844 C 19.02787017822266 84.99986267089844 0 65.97200012207031 0 42.49993133544922 C 0 19.02786254882812 19.02787017822266 0 42.49993515014648 0 Z" stroke="none" fill="#6ae2f6"/>
                          </g>
                        </g>
                      </g>
                    </g>
                  </g>
                </g>
              </g>
            </g>
          </g>
        </g>
      </g>
    </g>
    <g id="muchacha" transform="translate(167.432 5270.69)">
      <g id="Grupo_1224989" data-name="Grupo 1224989" transform="translate(29.655 0.867)">
        <path id="Trazado_1213184" data-name="Trazado 1213184" d="M138.949,400.649h-5.225l-5.159-7.188a12.443,12.443,0,0,1,4.615-6.4h12.383Z" transform="translate(-117.892 -343.163)" fill="#fd8b9b"/>
        <path id="Trazado_1213185" data-name="Trazado 1213185" d="M158.3,393.006l2.893-5.941H148.808a9.931,9.931,0,0,0-2.571,2.528A24.472,24.472,0,0,0,158.3,393.006Z" transform="translate(-133.52 -343.162)" fill="#e75b70"/>
        <path id="Trazado_1213186" data-name="Trazado 1213186" d="M237.435,393.461l-5.159,7.188H218.339v-2.926a9.764,9.764,0,0,1,2.86-6.9l3.754-3.754h7.868A12.441,12.441,0,0,1,237.435,393.461Z" transform="translate(-197.282 -343.163)" fill="#e75b70"/>
        <path id="Trazado_1213187" data-name="Trazado 1213187" d="M124.847,443.682v5.864h-6.32a21.021,21.021,0,0,1,1.161-7.188Z" transform="translate(-109.015 -392.06)" fill="#fed2a4"/>
        <path id="Trazado_1213188" data-name="Trazado 1213188" d="M345.153,449.545h-6.32v-5.864l5.159-1.324A21.021,21.021,0,0,1,345.153,449.545Z" transform="translate(-303.839 -392.059)" fill="#fed2a4"/>
        <path id="Trazado_1213189" data-name="Trazado 1213189" d="M45.15,25.223A8.861,8.861,0,1,1,53.4,13.113Z" transform="translate(-36.289 -7.5)" fill="#303646"/>
        <circle id="Elipse_12839" data-name="Elipse 12839" cx="4.247" cy="4.247" r="4.247" transform="translate(11.042 1.366)" fill="#fd8b9b"/>
        <circle id="Elipse_12840" data-name="Elipse 12840" cx="8.861" cy="8.861" r="8.861" transform="translate(33.103)" fill="#303646"/>
        <circle id="Elipse_12841" data-name="Elipse 12841" cx="4.247" cy="4.247" r="4.247" transform="translate(31.291 1.366)" fill="#fd8b9b"/>
        <path id="Trazado_1213190" data-name="Trazado 1213190" d="M134.051,23.647a5.017,5.017,0,0,1,.546-2.281,4.247,4.247,0,1,0,4.08,7.3,5.041,5.041,0,0,1-4.625-5.023Z" transform="translate(-120.71 -19.762)" fill="#e75b70"/>
        <path id="Trazado_1213191" data-name="Trazado 1213191" d="M310.072,23.547a4.6,4.6,0,0,1,2.354-4.015,4.247,4.247,0,1,0,.018,8.041A4.6,4.6,0,0,1,310.072,23.547Z" transform="translate(-275.53 -17.943)" fill="#e75b70"/>
        <path id="Trazado_1213192" data-name="Trazado 1213192" d="M46.238,63.756a24.262,24.262,0,1,1,48.525,0Z" transform="translate(-45.087 -35.793)" fill="#475066"/>
        <circle id="Elipse_12842" data-name="Elipse 12842" cx="5.326" cy="5.326" r="5.326" transform="translate(39.967 22.637)" fill="#ffbd86"/>
        <path id="Trazado_1213193" data-name="Trazado 1213193" d="M55.452,65.528a25.312,25.312,0,0,1,8.96-19.346A24.306,24.306,0,0,0,46.238,69.671h9.553A25.532,25.532,0,0,1,55.452,65.528Z" transform="translate(-45.087 -41.708)" fill="#303646"/>
        <path id="Trazado_1213194" data-name="Trazado 1213194" d="M242.86,387.065h-7.868l-3.754,3.754a9.756,9.756,0,0,0-1.546,2.018,26.279,26.279,0,0,0,3.043.177,24.568,24.568,0,0,0,12.7-3.421A9.931,9.931,0,0,0,242.86,387.065Z" transform="translate(-207.322 -343.162)" fill="#c74156"/>
        <path id="Trazado_1213195" data-name="Trazado 1213195" d="M124.43,138.091a5.977,5.977,0,0,0-5.651-4.016h-6.96a4.3,4.3,0,0,1-3.041-1.26l-1.365-1.365a2.185,2.185,0,0,0-3.09,0l-1.365,1.365a4.3,4.3,0,0,1-3.041,1.26h-6.96a5.977,5.977,0,0,0-5.651,4.016,19.6,19.6,0,0,0-1.074,6.42c0,10.845,8.792,18.419,19.637,18.419s19.637-7.574,19.637-18.419A19.6,19.6,0,0,0,124.43,138.091Z" transform="translate(-80.454 -116.548)" fill="#fed2a4"/>
        <path id="Trazado_1213196" data-name="Trazado 1213196" d="M61.919,189.091a25.4,25.4,0,0,1-12.932-28.65,5.973,5.973,0,0,0-4.262,3.853q-.2.583-.367,1.183a5.085,5.085,0,0,0-.95-.089,5.326,5.326,0,1,0,0,10.652,5.079,5.079,0,0,0,.976-.094C46.586,183.51,53.527,188.592,61.919,189.091Z" transform="translate(-37.874 -142.751)" fill="#ffbd86"/>
        <g id="Grupo_1224988" data-name="Grupo 1224988" transform="translate(9.513 27.324)">
          <ellipse id="Elipse_12843" data-name="Elipse 12843" cx="4.286" cy="3.413" rx="4.286" ry="3.413" fill="#fd8b9b"/>
          <ellipse id="Elipse_12844" data-name="Elipse 12844" cx="4.286" cy="3.413" rx="4.286" ry="3.413" transform="translate(23.23)" fill="#fd8b9b"/>
        </g>
        <path id="Trazado_1213197" data-name="Trazado 1213197" d="M68.269,79.782l7.616-8.412-1.192-.619-6.9,5.594Z" transform="translate(-64.152 -63.435)" fill="#303646"/>
      </g>
      <g id="Grupo_1224990" data-name="Grupo 1224990" transform="translate(28.787 0)">
        <path id="Trazado_1213198" data-name="Trazado 1213198" d="M152.041,218.9a.867.867,0,0,0,1.735,0,1.172,1.172,0,1,1,2.345,0,.867.867,0,1,0,1.735,0,2.907,2.907,0,1,0-5.815,0Z" transform="translate(-137.785 -191.012)"/>
        <path id="Trazado_1213199" data-name="Trazado 1213199" d="M309.687,218.9a.867.867,0,1,0,1.735,0,1.172,1.172,0,1,1,2.345,0,.868.868,0,0,0,1.735,0,2.907,2.907,0,1,0-5.815,0Z" transform="translate(-277.196 -191.012)"/>
        <path id="Trazado_1213200" data-name="Trazado 1213200" d="M234.333,254.541a2,2,0,0,1-3.02,0,.868.868,0,0,0-1.308,1.14,3.735,3.735,0,0,0,5.636,0,.867.867,0,0,0-1.308-1.14Z" transform="translate(-206.543 -224.836)"/>
        <path id="Trazado_1213201" data-name="Trazado 1213201" d="M32.651,17.488a24.979,24.979,0,0,0-2.44,7.662,6.189,6.189,0,0,0,5.349,9.862,18.664,18.664,0,0,0,7.83,9.868,14.669,14.669,0,0,0-3.877,5.991h0A22.006,22.006,0,0,0,38.3,58.354a.868.868,0,0,0,.868.867h31.8a.868.868,0,0,0,.867-.867,22.005,22.005,0,0,0-1.213-7.482h0a14.661,14.661,0,0,0-3.885-6,19.525,19.525,0,0,0,2.646-1.988.867.867,0,0,0-1.157-1.293,17.961,17.961,0,0,1-3.492,2.439,21.052,21.052,0,0,1-19.379-.023L45.332,44A16.928,16.928,0,0,1,36.3,28.83a18.813,18.813,0,0,1,.676-5.009h0a5.975,5.975,0,0,1,1.759-3.249,5.118,5.118,0,0,1,3.423-1.311h6.96a5.134,5.134,0,0,0,3.654-1.514l1.365-1.365a1.317,1.317,0,0,1,1.863,0l1.365,1.365a5.134,5.134,0,0,0,3.654,1.514h6.96a5.114,5.114,0,0,1,4.831,3.433c.113.326.25.764.35,1.127h0a18.835,18.835,0,0,1,.676,5.009,17,17,0,0,1-3.371,10.33A.867.867,0,1,0,71.852,40.2a18.233,18.233,0,0,0,2.73-5.193,6.189,6.189,0,0,0,5.344-9.862,24.979,24.979,0,0,0-2.44-7.662A9.727,9.727,0,0,0,66.411,1.514a5.11,5.11,0,0,0-5.849,2.8,25.037,25.037,0,0,0-10.988,0,5.11,5.11,0,0,0-5.849-2.8A9.721,9.721,0,0,0,31.182,3.34.868.868,0,0,0,32.49,4.48,7.993,7.993,0,0,1,41.8,2.442a5.123,5.123,0,0,0-1.543,6.1q-.91.665-1.764,1.415a25.312,25.312,0,0,0-5,6,8,8,0,0,1-2.6-8.639.868.868,0,1,0-1.654-.524,9.731,9.731,0,0,0,3.409,10.7Zm11.969,40h-4.57a20.291,20.291,0,0,1,.845-5.279l3.725.956Zm25.467,0h-4.57V53.163l3.725-.956A20.3,20.3,0,0,1,70.087,57.486ZM55.206,48.117a22.307,22.307,0,0,0,9.9-2.325l.019-.009A12.02,12.02,0,0,1,68.64,50.57l-4.206,1.079a.867.867,0,0,0-.652.84v5h-12.2V55.428C51.579,50.862,54.738,48.723,55.206,48.117ZM45,45.792a21.739,21.739,0,0,0,7.853,2.224,10.6,10.6,0,0,0-3.011,7.412v2.058h-3.49v-5a.868.868,0,0,0-.652-.84L41.5,50.57A12.19,12.19,0,0,1,45,45.792ZM30.729,28.83a4.466,4.466,0,0,1,4.321-4.457,20.656,20.656,0,0,0-.487,4.457,20.114,20.114,0,0,0,.5,4.457,4.464,4.464,0,0,1-4.335-4.457Zm48.677,0a4.464,4.464,0,0,1-4.335,4.457,19.95,19.95,0,0,0,.5-4.457,20.645,20.645,0,0,0-.487-4.457A4.466,4.466,0,0,1,79.406,28.83ZM71.62,1.735a7.993,7.993,0,0,1,5.017,14.216,25.313,25.313,0,0,0-5-6q-.853-.75-1.764-1.415a5.119,5.119,0,0,0-1.543-6.1,7.95,7.95,0,0,1,3.288-.707ZM65.193,3.1A3.38,3.38,0,0,1,68.4,7.537a24.93,24.93,0,0,0-6.114-2.78A3.394,3.394,0,0,1,65.193,3.1Zm-20.249,0a3.393,3.393,0,0,1,2.906,1.656,24.928,24.928,0,0,0-6.114,2.78A3.38,3.38,0,0,1,44.943,3.1ZM55.068,5.436a23.439,23.439,0,0,1,22.741,17.9,6.24,6.24,0,0,0-3.187-.689c-.04-.127-.115-.354-.171-.519a6.848,6.848,0,0,0-6.471-4.6h-6.96a3.411,3.411,0,0,1-2.428-1.005l-1.365-1.365a3.051,3.051,0,0,0-4.317,0l-1.365,1.365a3.41,3.41,0,0,1-2.428,1.005h-6.96a6.853,6.853,0,0,0-4.584,1.757,6.989,6.989,0,0,0-2.059,3.361,6.166,6.166,0,0,0-3.187.689,23.444,23.444,0,0,1,22.74-17.9Z" transform="translate(-28.787 0)"/>
      </g>
    </g>
  </g>
</svg>
